<mxfile host="app.diagrams.net" modified="2023-09-29T07:55:58.427Z" agent="Mozilla/5.0 (Windows NT 10.0; Win64; x64) AppleWebKit/537.36 (KHTML, like Gecko) Chrome/117.0.0.0 Safari/537.36" etag="5elYXtxsdot0poP5HA8n" version="22.0.0" type="device" pages="3">
  <diagram id="C5RBs43oDa-KdzZeNtuy" name="WQM-Decision-Tree">
    <mxGraphModel dx="959" dy="546" grid="1" gridSize="10" guides="1" tooltips="1" connect="1" arrows="1" fold="1" page="1" pageScale="1" pageWidth="827" pageHeight="1169" math="0" shadow="0">
      <root>
        <mxCell id="WIyWlLk6GJQsqaUBKTNV-0" />
        <mxCell id="WIyWlLk6GJQsqaUBKTNV-1" parent="WIyWlLk6GJQsqaUBKTNV-0" />
        <mxCell id="L_jksF-A3Jjh2h2nsNvG-7" style="edgeStyle=orthogonalEdgeStyle;rounded=0;orthogonalLoop=1;jettySize=auto;html=1;comic=0;sketch=1;curveFitting=1;jiggle=2;" parent="WIyWlLk6GJQsqaUBKTNV-1" source="WIyWlLk6GJQsqaUBKTNV-3" target="WIyWlLk6GJQsqaUBKTNV-6" edge="1">
          <mxGeometry relative="1" as="geometry" />
        </mxCell>
        <mxCell id="WIyWlLk6GJQsqaUBKTNV-3" value="What is the cause of the problem?" style="rounded=1;whiteSpace=wrap;html=1;fontSize=12;glass=0;strokeWidth=1;shadow=0;comic=0;sketch=1;curveFitting=1;jiggle=2;fontFamily=Architects Daughter;fontSource=https%3A%2F%2Ffonts.googleapis.com%2Fcss%3Ffamily%3DArchitects%2BDaughter;" parent="WIyWlLk6GJQsqaUBKTNV-1" vertex="1">
          <mxGeometry x="340" y="260" width="120" height="50" as="geometry" />
        </mxCell>
        <mxCell id="WIyWlLk6GJQsqaUBKTNV-4" value="Yes" style="rounded=0;html=1;jettySize=auto;orthogonalLoop=1;fontSize=13;endArrow=block;endFill=0;endSize=8;strokeWidth=1;shadow=0;labelBackgroundColor=none;edgeStyle=orthogonalEdgeStyle;entryX=0.5;entryY=0;entryDx=0;entryDy=0;comic=0;sketch=1;curveFitting=1;jiggle=2;" parent="WIyWlLk6GJQsqaUBKTNV-1" source="WIyWlLk6GJQsqaUBKTNV-6" target="WIyWlLk6GJQsqaUBKTNV-10" edge="1">
          <mxGeometry x="-0.3924" y="20" relative="1" as="geometry">
            <mxPoint as="offset" />
          </mxGeometry>
        </mxCell>
        <mxCell id="WIyWlLk6GJQsqaUBKTNV-5" value="No" style="edgeStyle=orthogonalEdgeStyle;rounded=0;html=1;jettySize=auto;orthogonalLoop=1;fontSize=13;endArrow=block;endFill=0;endSize=8;strokeWidth=1;shadow=0;labelBackgroundColor=none;entryX=0.5;entryY=0;entryDx=0;entryDy=0;entryPerimeter=0;comic=0;sketch=1;curveFitting=1;jiggle=2;" parent="WIyWlLk6GJQsqaUBKTNV-1" source="WIyWlLk6GJQsqaUBKTNV-6" target="L_jksF-A3Jjh2h2nsNvG-14" edge="1">
          <mxGeometry y="10" relative="1" as="geometry">
            <mxPoint as="offset" />
            <mxPoint x="490" y="440" as="targetPoint" />
          </mxGeometry>
        </mxCell>
        <mxCell id="WIyWlLk6GJQsqaUBKTNV-6" value="Is the cause known?" style="rhombus;whiteSpace=wrap;html=1;shadow=0;fontFamily=Architects Daughter;fontSize=12;align=center;strokeWidth=1;spacing=6;spacingTop=-4;comic=0;sketch=1;curveFitting=1;jiggle=2;fontSource=https%3A%2F%2Ffonts.googleapis.com%2Fcss%3Ffamily%3DArchitects%2BDaughter;" parent="WIyWlLk6GJQsqaUBKTNV-1" vertex="1">
          <mxGeometry x="340" y="342" width="110" height="88" as="geometry" />
        </mxCell>
        <mxCell id="WIyWlLk6GJQsqaUBKTNV-8" value="No" style="rounded=0;html=1;jettySize=auto;orthogonalLoop=1;fontSize=13;endArrow=block;endFill=0;endSize=8;strokeWidth=1;shadow=0;labelBackgroundColor=none;edgeStyle=orthogonalEdgeStyle;comic=0;sketch=1;curveFitting=1;jiggle=2;" parent="WIyWlLk6GJQsqaUBKTNV-1" source="WIyWlLk6GJQsqaUBKTNV-10" target="WIyWlLk6GJQsqaUBKTNV-11" edge="1">
          <mxGeometry x="0.3333" y="20" relative="1" as="geometry">
            <mxPoint as="offset" />
          </mxGeometry>
        </mxCell>
        <mxCell id="WIyWlLk6GJQsqaUBKTNV-9" value="" style="rounded=0;html=1;jettySize=auto;orthogonalLoop=1;fontSize=11;endArrow=block;endFill=0;endSize=8;strokeWidth=1;shadow=0;labelBackgroundColor=none;entryX=0.5;entryY=0;entryDx=0;entryDy=0;edgeStyle=orthogonalEdgeStyle;entryPerimeter=0;comic=0;sketch=1;curveFitting=1;jiggle=2;" parent="WIyWlLk6GJQsqaUBKTNV-1" source="WIyWlLk6GJQsqaUBKTNV-10" target="MVluI5JHM8mCgpgCiOip-5" edge="1">
          <mxGeometry y="10" relative="1" as="geometry">
            <mxPoint as="offset" />
            <mxPoint x="175.5" y="680" as="targetPoint" />
          </mxGeometry>
        </mxCell>
        <mxCell id="-Jbaf8G0Gfqlslk9fQm0-1" value="Yes" style="edgeLabel;html=1;align=center;verticalAlign=middle;resizable=0;points=[];fontSize=13;comic=0;" parent="WIyWlLk6GJQsqaUBKTNV-9" vertex="1" connectable="0">
          <mxGeometry x="-0.1367" y="3" relative="1" as="geometry">
            <mxPoint as="offset" />
          </mxGeometry>
        </mxCell>
        <mxCell id="WIyWlLk6GJQsqaUBKTNV-10" value="Is the solution known?" style="rhombus;whiteSpace=wrap;html=1;shadow=0;fontFamily=Architects Daughter;fontSize=12;align=center;strokeWidth=1;spacing=6;spacingTop=-4;comic=0;sketch=1;curveFitting=1;jiggle=2;fontSource=https%3A%2F%2Ffonts.googleapis.com%2Fcss%3Ffamily%3DArchitects%2BDaughter;" parent="WIyWlLk6GJQsqaUBKTNV-1" vertex="1">
          <mxGeometry x="110" y="410" width="110" height="101" as="geometry" />
        </mxCell>
        <mxCell id="WIyWlLk6GJQsqaUBKTNV-11" value="Develop solution" style="rounded=1;whiteSpace=wrap;html=1;fontSize=12;glass=0;strokeWidth=1;shadow=0;comic=0;fontFamily=Architects Daughter;fontSource=https%3A%2F%2Ffonts.googleapis.com%2Fcss%3Ffamily%3DArchitects%2BDaughter;" parent="WIyWlLk6GJQsqaUBKTNV-1" vertex="1">
          <mxGeometry x="280" y="530" width="120" height="40" as="geometry" />
        </mxCell>
        <mxCell id="L_jksF-A3Jjh2h2nsNvG-4" style="edgeStyle=orthogonalEdgeStyle;rounded=0;orthogonalLoop=1;jettySize=auto;html=1;comic=0;sketch=1;curveFitting=1;jiggle=2;" parent="WIyWlLk6GJQsqaUBKTNV-1" source="L_jksF-A3Jjh2h2nsNvG-0" target="L_jksF-A3Jjh2h2nsNvG-1" edge="1">
          <mxGeometry relative="1" as="geometry" />
        </mxCell>
        <mxCell id="L_jksF-A3Jjh2h2nsNvG-5" value="We see a change in the state of water quality, pollution issue like fish kill" style="edgeLabel;html=1;align=center;verticalAlign=middle;resizable=0;points=[];fontSize=18;comic=0;" parent="L_jksF-A3Jjh2h2nsNvG-4" vertex="1" connectable="0">
          <mxGeometry x="-0.2874" y="3" relative="1" as="geometry">
            <mxPoint x="89" y="-67" as="offset" />
          </mxGeometry>
        </mxCell>
        <mxCell id="L_jksF-A3Jjh2h2nsNvG-0" value="User of the DSS" style="shape=umlActor;verticalLabelPosition=bottom;verticalAlign=top;html=1;outlineConnect=0;sketch=1;curveFitting=1;jiggle=2;comic=0;" parent="WIyWlLk6GJQsqaUBKTNV-1" vertex="1">
          <mxGeometry x="150" y="140" width="30" height="60" as="geometry" />
        </mxCell>
        <mxCell id="L_jksF-A3Jjh2h2nsNvG-6" style="edgeStyle=orthogonalEdgeStyle;rounded=0;orthogonalLoop=1;jettySize=auto;html=1;comic=0;sketch=1;curveFitting=1;jiggle=2;" parent="WIyWlLk6GJQsqaUBKTNV-1" source="L_jksF-A3Jjh2h2nsNvG-1" target="WIyWlLk6GJQsqaUBKTNV-3" edge="1">
          <mxGeometry relative="1" as="geometry" />
        </mxCell>
        <mxCell id="L_jksF-A3Jjh2h2nsNvG-1" value="Houston, we have a problem" style="strokeWidth=2;html=1;shape=mxgraph.flowchart.start_2;whiteSpace=wrap;sketch=1;curveFitting=1;jiggle=2;comic=0;fontFamily=Architects Daughter;fontSource=https%3A%2F%2Ffonts.googleapis.com%2Fcss%3Ffamily%3DArchitects%2BDaughter;" parent="WIyWlLk6GJQsqaUBKTNV-1" vertex="1">
          <mxGeometry x="350" y="120" width="100" height="100" as="geometry" />
        </mxCell>
        <mxCell id="L_jksF-A3Jjh2h2nsNvG-2" value="&lt;b&gt;From Data to Action: A decision support system framework for water quality management&amp;nbsp;&lt;/b&gt;" style="text;html=1;strokeColor=none;fillColor=none;align=center;verticalAlign=middle;whiteSpace=wrap;rounded=0;fontSize=22;comic=0;" parent="WIyWlLk6GJQsqaUBKTNV-1" vertex="1">
          <mxGeometry x="160" y="30" width="530" height="30" as="geometry" />
        </mxCell>
        <mxCell id="L_jksF-A3Jjh2h2nsNvG-10" value="Action is taken, problem solved" style="strokeWidth=2;html=1;shape=mxgraph.flowchart.terminator;whiteSpace=wrap;comic=0;fontFamily=Architects Daughter;fontSource=https%3A%2F%2Ffonts.googleapis.com%2Fcss%3Ffamily%3DArchitects%2BDaughter;sketch=1;curveFitting=1;jiggle=2;" parent="WIyWlLk6GJQsqaUBKTNV-1" vertex="1">
          <mxGeometry x="300" y="1050" width="100" height="60" as="geometry" />
        </mxCell>
        <mxCell id="MVluI5JHM8mCgpgCiOip-13" style="edgeStyle=orthogonalEdgeStyle;rounded=0;orthogonalLoop=1;jettySize=auto;html=1;entryX=0;entryY=0.5;entryDx=0;entryDy=0;comic=0;sketch=1;curveFitting=1;jiggle=2;" edge="1" parent="WIyWlLk6GJQsqaUBKTNV-1" source="MVluI5JHM8mCgpgCiOip-5" target="MVluI5JHM8mCgpgCiOip-12">
          <mxGeometry relative="1" as="geometry" />
        </mxCell>
        <mxCell id="MVluI5JHM8mCgpgCiOip-30" value="No" style="edgeLabel;html=1;align=center;verticalAlign=middle;resizable=0;points=[];comic=0;" vertex="1" connectable="0" parent="MVluI5JHM8mCgpgCiOip-13">
          <mxGeometry x="-0.479" y="1" relative="1" as="geometry">
            <mxPoint as="offset" />
          </mxGeometry>
        </mxCell>
        <mxCell id="MVluI5JHM8mCgpgCiOip-5" value="Has action been taken?" style="strokeWidth=2;html=1;shape=mxgraph.flowchart.decision;whiteSpace=wrap;comic=0;fontFamily=Architects Daughter;fontSource=https%3A%2F%2Ffonts.googleapis.com%2Fcss%3Ffamily%3DArchitects%2BDaughter;sketch=1;curveFitting=1;jiggle=2;" vertex="1" parent="WIyWlLk6GJQsqaUBKTNV-1">
          <mxGeometry x="140" y="630" width="119" height="117" as="geometry" />
        </mxCell>
        <mxCell id="MVluI5JHM8mCgpgCiOip-6" value="Problem solved" style="strokeWidth=2;html=1;shape=mxgraph.flowchart.terminator;whiteSpace=wrap;comic=0;fontFamily=Architects Daughter;fontSource=https%3A%2F%2Ffonts.googleapis.com%2Fcss%3Ffamily%3DArchitects%2BDaughter;sketch=1;curveFitting=1;jiggle=2;" vertex="1" parent="WIyWlLk6GJQsqaUBKTNV-1">
          <mxGeometry x="30" y="760" width="100" height="60" as="geometry" />
        </mxCell>
        <mxCell id="MVluI5JHM8mCgpgCiOip-7" style="edgeStyle=orthogonalEdgeStyle;rounded=0;orthogonalLoop=1;jettySize=auto;html=1;entryX=0.417;entryY=-0.054;entryDx=0;entryDy=0;entryPerimeter=0;comic=0;sketch=1;curveFitting=1;jiggle=2;" edge="1" parent="WIyWlLk6GJQsqaUBKTNV-1" source="MVluI5JHM8mCgpgCiOip-5" target="MVluI5JHM8mCgpgCiOip-6">
          <mxGeometry relative="1" as="geometry" />
        </mxCell>
        <mxCell id="MVluI5JHM8mCgpgCiOip-8" value="yes" style="edgeLabel;html=1;align=center;verticalAlign=middle;resizable=0;points=[];comic=0;" vertex="1" connectable="0" parent="MVluI5JHM8mCgpgCiOip-7">
          <mxGeometry x="0.564" y="1" relative="1" as="geometry">
            <mxPoint as="offset" />
          </mxGeometry>
        </mxCell>
        <mxCell id="MVluI5JHM8mCgpgCiOip-12" value="Identify why there hasn&#39;t been any action ?" style="whiteSpace=wrap;html=1;shadow=0;strokeWidth=1;spacing=6;spacingTop=-4;comic=0;fontFamily=Architects Daughter;fontSource=https%3A%2F%2Ffonts.googleapis.com%2Fcss%3Ffamily%3DArchitects%2BDaughter;sketch=1;curveFitting=1;jiggle=2;" vertex="1" parent="WIyWlLk6GJQsqaUBKTNV-1">
          <mxGeometry x="317.75" y="735" width="154.5" height="60" as="geometry" />
        </mxCell>
        <mxCell id="MVluI5JHM8mCgpgCiOip-14" style="edgeStyle=orthogonalEdgeStyle;rounded=0;orthogonalLoop=1;jettySize=auto;html=1;exitX=0.452;exitY=1.026;exitDx=0;exitDy=0;exitPerimeter=0;comic=0;sketch=1;curveFitting=1;jiggle=2;" edge="1" parent="WIyWlLk6GJQsqaUBKTNV-1" source="MVluI5JHM8mCgpgCiOip-12" target="L_jksF-A3Jjh2h2nsNvG-36">
          <mxGeometry relative="1" as="geometry">
            <mxPoint x="569.7" y="1031.42" as="targetPoint" />
          </mxGeometry>
        </mxCell>
        <mxCell id="MVluI5JHM8mCgpgCiOip-28" value="" style="edgeStyle=orthogonalEdgeStyle;rounded=0;orthogonalLoop=1;jettySize=auto;html=1;entryX=0;entryY=0.5;entryDx=0;entryDy=0;entryPerimeter=0;" edge="1" parent="WIyWlLk6GJQsqaUBKTNV-1" target="MVluI5JHM8mCgpgCiOip-29">
          <mxGeometry relative="1" as="geometry">
            <mxPoint x="630" y="840" as="sourcePoint" />
            <mxPoint x="710" y="915" as="targetPoint" />
          </mxGeometry>
        </mxCell>
        <mxCell id="MVluI5JHM8mCgpgCiOip-50" value="How do you persuade actor to take action?" style="whiteSpace=wrap;html=1;strokeWidth=2;comic=0;fontFamily=Architects Daughter;fontSource=https%3A%2F%2Ffonts.googleapis.com%2Fcss%3Ffamily%3DArchitects%2BDaughter;sketch=1;curveFitting=1;jiggle=2;" vertex="1" parent="WIyWlLk6GJQsqaUBKTNV-1">
          <mxGeometry x="460" y="1080" width="120" height="60" as="geometry" />
        </mxCell>
        <mxCell id="MVluI5JHM8mCgpgCiOip-59" style="edgeStyle=orthogonalEdgeStyle;rounded=0;sketch=1;hachureGap=4;jiggle=2;curveFitting=1;orthogonalLoop=1;jettySize=auto;html=1;fontFamily=Architects Daughter;fontSource=https%3A%2F%2Ffonts.googleapis.com%2Fcss%3Ffamily%3DArchitects%2BDaughter;fontSize=16;dashed=1;dashPattern=8 8;entryX=1;entryY=0.5;entryDx=0;entryDy=0;comic=0;" edge="1" parent="WIyWlLk6GJQsqaUBKTNV-1" source="MVluI5JHM8mCgpgCiOip-60" target="L_jksF-A3Jjh2h2nsNvG-36">
          <mxGeometry relative="1" as="geometry">
            <mxPoint x="560" y="930" as="targetPoint" />
          </mxGeometry>
        </mxCell>
        <mxCell id="MVluI5JHM8mCgpgCiOip-60" value="" style="strokeWidth=2;html=1;shape=mxgraph.flowchart.annotation_2;align=left;labelPosition=right;pointerEvents=1;sketch=1;hachureGap=4;jiggle=2;curveFitting=1;fontFamily=Architects Daughter;fontSource=https%3A%2F%2Ffonts.googleapis.com%2Fcss%3Ffamily%3DArchitects%2BDaughter;fontSize=20;dashed=1;comic=0;" vertex="1" parent="WIyWlLk6GJQsqaUBKTNV-1">
          <mxGeometry x="712" y="940" width="50" height="100" as="geometry" />
        </mxCell>
        <mxCell id="MVluI5JHM8mCgpgCiOip-61" value="" style="group;comic=0;fontFamily=Architects Daughter;fontSource=https%3A%2F%2Ffonts.googleapis.com%2Fcss%3Ffamily%3DArchitects%2BDaughter;sketch=1;curveFitting=1;jiggle=2;" vertex="1" connectable="0" parent="WIyWlLk6GJQsqaUBKTNV-1">
          <mxGeometry x="760" y="941" width="216.13" height="100" as="geometry" />
        </mxCell>
        <mxCell id="MVluI5JHM8mCgpgCiOip-62" value="Government" style="whiteSpace=wrap;html=1;shadow=0;strokeWidth=1;spacing=6;spacingTop=-4;comic=0;fontFamily=Architects Daughter;fontSource=https%3A%2F%2Ffonts.googleapis.com%2Fcss%3Ffamily%3DArchitects%2BDaughter;" vertex="1" parent="MVluI5JHM8mCgpgCiOip-61">
          <mxGeometry width="76.13" height="50" as="geometry" />
        </mxCell>
        <mxCell id="MVluI5JHM8mCgpgCiOip-63" value="Watershed Orgs" style="whiteSpace=wrap;html=1;shadow=0;strokeWidth=1;spacing=6;spacingTop=-4;comic=0;fontFamily=Architects Daughter;fontSource=https%3A%2F%2Ffonts.googleapis.com%2Fcss%3Ffamily%3DArchitects%2BDaughter;" vertex="1" parent="MVluI5JHM8mCgpgCiOip-61">
          <mxGeometry x="76.13" width="70" height="50" as="geometry" />
        </mxCell>
        <mxCell id="MVluI5JHM8mCgpgCiOip-64" value="Individuals" style="whiteSpace=wrap;html=1;shadow=0;strokeWidth=1;spacing=6;spacingTop=-4;comic=0;fontFamily=Architects Daughter;fontSource=https%3A%2F%2Ffonts.googleapis.com%2Fcss%3Ffamily%3DArchitects%2BDaughter;" vertex="1" parent="MVluI5JHM8mCgpgCiOip-61">
          <mxGeometry x="146.13" width="70" height="50" as="geometry" />
        </mxCell>
        <mxCell id="MVluI5JHM8mCgpgCiOip-65" value="Industries" style="whiteSpace=wrap;html=1;shadow=0;strokeWidth=1;spacing=6;spacingTop=-4;comic=0;fontFamily=Architects Daughter;fontSource=https%3A%2F%2Ffonts.googleapis.com%2Fcss%3Ffamily%3DArchitects%2BDaughter;" vertex="1" parent="MVluI5JHM8mCgpgCiOip-61">
          <mxGeometry x="40" y="50" width="70" height="50" as="geometry" />
        </mxCell>
        <mxCell id="MVluI5JHM8mCgpgCiOip-66" value="Community" style="whiteSpace=wrap;html=1;shadow=0;strokeWidth=1;spacing=6;spacingTop=-4;comic=0;fontFamily=Architects Daughter;fontSource=https%3A%2F%2Ffonts.googleapis.com%2Fcss%3Ffamily%3DArchitects%2BDaughter;" vertex="1" parent="MVluI5JHM8mCgpgCiOip-61">
          <mxGeometry x="112" y="50" width="70" height="50" as="geometry" />
        </mxCell>
        <mxCell id="MVluI5JHM8mCgpgCiOip-68" style="edgeStyle=orthogonalEdgeStyle;rounded=0;sketch=1;hachureGap=4;jiggle=2;curveFitting=1;orthogonalLoop=1;jettySize=auto;html=1;entryX=1;entryY=0.5;entryDx=0;entryDy=0;entryPerimeter=0;fontFamily=Architects Daughter;fontSource=https%3A%2F%2Ffonts.googleapis.com%2Fcss%3Ffamily%3DArchitects%2BDaughter;fontSize=16;comic=0;" edge="1" parent="WIyWlLk6GJQsqaUBKTNV-1" source="MVluI5JHM8mCgpgCiOip-50" target="L_jksF-A3Jjh2h2nsNvG-10">
          <mxGeometry relative="1" as="geometry" />
        </mxCell>
        <mxCell id="-KxbFA002rm-xgP22oUo-1" style="edgeStyle=orthogonalEdgeStyle;rounded=0;sketch=1;hachureGap=4;jiggle=2;curveFitting=1;orthogonalLoop=1;jettySize=auto;html=1;entryX=1;entryY=0.5;entryDx=0;entryDy=0;fontFamily=Architects Daughter;fontSource=https%3A%2F%2Ffonts.googleapis.com%2Fcss%3Ffamily%3DArchitects%2BDaughter;fontSize=16;dashed=1;comic=0;" edge="1" parent="WIyWlLk6GJQsqaUBKTNV-1" source="MVluI5JHM8mCgpgCiOip-69" target="MVluI5JHM8mCgpgCiOip-12">
          <mxGeometry relative="1" as="geometry" />
        </mxCell>
        <mxCell id="MVluI5JHM8mCgpgCiOip-69" value="Causes of inaction" style="swimlane;whiteSpace=wrap;html=1;sketch=1;hachureGap=4;jiggle=2;curveFitting=1;fontFamily=Architects Daughter;fontSource=https%3A%2F%2Ffonts.googleapis.com%2Fcss%3Ffamily%3DArchitects%2BDaughter;fontSize=20;fillColor=#dae8fc;strokeColor=#6c8ebf;comic=0;" vertex="1" parent="WIyWlLk6GJQsqaUBKTNV-1">
          <mxGeometry x="570" y="630" width="500.06" height="270" as="geometry" />
        </mxCell>
        <mxCell id="L_jksF-A3Jjh2h2nsNvG-31" value="Social sources/factors" style="whiteSpace=wrap;html=1;shadow=0;strokeWidth=1;spacing=6;spacingTop=-4;fillColor=#e1d5e7;strokeColor=#9673a6;comic=0;" parent="MVluI5JHM8mCgpgCiOip-69" vertex="1">
          <mxGeometry x="260.05999999999995" y="39.99666666666667" width="120" height="50" as="geometry" />
        </mxCell>
        <mxCell id="L_jksF-A3Jjh2h2nsNvG-32" value="Political sources/factors" style="whiteSpace=wrap;html=1;shadow=0;strokeWidth=1;spacing=6;spacingTop=-4;fillColor=#f8cecc;strokeColor=#b85450;comic=0;" parent="MVluI5JHM8mCgpgCiOip-69" vertex="1">
          <mxGeometry x="130" y="39.99666666666667" width="120" height="50" as="geometry" />
        </mxCell>
        <mxCell id="L_jksF-A3Jjh2h2nsNvG-33" value="Technological sources/factors" style="whiteSpace=wrap;html=1;shadow=0;strokeWidth=1;spacing=6;spacingTop=-4;fillColor=#dae8fc;strokeColor=#6c8ebf;comic=0;" parent="MVluI5JHM8mCgpgCiOip-69" vertex="1">
          <mxGeometry x="380.05999999999995" y="39.99666666666667" width="120" height="50" as="geometry" />
        </mxCell>
        <mxCell id="L_jksF-A3Jjh2h2nsNvG-30" value="Environmental sources/factors" style="whiteSpace=wrap;html=1;shadow=0;strokeWidth=1;spacing=6;spacingTop=-4;fillColor=#d5e8d4;strokeColor=#82b366;comic=0;" parent="MVluI5JHM8mCgpgCiOip-69" vertex="1">
          <mxGeometry y="39.99666666666667" width="120" height="50" as="geometry" />
        </mxCell>
        <mxCell id="MVluI5JHM8mCgpgCiOip-15" value="No regulation" style="whiteSpace=wrap;html=1;shadow=0;strokeWidth=1;spacing=6;spacingTop=-4;fillColor=#f8cecc;strokeColor=#b85450;comic=0;" vertex="1" parent="MVluI5JHM8mCgpgCiOip-69">
          <mxGeometry x="120" y="130" width="76.13" height="50" as="geometry" />
        </mxCell>
        <mxCell id="MVluI5JHM8mCgpgCiOip-16" value="Lack of awareness" style="whiteSpace=wrap;html=1;shadow=0;strokeWidth=1;spacing=6;spacingTop=-4;fillColor=#e1d5e7;strokeColor=#9673a6;comic=0;" vertex="1" parent="MVluI5JHM8mCgpgCiOip-69">
          <mxGeometry x="280" y="110" width="70" height="50" as="geometry" />
        </mxCell>
        <mxCell id="MVluI5JHM8mCgpgCiOip-18" value="Lack of resources" style="whiteSpace=wrap;html=1;shadow=0;strokeWidth=1;spacing=6;spacingTop=-4;fillColor=#dae8fc;strokeColor=#6c8ebf;comic=0;" vertex="1" parent="MVluI5JHM8mCgpgCiOip-69">
          <mxGeometry x="400" y="110" width="70" height="50" as="geometry" />
        </mxCell>
        <mxCell id="MVluI5JHM8mCgpgCiOip-19" value="Opposition to action" style="whiteSpace=wrap;html=1;shadow=0;strokeWidth=1;spacing=6;spacingTop=-4;fillColor=#f8cecc;strokeColor=#b85450;comic=0;" vertex="1" parent="MVluI5JHM8mCgpgCiOip-69">
          <mxGeometry x="170" y="190" width="70" height="50" as="geometry" />
        </mxCell>
        <mxCell id="MVluI5JHM8mCgpgCiOip-20" value="No voice" style="whiteSpace=wrap;html=1;shadow=0;strokeWidth=1;spacing=6;spacingTop=-4;fillColor=#e1d5e7;strokeColor=#9673a6;comic=0;" vertex="1" parent="MVluI5JHM8mCgpgCiOip-69">
          <mxGeometry x="285.06" y="171" width="70" height="50" as="geometry" />
        </mxCell>
        <mxCell id="MVluI5JHM8mCgpgCiOip-70" value="Lack of resources" style="whiteSpace=wrap;html=1;shadow=0;strokeWidth=1;spacing=6;spacingTop=-4;fillColor=#f8cecc;strokeColor=#b85450;comic=0;" vertex="1" parent="MVluI5JHM8mCgpgCiOip-69">
          <mxGeometry x="187" y="95" width="70" height="50" as="geometry" />
        </mxCell>
        <mxCell id="-KxbFA002rm-xgP22oUo-4" value="Other priorities" style="whiteSpace=wrap;html=1;shadow=0;strokeWidth=1;spacing=6;spacingTop=-4;fillColor=#f8cecc;strokeColor=#b85450;comic=0;" vertex="1" parent="MVluI5JHM8mCgpgCiOip-69">
          <mxGeometry x="100" y="210" width="70" height="50" as="geometry" />
        </mxCell>
        <mxCell id="MVluI5JHM8mCgpgCiOip-74" style="edgeStyle=orthogonalEdgeStyle;rounded=0;sketch=1;hachureGap=4;jiggle=2;curveFitting=1;orthogonalLoop=1;jettySize=auto;html=1;entryX=0.5;entryY=0;entryDx=0;entryDy=0;entryPerimeter=0;fontFamily=Architects Daughter;fontSource=https%3A%2F%2Ffonts.googleapis.com%2Fcss%3Ffamily%3DArchitects%2BDaughter;fontSize=16;comic=0;" edge="1" parent="WIyWlLk6GJQsqaUBKTNV-1" source="WIyWlLk6GJQsqaUBKTNV-11" target="MVluI5JHM8mCgpgCiOip-5">
          <mxGeometry relative="1" as="geometry" />
        </mxCell>
        <mxCell id="-KxbFA002rm-xgP22oUo-0" style="edgeStyle=orthogonalEdgeStyle;rounded=0;sketch=1;hachureGap=4;jiggle=2;curveFitting=1;orthogonalLoop=1;jettySize=auto;html=1;entryX=1.014;entryY=0.659;entryDx=0;entryDy=0;entryPerimeter=0;fontFamily=Architects Daughter;fontSource=https%3A%2F%2Ffonts.googleapis.com%2Fcss%3Ffamily%3DArchitects%2BDaughter;fontSize=16;comic=0;" edge="1" parent="WIyWlLk6GJQsqaUBKTNV-1" source="L_jksF-A3Jjh2h2nsNvG-13" target="L_jksF-A3Jjh2h2nsNvG-1">
          <mxGeometry relative="1" as="geometry" />
        </mxCell>
        <mxCell id="-KxbFA002rm-xgP22oUo-2" value="Practitioner" style="text;html=1;strokeColor=none;fillColor=none;align=center;verticalAlign=middle;whiteSpace=wrap;rounded=0;fontSize=20;fontFamily=Architects Daughter;comic=0;" vertex="1" parent="WIyWlLk6GJQsqaUBKTNV-1">
          <mxGeometry x="60" y="150" width="60" height="30" as="geometry" />
        </mxCell>
        <mxCell id="-KxbFA002rm-xgP22oUo-3" value="can take a looong time" style="text;html=1;strokeColor=none;fillColor=none;align=center;verticalAlign=middle;whiteSpace=wrap;rounded=0;fontSize=20;fontFamily=Architects Daughter;comic=0;" vertex="1" parent="WIyWlLk6GJQsqaUBKTNV-1">
          <mxGeometry x="640" y="540" width="60" height="30" as="geometry" />
        </mxCell>
        <mxCell id="-KxbFA002rm-xgP22oUo-5" value="Concrete recommendations" style="whiteSpace=wrap;html=1;shadow=0;strokeWidth=1;spacing=6;spacingTop=-4;comic=0;fontFamily=Architects Daughter;fontSource=https%3A%2F%2Ffonts.googleapis.com%2Fcss%3Ffamily%3DArchitects%2BDaughter;" vertex="1" parent="WIyWlLk6GJQsqaUBKTNV-1">
          <mxGeometry x="950" y="1110" width="110" height="50" as="geometry" />
        </mxCell>
        <mxCell id="-KxbFA002rm-xgP22oUo-6" value="From Problem to Data" style="text;html=1;strokeColor=none;fillColor=none;align=center;verticalAlign=middle;whiteSpace=wrap;rounded=0;fontSize=20;fontFamily=Architects Daughter;" vertex="1" parent="WIyWlLk6GJQsqaUBKTNV-1">
          <mxGeometry x="110" y="290" width="60" height="30" as="geometry" />
        </mxCell>
        <mxCell id="-KxbFA002rm-xgP22oUo-7" value="From Data to Solution" style="text;html=1;strokeColor=none;fillColor=none;align=center;verticalAlign=middle;whiteSpace=wrap;rounded=0;fontSize=20;fontFamily=Architects Daughter;" vertex="1" parent="WIyWlLk6GJQsqaUBKTNV-1">
          <mxGeometry x="762" y="330" width="60" height="30" as="geometry" />
        </mxCell>
        <mxCell id="-KxbFA002rm-xgP22oUo-8" value="From Solution to action" style="text;html=1;strokeColor=none;fillColor=none;align=center;verticalAlign=middle;whiteSpace=wrap;rounded=0;fontSize=20;fontFamily=Architects Daughter;" vertex="1" parent="WIyWlLk6GJQsqaUBKTNV-1">
          <mxGeometry x="50" y="590" width="60" height="30" as="geometry" />
        </mxCell>
        <mxCell id="MVluI5JHM8mCgpgCiOip-41" style="edgeStyle=orthogonalEdgeStyle;rounded=0;sketch=1;hachureGap=4;jiggle=2;curveFitting=1;orthogonalLoop=1;jettySize=auto;html=1;fontFamily=Architects Daughter;fontSource=https%3A%2F%2Ffonts.googleapis.com%2Fcss%3Ffamily%3DArchitects%2BDaughter;fontSize=16;dashed=1;dashPattern=8 8;fontStyle=1;comic=0;" edge="1" parent="WIyWlLk6GJQsqaUBKTNV-1" source="MVluI5JHM8mCgpgCiOip-42">
          <mxGeometry relative="1" as="geometry">
            <mxPoint x="580" y="1128" as="targetPoint" />
          </mxGeometry>
        </mxCell>
        <mxCell id="MVluI5JHM8mCgpgCiOip-42" value="" style="strokeWidth=2;html=1;shape=mxgraph.flowchart.annotation_2;align=left;labelPosition=right;pointerEvents=1;sketch=1;hachureGap=4;jiggle=2;curveFitting=1;fontFamily=Architects Daughter;fontSource=https%3A%2F%2Ffonts.googleapis.com%2Fcss%3Ffamily%3DArchitects%2BDaughter;fontSize=20;dashed=1;fontStyle=1;comic=0;" vertex="1" parent="WIyWlLk6GJQsqaUBKTNV-1">
          <mxGeometry x="702" y="1058" width="50" height="100" as="geometry" />
        </mxCell>
        <mxCell id="MVluI5JHM8mCgpgCiOip-43" value="" style="group;fontStyle=1;comic=0;" vertex="1" connectable="0" parent="WIyWlLk6GJQsqaUBKTNV-1">
          <mxGeometry x="750" y="1059" width="216.13" height="110" as="geometry" />
        </mxCell>
        <mxCell id="MVluI5JHM8mCgpgCiOip-44" value="Benchmarking" style="whiteSpace=wrap;html=1;shadow=0;strokeWidth=1;spacing=6;spacingTop=-4;comic=0;fontFamily=Architects Daughter;fontSource=https%3A%2F%2Ffonts.googleapis.com%2Fcss%3Ffamily%3DArchitects%2BDaughter;" vertex="1" parent="MVluI5JHM8mCgpgCiOip-43">
          <mxGeometry width="76.13" height="50" as="geometry" />
        </mxCell>
        <mxCell id="MVluI5JHM8mCgpgCiOip-45" value="Storytelling" style="whiteSpace=wrap;html=1;shadow=0;strokeWidth=1;spacing=6;spacingTop=-4;comic=0;fontFamily=Architects Daughter;fontSource=https%3A%2F%2Ffonts.googleapis.com%2Fcss%3Ffamily%3DArchitects%2BDaughter;" vertex="1" parent="MVluI5JHM8mCgpgCiOip-43">
          <mxGeometry x="76.13" width="70" height="50" as="geometry" />
        </mxCell>
        <mxCell id="MVluI5JHM8mCgpgCiOip-46" value="Costs of Inaction" style="whiteSpace=wrap;html=1;shadow=0;strokeWidth=1;spacing=6;spacingTop=-4;comic=0;fontFamily=Architects Daughter;fontSource=https%3A%2F%2Ffonts.googleapis.com%2Fcss%3Ffamily%3DArchitects%2BDaughter;" vertex="1" parent="MVluI5JHM8mCgpgCiOip-43">
          <mxGeometry x="146.13" width="70" height="50" as="geometry" />
        </mxCell>
        <mxCell id="MVluI5JHM8mCgpgCiOip-47" value="Scenarios (past, present, future)" style="whiteSpace=wrap;html=1;shadow=0;strokeWidth=1;spacing=6;spacingTop=-4;comic=0;fontFamily=Architects Daughter;fontSource=https%3A%2F%2Ffonts.googleapis.com%2Fcss%3Ffamily%3DArchitects%2BDaughter;" vertex="1" parent="MVluI5JHM8mCgpgCiOip-43">
          <mxGeometry x="40" y="50" width="70" height="60" as="geometry" />
        </mxCell>
        <mxCell id="MVluI5JHM8mCgpgCiOip-48" value="Data viz" style="whiteSpace=wrap;html=1;shadow=0;strokeWidth=1;spacing=6;spacingTop=-4;comic=0;fontFamily=Architects Daughter;fontSource=https%3A%2F%2Ffonts.googleapis.com%2Fcss%3Ffamily%3DArchitects%2BDaughter;" vertex="1" parent="MVluI5JHM8mCgpgCiOip-43">
          <mxGeometry x="112" y="50" width="70" height="50" as="geometry" />
        </mxCell>
        <mxCell id="MVluI5JHM8mCgpgCiOip-67" value="The toolbox" style="text;html=1;strokeColor=none;fillColor=none;align=center;verticalAlign=middle;whiteSpace=wrap;rounded=0;fontSize=20;fontFamily=Architects Daughter;comic=0;" vertex="1" parent="WIyWlLk6GJQsqaUBKTNV-1">
          <mxGeometry x="642" y="1059" width="60" height="30" as="geometry" />
        </mxCell>
        <mxCell id="L_jksF-A3Jjh2h2nsNvG-12" value="Image" parent="WIyWlLk6GJQsqaUBKTNV-0" />
        <mxCell id="L_jksF-A3Jjh2h2nsNvG-13" value="" style="shape=image;verticalLabelPosition=bottom;labelBackgroundColor=default;verticalAlign=top;aspect=fixed;imageAspect=0;image=data:image/webp,UklGRvKxAABXRUJQVlA4WAoAAAAIAAAA8wEAOwEAVlA4IBKxAADwvwGdASr0ATwBPmkqj0WkIqEZbT3cQAaEps4g4ROdbsFFQHCF4TM/z/N/7K9sZjuvD4fyRPc+/r/4PWZ/hfUX/vfpS9NfmZ/dL1iPTf/fPUK/of+z9cT1f/8V/6/Yw8531jP73/6v3P9sn1APXX4VfyOfNv43/RflF5o+On2V+2/5v/wf3r2wf9T/L+ELpb/uf5z1D/mH4B/f/3r/Oe9r+Z/7/+f8W/jh/w+oL+bf1j/j/4X1ovuP/T2+O9/639s/YI97/uX/c/yvqN/Qf9n/I+p361/hv+p/m/8n+032A/z7+xf87/Ae1X/B8H38N/t//b/q/gB/ov99/9f+g/1P7t/Tj/g//b/aeff9c/1n/0/13wGf0P/C/+X/Oe3b///+r8Nv3d////i+Hb90P/+JB58WfJjeU7kKUbvE8URl/mYdXopJL0K2bZz5Ai4wslPFXWmv46rx431GXGyxbqk9GsSyQYkMswDvsWqXw29O+oALrP9Lz7FWzk/EJiOQ06r55otri5fxSCrfg6lDxT9jOuNIGxEKgnpKJCGA7gwBVMXF30u7lnVPvPrC2rRZckeuhod7ZJ3vM+0pXzZs0vnXLglJkPjZOCQRp0nOqf3HB0JKE4Aqgd+5RbIY9a8SFETQ7GPEzUuMr5mfGJpKIbR9iMFoAjGQcsoGCldNVFkSihLAZP0/84NJ3ReKvoVCPrN+3X9h6CaHhNOODm5dOBV/aRLT7Lnnunh7oDhVUHgFEaLM25XKlQ2jUCpjnqwKkXxy7u/bFKKxvLhNkUjeyJiNmTnxDv1S1uQmISmeMKypoWfzgeKlwWITkVbpfz41+c2FW+DTDHIwf0ELO0MCI817hZWvkr6mfE3TsHT78PtPEvqZ23UVtftuRucfxgYAuEnOCx0xD3MH9fxmFH8t+ezQf6+ulW62Eo4HKaiTYjEpw7ZIVY7aAablQno+3ftCMihXPMI2rVuvEHxDxAIIk3hQvWIEIua33ZHpfiCtXU59Enqy8si+KUDiJnvYu9Pfc6iNkS4zb8xE17IJWjGHKZEXpYoFP2MMD6MRxVZVrSs9VB1xTshQWN3YU9T293y2l41EoBxN9ha7DDmnb09y58HEPHCeoTsaPZJ7eX8AvIHwcE1BYQC6JLKzg3/7sVX31cycBFd/8FpbnHuodVEhRVdslakCv90NYJW9moBEEnrRE/LbsXG9G5+xlGMY7N8vPLui6Ux1MPE2wtVxy8x6F1cDHaoYxsWbWMsuhtWxMgo0rtLQZXDQfUtpcvr96tRJCT9RLSa/jJhK+Iyi8cUAye6jZVAPQhNdUGHXtQxmBuJ0PxBTfoF+Ga88MHbBjbcViHbe30qVEN73YSuOWQbSS/Gdz7pcaqO6DmFVBlqwevoIuK8uXrRmbs5rRU1Lrk8G77K//vnbHIRQlytKITFBZA1GCaG8/Fj3jlohZioOo7mCcYifVv9pO86IEuRwH9w0XCRGSp6NPkyK4KNHmurwoZjESijL8Xrd2bSXWeu4lLxiatEereCU7nQuzCuqRMOMdJd1anVa8zn3wTD7YfQ9HvcrJW3RPJTSznh19xz06f3mZclfnVMwWC2Y6Jw/e/PGHWnMInSIC/34SZ3xVqzIdZ1lQe9JK9zjzCWsjx3tg2il5rWJDHoyh7NEWckG/EaobF3G7d8o9eOlFFYiI8UYdd4z3xeFocYX1NcZ2dPVtVqvBDUNv5k4/HkdcxFTr+DsoND+x+UJVKDDN29yfpq6ClTYbYL3u3fjHN0sjiqRNgk4vU7565e/BCce3b3HTt+08kVod6CkfQxfJJAuKHNRKfW2CDFYXHzPDDbJs0K/6aZcH74wH+e+OCoK0wPLLd7ThCUpfb8dVCo9vk1q+eDaHtq11m6wssGrCXkMjVKVLSB4QPjekj2p1Px5ezNkYjjj6I7f+P1pfqmESPtQVU78tLFTa22ejnyRunJzXn7nV1tjBL+23potMVlmVJm+4SwpAMG+ANQZqecqRIMI8wyPYC7fywpkCb/YImKGJb4lHw6b5lSkZFzc1fsVWoLXHStV50FP1tyV/OpD7vGYvq478ewzL8JKqUyQjSH8S102A70pa48Xz1643hihyyWGY4/jUn7VxZH4tc6rv81LPk3jlrMDRpGYfRK7amFhkMuHI6Tlxu9LnJEomOH03x53PfhNPScn9QEwV/DJFqrk9JctNnkUC7LGJiblvdzVxPjeqnPYNXUC7VIq7QOh8fPVbc9cfJR7157H0TKDCfVZ4PzrFGB1kIDQmEocF1GTTbv6ESBLRCsbA9GbJamgSQ+J66L0i6DtqUIY/0Mq8QlI2mg0Qvvp2OBoRLpVsbsttV8LiUxtMNGpqolQLPGyY2/zFf6Tjfs4hwlDeNcpilm3w4m/qx1f5ekeJ+fsF3kAIdblPg4wP0yO8BUsZediBFw3iD1lPx4/bwcP54eFvsd/AxVc8oISTaQZcdYUSF3D4YR0bVat8Ac2cNNbSEMM5yGTUj+Zw2ind4FI3QGRu7y/lrLOAOeXSKr1MusV0KN8P2gkmxudpgCQ2krPl1ZMF6YA+3Qsp9BtUFPkDK9CNkORbeOvLkY3rS3TUyNbPJMtUEGGNNm7C9TQGqxFVlGBXpFcIW0XseIK1ngBGOEWVkpoomu8lWHHuCD4iyWFSyied5Oami0iq2mlOOdQnVrMhdgwNIZtAJUCH7EDAiVaRFDqbn1NvriKnJA7PRIPoNdVpZtsFxvdH7RlGFXaC/GVlqLX+OgrOhT1LGtbQgJaMy6ikAaxegql0/mjhJ67yPimhV90iFbR53dU4zT44EN852Dvd8xLbaBjnYMK2YVP4n8tx2vmSvczF8tTtJtwmxj6xGFx6pROv0HsMk6IDiW38kUObIyJjZfWA9oQThheImcO+yyGflsbdDYDamO0qaun06TukzBYpH/bOeKx2wzNjhs7o98RII1PFMd1rBefqXdllM30x6zrXw3rYqsBWb+3mER48llqrkTq31mJD1LwyAh9nZ7P6j5Ha8oLdQsTUzv72B+dZ98zXUD/FAD79xgO8q1If7jIblmJEQ5NXcVDIW7rdMV9G8CCnIwl+Oev36N3eCJWJjOEan3gms82m3wsbGlyaLkraifIuJQ1lpD9VZx0AlcZPiV1KjO8VMia9mVkr/a2HagRm7ZNQQ5LxEh92On6RKVGUuQZeByL8/pz+xmCel1xJGENHCCEwCD4sxEg9Oi/BLIB90Q+c6VuGwlNkAF2G6X+tT3t3JRsc+xjvB75qBOeyowTU9YRrEltprjpvZaLzWze2z5vCcV+X6ETPzYodqJMSxkL78m0oeGx88E+PbPvVFHxKDwJiaexVC8Le0Xj0ktbxwCi8Jc1M/R1c81PS2c+gXIniRi9twk0Bm9baxayNDqK79YCPpyR+TvsLCV4pSslOnpofR6QfNErvVZSX0z599YoIfEfhZayojkEu+CXwAmueM0pGzzQE5MN1CZNr3LqQoP9DUFRI8RGrqyzVuaxXLfSijCYXxA8Gtsk+/ZOtrJzrskxoUyT1lVbzjgRtg80o5ndnkqFxgVbrR4aa7IBAfFGj3t8Mi12tCWuF125Hh3g8j23qg/HG9NEBxSeFidXCw6EBx6YV4ba8Bs3eAyh3rR+RV4lkjVYAKEl7OsKIMZPbb9BMa7+mrRHpIbkvC1Z8lLFJvQAhPSVg1tvw61F352LilpwVdi+CLablJ1ui+bTURnOQcsOk/Zh6O0zqdDVdFJ65wqOOPIQ0ylG7aV6K2O/IagDHTV91nhX7nbn2qsyqt4vlL94f9EQFUyroPFwb3Blstz0G5LjLcgtHHDLPZiu8O2Ic6c8P9oh69YG5emums6COastbScLLm9AMGjzmMNCBR7Epu+EytSOK7W7IBCai+hcOlBPcibRxAhiZvU1PGtN9JYd2L8M2MNObLrFI1VfVUVtDM9AFrA6eQH6ytUjNUSjoGYl4xZCNsh9obXjZFLvt7dOaVUtPoZQrkG6z8Fp/idr6Wz6wUy2L2UXfp0XfdzsiXk32PenpH25KvHXaiERJkaBc4dgQwyKyLxUQ2VAxq1etBMwJKhvg3/ZWYv8hrO7KVeYAk+cPHFp/sIQ3xMQYJAWuVgpHJlde1SkXNmaniDdLtMs36/dY6HOKA+2a3S3e8XoJdsjOhFw1dqu7+rcLbeoU+zMhbVdHUKC5hTbjUiFT/SFJvif70RhEbdXHcSR6Rto84q8ltHfO85HXZbqJxrfnV4SxaHY9GmspqENTPVbJa4EOB8BapAs5MnOtr2SygLL7nof9WbTULiuH9uJaX9AUCeNzldGEWyXNmqEEAm2yz5Utg7f9V4RKWmB9eVeeQPF9EWaWH1+8l+pY7Y7ia3ATusn02P07BVoqZvMWMksxtwV9YuwUeSpVZn9jqMj8NxRXxrVjrQM45Mi3dnbF0c5KpzrfB5OBbyPewiYlzcFuDxZLwrbM6Wox0t2pYONcB3f9JmTGfYjDpaDTpNZC0cu+/SyXKs9EV94LAaxwFKYroqmikwaZcX/RmfS2Ny0Mr5urX9yGa3BMTgSNthez3luDNM5lfFn4cnBnMhkl5vkV9jyNsYO5npuKBYPLZJSB7HKCRyNt2Hw0a2TgATMqPuDnplQZFER025JwEYQmt3ifDmzyrjy2TTBOQP8+zEd/j2o5xWlHUGszv6yiwq4nFWxmWmrR9VRt6+DHjD+VSByL79e4YpiVTgfScpoljVwKHwv6q1i+2wHB4cUil57qOirw0hls3WuAF5z/G3RTmZl2dY2Ggrwap4kpL1UIYSY2ngAAP7yHIHfxHKLMseLoUoSP/IGf2IEM77M8Jo27B62dx+KTUe33j8FD2sknDsi6r0PTPyWdsag2WLVPvdDj2uyLhjR79uqwDjGN+fdnLPBrHncEKoBQgG/bvwTduBFLz24iuo+fQ0N38n7y9PVsdQknxFO88aJe8S/xiEtYxO/iKZBhQP5BNJrfVdh1Wvi4M4/zOfFr161OYSTKWkJpP/AQhukCYFCZ8dP/bXMkY6v7FFSkah3x4KZbiof0BYSxH+Rd4+R3NUpuzGSmUp77zZfIiLCwWVGMsREDlrP+MTqA1WN4A/1Dxtsr2V6cFgWHzbPH+OxQsxj4XQirMxekuAsYKCMj09Dy+YyMGSPYCf7KxZul1k1bxEMQz0NAZYFvaAx1s7FvQ3q2FCtSQdEymdhfFUzeASA9uCStIuepfu4wkmmI9c9vIf+pzOmQ1x5PLs647qE3mIrAx9issqW/FAdBg0MGYEuhq6KJIowpEPMdgEfB2UryuQeLgZ1QaiWCQ+hn8I8Mu1hdplP5winkkKm2LnQW34QQLjq/2GXApjP8kRNZGDEo0wodp0PB63I89dNBd6z1plCy2L6Uj9H7Z50BuiCoILzmwPtYAMsnjDTwBCW8HkLWW8TKoWsfUFxHBN+1cR4ejq8Skbe+5fOCCEKtqimwBt6CiydNSU6dl2nFS2CcKgkBuwCy7jH3f4v7uu07aM/UWOtQLWhjM+r14NIdn5bZlHZTrzqZj1mT00RD7A80qmnJcctRIlhmgPukztfPnFZqJm7H/DVYkgbb7KKph4R6CfNwIOoJpYmWW0je4w4nIkpDndmMXC+2hidZFNrKtapc5R5aT3yvE3t6iz4nqrKWjgwsi1RiyPCGfUbk+ssiCN3THzVSNAsmYR2qlRx96WGqMWtgQ57lVDiIs/+UBdtNmxe3ljUchFNraCbi3vMc8h+tqGOnyLC9NZLPtCODXUcgzE1pNL4sSQ2YyRuhhpWr03HjxY4JXALBNQFChR1Z0MNT7HMBRxw+xkGjwujCs6hnIfGbsGRjQIE3KJPC9RFOKj6f/fDGYdXK1lsPgoYlhHZVZxDe3e1wEyu6PYNNTMR5GER/ex2aWGnNYJC3OWlec479riaoGWYOTD4+Vno8U4aGzmkdhHOedeq2xt4Btb/VIEGrcHQ//jOwhJXRxBSUxdrDnviNuQ7HYt96jVp1GSJ0Gh7/Xx8OVwZjzbVW5BpDFJOW7iqlDUz0jwpp4QSzgwNa698te2Gyz63vCvVW0P9YE0GHZ9ur6UQm0iEOg5wi2sTp1NA/3S00az/m3Y0k2eL8TiBsZi987/cTbru6ko/yj59MhjdGcu+Mwev1/P1+6vd3n6Zo30XrA4plPh2x+9W4tZnosloC4S95qMZnQP30sp9k4jF0OVUZZl9VtNhRWvJyEE7qq+8AgRFVwCtnWmsRWxdtdca5xj/Ct644Mw/T1MfbTF8rlOGLBv9GBNVUwD1NvNXR6nhGhX7SML43KIH/4emhHAb86nbkSD4mKYkG7Tjth/beeMhLjitsXuf0CfIWCUSI0CxST5ZuZq2NxrSxOYmO8breXIRTC2kijLK3V2xbfqm5/+NCQblL+e5bTR9d3sUWHmUJs6bAxkeouLZzcmlVsvJm6ryQTwpXBw8BEUWK4oVVuW1c6FxxJBGZhd5+YeafGneJmPm18kHMDJUIEtL5tod2UA2zII/HfbwLJrklCuDkuuF/kX8hvBPxwWnnGxfOO8nVAI7PzzXIeuexYCkuUmRWZOpk0TsDYdSPGsRdYbILc5uENM8tr57hmyFaNzVbNCVttWRtwAwdYKxH5BGUds/VEy+srxpj+pWIyiNkzIM2iuQqCzMCeTpvOY666uc9QnnGEiOcV8NYenAo3Jrj8uVnngBxPFmvEtBtnai8tEU7u3RmbwZl5J6D9zQYwPg2Pzijxy5/5Smbc3Xi288c57E2zN5w+ym6ZH5tq80NXTTDBwaQjhDhpzBfV1BhfG3jAvdfEjJxlhCny9FnR6BotOJNT6OVhBe7UuYowpK4ToTq0HWT4NDOwPEgX0mK/VfRp7OC6D0qDnipLEiVhNf4vBwy9JWL2+oXrAtitnE6FEMqfd/lTEnho2b0MunNW1NkZY77WlvCa+BoY3RgJoBAAX32jT9xWcIrTcvA6U4XWcyJs3iPXjOmLgGhv/kCkIG65GCHWzFilsmc1iiS7vXGTlgiHP6fiLTuPpPCNCiYlNUWzDBB+Ft+LQzGdW4VzBmAAA2HEETU15vVYiBinpKMxYOqHXFu8GuQ/0daBi8AG8NpNkm8DKi85JjLdpXnF5Rgt/xEojd0Gj9g9Bx/UtDwUqEq3wwdzwAXF2IOyK06BO8XbIKFVNr2s/7NrTBQ0EJszMpn68Mh5ztqpEuG1B5m11rtgdM71Gu16AiHyDapaaBgB4OZNVxl1qAKeOx5bHdoOwBN84Q84Dswr0uXQCEKBor4WPJWHy7IaLWeMnsbGDDB6innpLUqJBlii78iWMDjV3ebWovOxLnufGQ/c7r0q5rnNtTihxboEwdy56sn8Z3x+cvDSc5ucUszmddO55ffR0w57xqasZKSdOJKXtgpOqAzStdOkHMUZ6lICvmc6wsz6BEMynWRGT4DqJm09CpM1/tgXxlTcsxD1yuXfOO+mL+X8leFUX0z17JM3LU0Bnsf2dqTRgZvQ9DqFiVEOXH/bKv04Li2eLbAczuwrqiQkidqGop6ZWy0KwuIyPdbPl7Fk1tf7QELhnXgoDHIWd8ylZY+NBnGNKDNVrjvJ/KlHRhIDl8TRCf5kFybWRqnUOr2t+ufCzT7frCgMAqQ0C1BkR5hBJxP6knUuSo34Sius+7o9PKBa+Whz4HFM1HQWIvl4YJXVUpQOPsBCpSlBgnlNGYDYXGgV6bFygK0lnfh1IOn2aJb7Iv+2YitMRlHtXc8Xj0rDX1rqEe3xcpaHzTeePRe2JZVsKgb7l7Hl56lDZ9wG+cebQK4yjp799pncpl1Z06oVP1bp3+D4eFlaKSYwANUYmliEyIwWChnRULa74ftLe8sNSC6g8u6Zhy6PQB96NM7FJq94JlGOKs3/Bxh35sUqXP9VmseSM8Ct4AHsTcn/66loDN2cyKEsNchHbJ0xmp0ED2r6dedHhPIV5O8dCv4oGz+FsOj/dxPyU0kDMTcILyikczFKJff556T82kegP4d6mjfU8DkGrY3Kk1Kpa9EjcWDvGr7CsIUztKwyNGwwDQKITw+F0nfx5e7g6kQ3chgXRL2/QwGNUqcSd6CUoC7MZrDfgkq5Op5cc6nXEhLRKdQ/BXIJP7Ur5q24MHBjsm1VqbB7iL9SJBgdixdk3/gmQWQeuzDqoCMtd6NONt0IsxYZcEmzaZhIGVBJcBGAiXoeJJi0j+AQgobQTUS2DQPOVDpM8YOj1iRf89IkrlbSAkz8P8yxUaGCrRUR2b3aOINmzpNuR2QBSHMNhmuIoWG+SCFP+1gKT5qfXCgW09eM824AxxsO7BhNIG6j6BMQ05fmaEqLD/MsWQE/zqHFkfN9HJlaTsVkpDfmw11o+K/m0VO87Xg4vE7mbLc2n/PfRuJ07H3TlA7oiTvuK6pb9RdJrwyE5Uw55mdr13pwINXWC3CtcthRehp9cIb1a8dOiGPgehRTTXRgZmpcADOkofQJ9YUkD5GrP9AjX8fJgyhCWG93ZXftsIGyuPpq+IwssdvaPHao7jJ8/jEdKtSfAdt3ZyUr9SdUX+sCJa4HDflp723J7aHwvkXLOs72ej03ti9MC4DSS3kM9qaLeRL8LNm57uhlNsKGYDc3E1AQz+EEzfHN02o7A0izxZmev97miYEjY7NCXd6GCobIKlvGWguCF6VC6Y/6OTYBabdCXISx7/LPBo2u9SPoZYnLGt5a01PE/IfHLlgslEnAhCxtYW78bdYfL0FA41l9uMknom8RP93V8dqZxjO17yv2Y4YU6ES6wybtgCkVLbFOkwFTnZa5jEjxUE3vnVC/yjMjeZbtq1IzDkeVLwNuNKFV8FKomIlFc0jpceDzEJrOYrDYzIi6SQXQO0VMc/QbYx41wJl09CqHDnUlBnniNOR+ZxPo7hsRT6yEM1e6Ba2jfK6Fe+cmc/eI2OuwTbvonseIxKvIc1b2FbrieEyoCPTBOao4vW5Ol/QfdwSX0CsuSqbodTElEwowypvUAqCOggwpUZERDHsXqum3eEh8APTV/0/1KSDDnPlG9L6nfWV8p7j22uxass15N638QNiVjm9m7pYvJ9kDHiI0CKiTwdOjbMtktzD6cVEIu6h/OrPqeQZda8uuINtX6Xsv1kSLhXlGTtWnI6/gD9185FdPYR5ZmhJ7IVELkyoRpfzApRbReYa5Mg4ItQ1Ysdp+wDsD5T/gxBgPpcFB7twRMFqG+/qnruYpVGP+awWrAQk1nmn4DDtyHVii6wMc+22S73Va1SpgmeaYjUY8HPjWHPxxPtEyAcbC5E6ImdpX11jFrrLtt16g5EZzSDYbr4Rizcm6OBXPoyfwNTTWWXGCS8cHsfspFb73rVPlwVFbOpqeRV7nryjYeqGz96+in0cFWCbBXtin1+yAKGR6DP5ZaHPBa/LGaY57+prLA3u6QZ3+Yjpzz2dlpG6NRUaxLjVylmKxk5Npu3E9Kw8qeED0tddSOBViL4DA81+Lxwu7TICZUz9kC8R1mZfc5ShEqkYEsqdgcKljVaIgSLTPCAVsPRgf5sV1EYz4BICfLa+8m195dKF3jcBKz9ROxJONTbVdC0Vk4CtcIAAshLmFHSWmwjgD63sAyAmJNcBwvO9fhyMstvcO4BZ2goiS3dvYtEjSllbjrVnaIILRdzFMxIB9gz2bit5EKMIMQxiARkJm+5EVC7o3oF+382h1gI0e0TXattWOSSRzsABJ5xybftEBIIoCPuKs71I+IPT9bgY5LpME76G80RAgAU23ZLxTVnhTEErOo61dQUAj+5OFJXkn5mTC3Dl1xKQOCroQLg/+W22g09sFdUaobDptMgqpfhy5w/SdpEhKUtYfHqOU9P3U2/vCI4ILy2UoXgunRVqxtvWRew5semuZ9V4Wf0+TogvrtBSNYe6JRhEOCCE7SPyQIMjiyCaH+6myrdMy8hvu6XS7JI93r3iBRrf/IOKHrU3m3PWqr8fsO6lN8VZg6m4JirKSuA65dk9Yl8lAHFQ2SA+UYwGL7IVEudpc0BgtGtdzJZbDpsLvZbiMssjuVdRGcVwNtdwQPsSNZ4Tzix+4mnfJfBimsYf6nx+Px3bsW5ipst3wU+0UbtCj8o98etYsrgH4xDwo/50IKCqt8c2Bw8kNaztv4ZDJ576+s1eXSxbLJnmKH3inri5b99Eq8fO2aBjqpAuVw8x9W2qEmID2qtyii2NJxZxxnIdSXn54j9kPWW8kETHFKMGSmP6EUCFmB/7pcsmMHQ7ZubCTBrh3xdMs9NjuQwt3aUCb/DzDmeNYooSXNwRR2aR8J83Ic4FKsI2hKfHbioj+W6CFfxgQOuVydW8/d8mkXmEK2nMz0/CW3wVydbJris7KsJKWkPq88Tu1BZ6Tz3s1L2OhWpsblx/Zxnem/hUXP+rg3r6EaVxV2h/UKF9iJhOfKNAIie+k8+yClkzsRITt/dTooeUyvpBTYyuwuS2Vk+qv3LftEDWJGpruNWQBpXe+7KZDx/Io83u/1DKw34BFtp4KxeYVArvRzmCN1PpBAuBb6GhHfaWTE8dnAhIPxYqEavIjnK9P9ZIgz24kP+AMC1w1M0Sffg37p3MFBZASvcs5P/WxzFnlSzxFeRX859n6K8ZY2J8qpxasj4SysoiCtKCrvDepwF3bcWvF89owI8D5f8M4VEo0rl4SGM0v/702az8ODV60Y0XhU3rxGuLaW4goi0HtkugIz2KDA7LWZ1Befp3CRoRew+V6vjPgqO6xeJTEi3d8NDXFuK6el7aaudXeI+eo2xCWZm9kjZzQLM4+qikKeeW7FjClPOXxHmvVlHxh2n5kICGNJERlMy6oe7TKSnzUpkTMddSREsx6XVGCt/EFKEsRMY5lLavE6LEryYmyDSfsVM8BBnQcwtZzwOqlnj2OWe6Pcucyf80RH/cb+f84pJJkcLK2vbrEjBfpArMbodY5/VWzlqTE0Xx1onE0U3NqH+67q6A+Xk1Y2k1fojh9Q7wdcWy/Ec5PECk4oNYCn+g26SnPvkEs7cETLucnG9dG7BfZJlf7S3w2aKRRZB3KpG6K9Jlx9pGpfWRscP9w1kpGRQXKWsyL6wr5aumqXplyAHMPwPZqR+k697w4wldqmYWsyYxh0HqmUr0CghxdqvjApxTbJWTqWz6pZwnPetLiup9n+TjgNjbMuiBYWDVjCPmi6mE2VcM5Zke2hWYXrDzYeoZIHREOLNi+WtgT5pIWV6fB+NWVtW6oEeYKsmREhBp1JIYGJUUd0cvupkuUA/pussJedLFyF06uuvB6jNlq72Ynds4nBEcZ+cyHCVyaWZ7hmOOgcEhKHz8ctLkT4vBeYQqToaRI2a8bHKAxs8OyNz+10r64uH/PNpd2dUswQcaH3o76JBbrAqLOR5oH47hROVIEXCTEdzZQEkQ04X77bMyZNhVo9kAI3J9lUyRW0EJMs2GEiWSDpu5M3wR+Ak5u1tVrg2rQvzg3R7POQwguHhwJMsnOZKfD6aL3dhnIHhudsYhG7SbM5sWxritMRBgONDt+Mbpddnw/VFXV9JJcAFn3wOgFearSHPLpIAeMZhJ9bRByFFPkUPVSIlCH2gQgFvW+icB78XHdaueDRQIbCzxAUMpUOE4DNEpUNUNGJN43Xff4kqHKAiKxdqeH2L+12tg6jH9YxmhpqE4RjYDkcxVz9zuQrni8eWZsPR1rVwUj+aajE7d5xEK3B8szTDRPPA9DA7Ba4XSluGtRjYODlr3psgB8mJByxOqDk4xc+OdUfB+n6yGEsgZ6beBzMhzm/ok9RHWa+mrjCpQs9KyCF4EcsMwLRJ+2iuVggwBoCawsR+H45cGXUE5jNm5VZ7abb4Nepftj0wLWMIhTnQ568UVYBPlcqJX1KI5YgOjCaqlAl797GlmG8Dq8YFX1uCgyqt+iKJMGCCo4AVxPB5d9dkTFYliO2vsVsPCnMGc8/RuM6uD7Hglpw1/JrtG+SwyfsxwbLEGstJXjlyG6e7Bimfp0i3CTppF2R4VouBXWt4BxDkY3E4ndOTLjsq/sZA3hl0zTKHhC18ajLI/qESw3nZlzmK6ecOb4E0WUMvidVP3Sred0TfH1L9ILaNH96QKVUBmK6zyX9tDhaaS9wAHsR4PtRfLatIh4sTm0xCaHbDnqMsX8D2/2LxPG9uCwpRvqpnt8fq9NrwdvOnETiC8e4+yKp8LgqJig3sC5FLhsZBO2q+eRQyH1ipQ0eTTUkORAuyTakzlAOr1Adr3qJnwZITOvurt7IyebHAjqcjIx9194K6YXjX/Iarr04ACpez3yDoJOWaj6aA6Xl2d8gXDp502eObvFX0xEVlvSI+iBI9hM8+1VPooiV9gHJTdozVkWyNLqABYrQljkcqQarfGzSfsvdjHSM1sqHf4jaELdKxBB8VYcXkrQMsnpIxg3RaEV+jAJDj8rgGxqhglykYwrKP3/L9bVZpctER8wg2oT2o2Aq2tyjg+gAMVW0C56MIkvUIi7XgoycjPqeJsCKzwoDFmJ3mRh4Fj6ZUMnXPX2JgY3C714m+j60LehtUST0IaX/FjSoQoqQlFKLiQ58qL6pRcImfUjdxMWIAw5nhBOy+MQE73u4NOGLpL78KJdGRIMXezLhQNzRFYeomsF0jA7eLRk9UFVExNtCRhqWSvb1g+e0b6C7oN4rz/26CC01w7HM+Em+RAfhQkvUzO7mpzVXW2wfZKpaWSimcBNkhAeFlWz2dvZ3wTr1VTzN35/xVZLbxTsOmmZrXaHDls/eqUF5HXAeBYHqxI69rzSWBtsi+ObfbNQgUAe+2szaWYCutzdsgCyfbDP3nPstjsuUPTQNnT9Rr3crpDVEkjghTA4T2+bsE+UnLGr/oDtv71BEvngOBeLD0oBHtuhTBDbshQJUAPBopQNoPB2Dz8dVcRQeJmMjArnmqdNrKbgU9iRDmzmqk3/tewV7OTcLiZKzRU1zold3l6nrQP1qjZc0Usm7Q62bNKBUpC1RU22haBx9IZjfM2hJtFKJ0g7eQBQbwgeWRMxBI/NTcaAZk7QlfCQrz93kWX9eL32yHh9DK/gxB4E2+0Nepw3ORCT6GyHm4IlZe1c/pVQFIFp+a1Yl6go2umkj81dSFTvNpo3hBA6oMbvrwsQ249s2r93clbMIAtnkvGGYunCqZuuKrVye4Ojk1ahsnrPBOM/fwk563q2U1+wlEVpqw8iYTrKvj3BZ+ACKW+R/Q78xAw+Q+RCCF/H9RgOFYbPS0uAt5qgUlLTTVNBYwiA9KLTNPKw4eODvQIv0M2V1DjaqwDk/NzPR18brb9DCEgLqAzt1fCewQxE4RvA6tTLtSx0ZsLu8aEv3Qvxf5HbO6bkeiAmByOIXktxW4xBjXbrUUF+zy9fargTbjy/J1g/CF4hPBBI1Vo8C8UUgex3CJETjmv6BJeI0UlCd3YzibWlAgbXj4VlCeiFjNOpBMe1iX0brwCZOjKXxTfcP9G2BXUH1jgl3mhTayPpqzJ63LOwUzKFofC9ZpBm6ja/A7D7UQVPsRvLZI9+hGRXtO8JUIfLC3jfZWV0sXDFsNtt8bfN52PJDktZUbTJb7dA7keQjGRRflDfYGmHHqrZC9fWZteR+tdgnsta1LPwDJKbjOn8ojEcXXOMuBiSrQmDT/Os62DwyAjeAo1e8PSgp9I7NCshekqhUGTHPXiBXSopxI4iXsV/wI5lx82z0Iv2GZb1596OVJteQFePCe1o5IKejc2pTNK7Hcapr+BbRVH0Fj5DlCK81Sy1rwAAFG3fTqI7p8XQtQJziC5GsxuRhQ3B2jxU8rVd6fPiBN9WzyC+HJpgaajHEUY1fb0Id9xmPbd13FhyDvYOHRy7s69Kip+nNvqhwNLILjOhVZBmwyLo4JY88YXHtSuAJBOpz0xMCLkToIloOaQujReyEh1iTN8c52C7QuWqVGHNHrX59YqX8QM0aqXYCewxrRbIAVmekwfZ4JMvLmkFfQO9PiLQROsUL0Lh4Z3/cExdqFQkD9o8vPusISm1psDt0XnBB+aBHUuexXYSOTtdin/tJKFZl+lTeKQdq2yFEwEV+Cv2uLz/3l2Mn3C+bbRsIp08D7VUckSP0z85Uh2Y5Ju2XSGoOyWigQNFY0qKUSbHbaeDQ0qGX+hPSaNLjJ6PkOjBgyW/P5o9sEPC2mcsRXfso+O9BgDHN7W08rG8TpDESkih+uHXwKYpp9T5lqImPeBpzCZquuLktwAv4k95xnZZaBFI7pmeKJZhk+x8WAw1gOKl0Aj31DWdBgLaATjhTX10lyhahFKajh3N6DSiFud7EANrg400mJSQ6rdxdNO7UNNq1WHOsYzadG2a4AP3so/CBoAkvRTHZ5mDRaU6k6g20B3L7ibPBpQ2X74iBC6gdDetBPNhIiX2xeRRQy8XKc3hjkDTsXL7RnT1iw7hTxFpM3g4fe+JZXNovFZh33T/Oq1mLfXAwmYUGw86xHALefIW/H/kOUTBI6AxhmapFSgfaXj+EKtXfGgdk4TvViUeXgNRYoXFJj7S0pq2A3wTq+RbzHKwsCy3M0E/OeXfOHBlaXqKsYLlOq43wq+eDeOHqjh4+30Rny7lt04nMt6r1m/C2X3b09D4YA1jWj/dTz/qZJTdLs2ihZmcAv5r7W5+TE/gUMn6YyDoRC8CcYblFTJuGjO0kQ+AtBrHUKu24ijxQ0QgzZIjyUKPb6bM1dC74/C99LCihdJstFjye4RLPZpjnaYnckPnLRpWGxUidZoFbUuebvXt9YrAvbLH5nRHa2ERV0yuSF3CiWfslUtFNvrNK2mt2yOnE9KzZKH8W7+h4lk0SLkXH7NL6RmROELGodclOzFpIwdmhH31RI6cDt/ptPv4rN0PzaajIRCZAOMiTWga3te+GfvChKhCNQKwnBd+gZndmoKGlZxA0jkA8Ox3/qfdVjMXiMpL66tA9s0e0r0IBAP3dxyukCCrGWzQ7T9WlNnc85+Xq0AfSRi5ns0wrZZtZyEgKIJfcsjlafkmv56zSfOWdJXD490YMawjrh84tpNIpYqhJDqJJ/hbHBSW7bKLqND6DU4Rd6eKxEw3UzaMFQcysNqZmdYLc5P633IskiMjFBQue/FMK5y5i0DVZ/Np/oMgCEN5SseoeIJ8NjZkO8lzRJ1SVa72REqlGf6ba85srWiGp9OcUUFiFzlQceltrUcthNZdYrdUjgzqeceMHGsHgj5O2CfG8WLj9Tm+s/FK3N2TeO78679LhaSQ4DjX+JBlyBL9pAs+1G8K7/Sk5yRJBd8EtFgY1PbRRRQnK7i8W/P6//WbyOria6YTpAoJ38PmGdKwX5vnrEGmO+6nJ80uaMaGc8N7BUZbgwGxsKbgQP/6Ps76KGhmoAMRFOpwtAEAyG4Xan0hppds2Yc4dF3slTlSATe9+QwzIx1YjpYw7D92F0mI2YmU8tBXi5KWx8KqwebNmD378FfpQ3gSlwRZkCgvObxlWLComdO0xJcGmzccCFMu5pCtpN+tm6+u39UDbtU4QnlVQ/rDMR6Gz+FnzQykqb4HOXwPB2VFfy03aQt7ZwdYeWVdmnXvIt/3rCRg52XJ9GC2Ui8fOj5NxX5aMwZz1rbcIVnLdouIGGKGwQfG7rO5LZznggfGWCggDGNBUhtJwwoxfXHI12rxdD9LV/6XWpfSB/aB0BFoXvLf5yP64TSdaF2Qs3T22L7c6YXR3+gOxnEgCBxgmxWi7n2zAV/7HVfgfJF3GEfhZIVJFGAtHjIpwPxlnnXnNbDRKdV3wRYzFKw3vhkRhksZ+JDhvm5bxVdIMvU0qY2PkStc86j8gobGsGCabuErSNU92mVju4AmsbThPpCPQoKrHUlcRvqpFWaIZ07A4EHtd+zCjfbqFHTRT3XLTIEhytnym9jBKb4gbhPNqqGSQzXVqCxqrFLXFZtGstLfKb18RQ2aoWf0IwRsL+V7JJL0p1iyGwMu3DgNnJqE2tYdkNv3McjbWalJgHsUjJTLCeo/uRkCDF6AP2Y/pqwomWFfJEh7R646IGn/YJWF5PvI7UQk08/HK3DrxJ1XezeiP7LGJ4qreIur6lEB0Q568tWGlsn7NIlpVv3ejce9sm1HgdCNiweBGst6onuLZYb0ULof/K/HBDBCPgP63TKomSPQswoVXgjRJtMPL5k8a6FxGggawbN6IEoiYmXTRg/DZYkeIDhGMIUVPOqUqT1ZrxzMKmhlCyFTrLhXwAlvRdzW8qQNIIRyc6fwI2OCQDfmj1ldAG+TEuiYezROx/OPRluP2OPOS2mu//uTCfv1NLmvESiLjDrsnk380WF8RukSrxT9wDHfqJyfFsOiKZV6hFNeWSpM+6mfB1NFqBy7WX/ltfpKNTPTOU9r6VctsSA/D1WjWeVD64UJYdRo2iQWjFWR2NfMraYEdBmVjM7nCuYUDCAcorhChgzKEP7UuMXP5hO0uG/L72Ko1QxXKiBnJSbS5erqFgy3eErPfyEbh92luD3lUC15PpqYV5UJPf9Fcz3Xtpr+2yiJwcOX8bWWzlBc4oeX3AwdHP2bXK4/WeKmZmVK3PN5BOmIeVkcad1PYP0ywQIO0tUr7mnTN8xp/xI9Tdz7Fm+YBzAxeGopX1oW3ahkI/HUhzVlN85ZSjvIg5G9qOmntPJFHNiS/ogNea7LWGx/uLPXKBM2oROipuUmL+1FJcxa4J8pkox06I23rodYE7h+kT1ZNzVbLEHBAB9wRZj2PMOXMC1EM3dkDaC9aspEIY0srmPK36PDHM1jneWgjdaAHWfbChLQ4sXVW9oRsdN+AmbdnWR0nwNIaavwKxn/QZ+wmZoFOReLP4Qo6eQir20HVuq3usv+FKZ9Oxg0GBIw0xfAjKj2P4Ubt3CfE1bJsbbG8P87RZZTjMiHFDO3FumYlZcChjhSvDlBju+ufo64AYjIBUajBaz/MHFNWL339bEaImYMsX5oD46YrJ2SGYDzzKagmzJD6X3MkS7FnnR4gqwMn0v/LmfM85hHzdnZ6dHn0ZfJrmDOmoeoV5NCma1qCB3Mbf7mekjThVbf0Uce3XdypDAu+IIBJR8ZT22GMS1818KhfNNGZOV/nsQ3ywyK5mLvvezuqZovc3MUsIh/eInhn/07Xey+lPnXNMLJ+3iJsOxBTlPNXJbXzZQ0p58SZS5UBQ6CwCGzp7aopN2GhKAQFuJTfyzMQog759Etl62SiGX6L0QRkkrFuzGV0MlIIz5l0xeLh1tLYSXYeDqkbOnUqd3pjHaLDPyY1EjQIWaStNdjxeHuFFuxbOqUuYgDNZak9ete4+BYkCKXDYZEhRIndMVUA1W31DiNPnitNct+amrLorKBZ6BUhrhDCr2gtRMIE1uoyUYWpB8Ubx+AochykaRr5mlpqO66Puq9BFDK+hklB6v0Yi0BtGckqsoozhrOfa3Ps+arRmhB3ZvoKASchN8t7vjvCMuBXcwC0ZfRxMXozinBwPewZ0agxP4R6y5l9jDgXIol3cNkA+3ut07M5KvR0fJO6LzJt038KG219dfcy35cOsY/P/pki6jQcapM5ySOVNgyuw3qxDHbwkYSuibiAwUcMGG4Jdlx9NeRK2HYnwDhyfALXUixHHS5UObBIXqgikroh/OhdjSoXMzwjf5JOgYAoc+sm9FXwGEQhz0Hs+L8LDW+yeGdTac1NnGRiBTfT6Gi9F15NdvTe44z/t7DgRknA/pde3IwJ98H8GTqPQcs/H3iliX5PlvKAzPLWbwyFSy10uHtYvhXs4Dum1/SqvaA6cmcj566AC75cHyHub70p6Py2gwZkczLqbf5M1nvjmVcOQyEvyVbCdy2Mx6RPf0uM3Wev4Ydj6BNx4xAUtq2bB+jvfX6DPRL2g6hcHZZlKM6acnPdHQyVRqS7zhpGZ3YW8DxAIVDEIj4B3HXnEpmBhJPq+LNeHAG3Lq4rSbrIXTeJeDg4TFnD1tvDIsER//ha1Nf7nCou7fXUIo1MOTEAfUt5CaFxiQ33r0kwV5jZgq1FwS9l4szu5iOo7507P214Vy+xbrAAOByQGn8ciCANu/qVJjR+h3Yz/vM/v8CvGSB2LJOAk1OXbWxaIVygNYhI79fiH3ukNLiW7NbZYBQrIAka/MuA5rki65ymJCtUjUxwehTH4gTHt3QqW8S3sOPSIxwyw+rSUPq9Y8uhV3EVt5KsF9/hFQeGqIF6+buvZEgrlznoqp9Cy6MZoVdaqeUja6cq9cJ4X7DG0jaBO3bFSOE4qeNXXvhFUVEkBgZBwNYrTiY0pamFof4CGSwbfcjUN8ewDw5DGdx7rvnl3l20ohOhjWh+ZcfXSgYI54vxeyubHI+jS1QId1LNkjVB65mnEbmzN12Kt9RYErLEmYR7vjqxdwK7CaOtC7hdz73T2qWgSIRHKrNi8ZBJ4aJ/+bSBWEPbKKSfrTHjp5b4K8PMDgVnX1cjeK/c6u6As7m2SPOg40Vfg6+oUkR3C10jl1seqI7pDxhZV8ikrg/JnotRNRg+D5aGxFGLV6sw5H7qrKGm+qdJt7IIyrT5uUgKeuzzj/pMfA655LVZRwKGX9iaQwHR+GSSNPmDLV1bKMVNeKI6OnDpz0+uaC6j8Qc+SEveSSwLOWPqLL01Vaf6b0HUZnr3Fx3df59Uy9NEQ1X4LTDRRnga5krWVPEUsom/ooK/IWj/0YgV8ndB9O++59Y89DKRv08E9WzGuskk6QmYvvu7qvbWD4VazsGK0Ypym+JoI/kHPFTNPFWr/PokHD4Uf80tBEFPXi1qTArruQI3cGArin7wt/SE+YKSYUFoL8CPZwCZKfuADWmohzqVL/5ldFzn8aMIxuzTyfyUaWXsgvKCvgvIe8ADZXZZGf3VDfJjrFsxmIzboO+3peNJP+52vXiKkISh/8P6MurbhdXVv/PG63qjpPbaDNPHA7dozl/6nRNJStFOEq6yX2drhrlLkW4Rgz9sJlkp4xUs3nvvNszy3IV2ehw5uW9czfOLBfSx3mVJPg7mK+QY04Y2Hf5cx6c6K644nPIfbNPoCISRlFI68LTURcrL4KTBT5rhuPiXdNIfqaC/XMhiUBOnXXgDRiRTLQFET0ywFLKmBzQSbeL814kx2DjPfiOOg20AkmK2Oa6xGM9xkyYGDQw6oDQbYTxAuLddoDX54QLdnan0L70kKNR76NHpN7cm0o++b+yCgvh62sCinDwkEWz3SR5+4iENC8Xo2hSt1EQUffFVVy3GpK/ZAEbfa9hDMTcMhkoRhvf87ESg3jOG/RrOz0U7udJLofyqyUDs3CiOeVbJyZ21Fl5cHn+gz0LMyDPR2dVc4ocskZpFWILXIs699RYolUbYs+vHH0kE1gO9LX6IR8bzpghQTiCzknaJomaYoaAvH1j+/fWDpEG1ZTBPYnhZAwMV5VQtFY3EhgoZXAzvT788FOFHlMu/SKSIY2SLd22SG27kxXIUBycgALr54VE5caUKdGCEk6lh6SE6l6uno2k5p78bp2sQSwgrfyF/pWXvSdpGVLffuUgKp5+tqaYbANFY8j/XHB7db8Zj8J7u6VdjyxRgGVe52JAUOivlnJ0bJ+wR0n0dABk6pY4Em0pYp8khxrZqfLMIf2h5mOidcn+EGA7d78EezVaczzKfc6Xb1KgOHFy8c7PF5rZTyD0uSgrTnVONXl+ypfCvq5ocVlsqW6i5dL3WBjMuukbx8A4iTyedToY3Kdj8NKs4O1epQHVIjOlvalj4T6977ZOYm5qCb+QrANpnDaQ5WtElLbpZbfzlTlF0Vn0IvLDLeXNUYeZm9UnDXToFK1VWoIKY4hbjAlVsDkLydzx43uLqMRSdj+/xRIgka18O/lo53059F8S3Ps/qaxhx1EaYReomTKD6NPnvzyYiVl3fLkOIeAld/R/+7ah96ZKfz8sSBjXRu3KdhzrhspJSmupB4ftc2/8IXIJxyhXWNViy2Ktd5mDWhjKbIKNV+rVnQjYZrECAvenV2bFbfNaDvwSJCFV9vi10mjFJ0Uewmg6x2waO3LdzlgdXZEJY5Z8lyOokgbzAyJmcfY/LNB+dcjc5bztsO7rpNURRNGMJNGyIxC2akYl7tU5I3pDggeM3F7H2d6BXDHeZ4p3OQqU2GWQP/tb5rpCJwyr+/frJrInF9zat+2SeoWvJiVuRTOHGNUCoAZ4BzDa0xcMvl9yJfY/dPlO8RlLgItd+Hx9W3ZUSpOjDBLOhF6/AqGpKZA3eD6+Z+Uc4gxHNno4l98NaTK73vC4XAy86wYLejBHLjg3cNU7qXj5d9OFeejTp4tNmkbJFnkdwMmQqQIKP0521wK+JYCGo4onQI29zLxqBF41ldBwScX6RlMj7+y8fheqpKYdyyssm8YJubbn85W+61kN4YgdGGpycstAQO9sN0BUNQD04CekFNb0NmUZ7ijMW9pmhy1MjAlqK/PAVnYZR563vvAj4yz/Hq/qI0t1fyCT6a45AqmjxmYdU2BIMiie0TPIkYgFPMK5dJv/lcrN74QlDKIHklTvekgNouSRq3FPcennnLREwkK6UawsvEg9bVTf34Yclnrqlm5zfwZ7rGOioZVWiGKddLQnDqJUpio6pcOrHTLuNS4JNmYHBL/BpJPGgltN41NddUKmFecbaPKHAZrwt2qaYJn5daLh+miedEKRy+AQcFdtgE1IA04gwwJkqOzl772DbSRWa0D9ieHLFFbmx+Rbf32NqR/8uwt/cbYlFqMkATseO4w1evgDOTIaS4UIqQIoVZ+8vt1pmFEfDmDJ7FHcyEEquyfxCRyIAmzK5C+HDjpjPUHUKsnntiR8jQ+Qsx1dYbMOMsYo0hbrDjx7MBd72OHhnteJ+0TXJ/YRKLo6PYd6dbUeXiZOjOA0j8WR/a5SW+VFWfc0LTzWmh+6ej7bAyBKRGEVSuczEb/nrofZCYbKxGBuQNLtAVUb98c0y2/s/j1SEpxwAlB7aldy9aIjNad5W6iioeBs3TC8LH9vZ+HZ9E0t00mR7FrcxpAVOWOhaKH72Pp5PX1le+0fjC2ivJUaBR0j5rRsElrRFca3CueAvWHXZ07jB1UeQ9XRRaeYhMeOOG+G6SnEatCmmLp9BrpvmTlqdZI43wCM1vo0GTeBjUIxphFxQFe41sfOQCCEvKmTzGipmuIqxknh8GXxJ/49Y2ISqT7zhQkUhj9xHQZnJv+Z1zmP+f97T+S+4CZ25Nxu+U1d96euG49pictdhdlmTcYlNYYVIZiuajeq8wA+gZPMXc/vriFkqRL9tuD2MiAdJPNLB8kYAG/mknGBn6nug8PK/a5+xjnt7ZDh4SGD9WliP04KgFy+p8XClzcxPdJ7Vhg5ggMGVrl5turKm+j7W8/H1KKSqGLjuj2W4uGz6V8vQC/fiMzoxDWMwfBVSno/2uiTX49ixEaPSgk8CL5Ohlnl3VbTIzDZi0t7GqtQpifCv8GDQPYTobEpPfE3j6P2F2TAp9c0DD15fWbkRjOM4zGERV0B71n4AFTyDkIIi6TyMUGHermLr4tLtO3F6eGNgyEz5Y9ALcn3TZd6P19ibQyQSN/YZaNm3vCFYYfsD9anxn9w+zExwBmEZArTuuaFkNUPjfju9Ys3wN1Q1qRwlsanJByW+QVaLVs+HsUVd2DIzuwO3qgaSndnQsUzjqB3Z04DU99pO1ou2hOh33V45L4hPlv3+248fBWjSRlCVZhrt3dMrmv07THDAbYuLXe7dlbdbdw57f87f1Di96O/fsBS7lxR4LjBgao3k58RjFiRW0+vyyOu6oRRCq40cIUhNJUpSDMIUhegFNXEvG3A3NHxgK/EODANUPcXmHQ9V02BljhXJuVZu1URPMMAPRl5IOZF4/hwlI6E46xUZTCzTAZc9m86NZNMRSrvuueEcY3odMd6WvdwgTWuVU9ArRFbFwQLGAV/JH020o/FfKMO42+zdVTmVvXAMPOuK9pCUfaNYsurC8v6s977ohfndnnLo/ugKg6dkhb6et35oYdz9PuUsQiHHpS7qOGadyZlxcWwPWWDgmVRBi7ubhx84opuenwSMQafuP3pxnkCArUKd9EpJ0XAF74cy3M9+mizcuZ4xTHjJiedRjRcUoeLsdaqSqzj67Q/0uzAnxs6990yETJodJPpXpg+VcefWAD3O8HElUfrkBG4IyBQm3XWC+lkZDJ1ELYcR8FRzFLqmq500lyPY8qIkmXoiUAOMfJDe44t1XcsZw4VAPwDZP0MykFBkBqhL7LGIIV5zq+UFO/m194WdzL2gnyp9oFR7n5Ml/bU5zMm/KD2dAqiozAW5rA9Dh+FadwyuWKvpgNRlsXRRTzUsQ6/EXhn5lAEeV5UcCVsx7U1xLgYoFy2FDwOghSDcD08x2yJfyOkmuy/y/b4dSCRgD+gAM6yvO+9Pj79+ME4JRJ+XOJ61tlBv9FMjHmQXVVtIu1IOdH6gYUAesxrT/izFAMs0T+m1cIeMN7il1laZqr7p1IzWkba+/tyD5NL8lcgKvfa9cVICSSSNa6cMpJtvDPOeaOiiLI3AyCljXyL937J8dqt87oqt2D1b5OOLdWUe9TeH9jdqtJOCFNtf4K6tOY7nydX/jn012tiSmFEpwAKwG3J+DRTYuoJ6gCHXBK0TFEM6E3HNIxWyoPYG9dPxPYdp4cOFFIVG3gOTWVZxD4bB3uAWxHIB/SWWvoG466gCA9180TzrHWgAJcaTrb1eL0gr8kWNmY8cdiSL3Y3t3NKk7NYXqCy8w0dpjfuLnPi9eHF2HANPcyEpu92ZelL+7z3MHtem0chzAWEzKFEPrHDfq/bcGODXLO9qK80PB+rRwihlul0wGNX6OWvqc3ojQyKcnjMG/B1esyaPv990it2ybqNmCyQBobW6ltFjxH6+4OBjZ6Kl4Ju8PxId6x+5puA3WvAPpa0KnSXTnVRv922hUzoOhDOhBORXFwh9j6Y7Ya4/Axq78tQr/4NX9vYOng4pii0j6gPc1UDUwT/O43ovdo5gf4Ig6z70kI6M65uHoMxm6YCXMKhXs945Eza/2eccP88ZfGdBs6OI4fEXUEI1aZbHYeZ4ABjMrNv/Yjc9BaAHqj43OFzGwlz4PjrHrf5RTjUL5bqWiOEb1AysWkRRuld1N7/e38opxwQmqL1EH4Rg2SHx7l5o5R+LKE3A+/cuZ6ymX8Fv/yrvwCyJDUY0RJLWN+yaf6A9Vihz1m9nF/JM8wqIS+vpg+T1kHcY8oQiIm05TKXBaXaBjF4u/vRvD+f3Dnlf/nFxumArSHUXWhMwqhn0rYRlEsaRUNtmbtkeE4ulq4NFw0e2hZP1Imu5npHModRxm/jEVDeeDyVleJfHJKwplXZHCqLePwi/JQPqu1rxj58H/WHJ8Ha+5FrB4NaceYUR3JxlHrvv+e6fjDxGYC1ZZ7jMxL1xxiQGeRNnrMC1dxbuHxrvQY00fgZqfHvYdPYtm5FwnUOnFyFFk5UUc6vtZs6UxEx2bLvDxZ7M52VQrg6Yv+P1Uo8KkMp1KZySvxR5Seo8GHRGohTubb0shSOgSo6ld+e+W5kK2FeJvhnEdg8/Qd8ZQktEtUFSlrMkDJBRc3lpW+p5ez+TC9INxKacoM2Pa90Y32ijeSWjJnHCT8sJwauTYl3I5YVn3s8Xwf31FcSyVdk77nb6w0HJqw+V7ogRHv7utt410GQvrZSqweUNtIdQBOsP4YT5u9E/KixBUBgz65zBy0YlL3Yb5iAChzt0oGYMEtvl0pwBnt9KvofmlujvOKbH1O/P3is/ECDiVVC86CwMiIYp+exLUuX4YZh3UsM+jFPH1K28gIYx/ix7lW2ad/cdjK+WFeJv9YSx4bRIFmAUHuJT+mOch2G2LaNSHwWkAzFroMjrfVHPHTRPaom+st+dD2Ge4XdPPqIqVHSeCRovPmzyjvdFECv26t/hQFxmIHWSe6JOlkzeFYp/tZuytgvuZ/6Dp+G4AelzRG3YGyzY2AluVlhMtts8+Q8yiLtZ37yVm4gLIdt7Kl/3ic/aDLJZfMSyP+h5IOyREHATBmXO9dOTYhTmp9jsQ9GPMxMR6iKdVmHDRAwz1aD47ni8miOSCKJq8zY6++Ek+YAJWX5U8E+nYBM8uMlu5b5GlOmTxid5qFMJKamzHwtqPgeJD5Td7ph1dpe3WTH46+hu4rZYs/qFCNR/d7BAXSZK+QTDLv7KXBBp/O5kl37RJvAj7dEQ8tK+QRGgVM5N3h1pfflO6zUXoqAixyJSnWDmLXNLj3XDk8uoIYt3knK65XjrFBiWPlkf3hI7qQZz9FCG7f3Y+633G7lBHSQ2IscKUUrfVEpy/OyZK069Nnrg1GfooAr8Yhcgyp4SQFgyB8zW0qzxjLmMiJh7NoEf3ROV0HGadFJ83ZH4j71ehntVN5u2vZZ4JXuBp76Y6ZGqpygERLctrK9famjbGS4c3Kwl0Q0lfo5QUY3fzp1yz5DZILmjydy5UjxypMjXZVELM2L7E4Pj83Yd37lvoplXd7Q4IbxTqJkVut9oqd6Qc+YHUWVW8l8X+Geap/wMBL0Uqe4FXaf5G51hcP/rogSShBFKR+wUhI7UXvam8wrDfqlC/5qvUg7Sh3ntVa0Spn4PZy4u8ZUQUS3k097+5S6QqqwH4/Mc7r2dsLFNkGSQjyytUneRqooVZAETM9Cep0sFqCKlCVCbrqw48z60yWJ7SLbroKu1zpMOCKvtjYwGGWB6Gpvvwzkle7FFUvChfKkM4ECespvUjwjrCTPWfcPWuF/U9yv5TMFYGYLiv7hawcpmVz7xKM/TWhxSX/rY8v6RlUDb91YlcXLOGreIa1vDdAHzWNwcEOl3M1pGrnKDtkcVaBz7rLpFoDn2XAm4gVVW5lk60f3PtxDiDWBI+gxuSpNY5GRcgva3DPjpdafFJpmwxcU3J0hewRT0Fedzz67tVz4WXkF145vCPHo9cozsKnjDFDYg0VCB17VR7dCD65dQngXEqvH7eAKHN9/zDpkw2lBDJajzlZDzo8CHwljr+Mt4M15g5Hko2756JL/7V7HNFumxkZtT/GWb1NZNS4B/BDcbQWZTC8E41BWpVPz62DjpC7VAttBTzyi/5hrMV2vXitiQNYLKUIj6M71m5XUWPoKSfiy19STGtWwnj3ftOvLmIOSbBNAbEDJijfLtfJvO8u4DIgH82oZ2s4dxK7qARfhzyDete4pBSRf0somkAgmbFVwHnbhGCbpwyRNE5NJx2aEuZJpKsTN4t/n1jybF+WpQk1/z4xFcAE6Ga2M7TZz6//k7t9BgZJs3g1xV4ZByy6fvp3odAeJrPvnFQLEdJXHdJXEnhrN6sQOoB8rF7eOpFj7wyClQ0dBOM8eTdX4jKQApJKjg1Zw2UyGU0EHAt4OgNOlxrj4Ok8s5tuLgtRNY/c46chSXguHCci9T56G6AgL29qeob66RuvCecO0WfW8PF6DamNf16noUMSxW3xLCXVxfQUxkGlD+9F0bs9QLXySAjJ3t8OAmPjHjrLYAUgZT1Nslg3aPriGJzLFs+kuaNGH23b3a7us9GzxsQKGG6D8lgTjk03JpjYj+inn1uMbQm+Di1o/9K0rmoT0ENmlZ30t2Tb+8NCzVvpU6UQHU1XeorG0eWMPN3N4jCnfk74/wAO1cC0Wu/kNqlMjxbFiEmvOwlzBw7OdzyPs8MXpwWdFWgmGTr4/HEyclPm2NVYSlWgaZE6YN5HOWqQNg9v5ReKFpD75z2DOrtnOtbqRNrpQVAx0IY5OeEk4GXTlM3qjgV2WzysbsT+w4zxwLFpmScuccjwH7+2rsucaqi4VQN/B27kJvE6qZl9rca26fFkvJ0WXL30mH1D57dsSPHXAIVfloKXUMALHZqS17Nve3rN2x3Y/qAt4xkgmzRojhiNPSaDR+g29xZ3ojM+rOyM4OXYbmg9ldIHqoE/jHNZrvY3XAAbGPJil2nA8rgi4PEGmCKrfZt2FL5B91waArvalrEcWZPU5kL+tsIcz1OlRtiu7byfco/cGA53Jv4QGvnwMalFI2s1UCR6Uca95AlzG1HMCWvdKObgsc3hwYPMp33RYqpDNaoatkOjVC2hiNKomyhzIZejiZAGaCfE6B5xMiNt7gxbhsb1WlmyeNQ15LZz8dKsM1HXjwvp71FDTZjeATTqiPaJN/Qz60TduPfvxnJ5Pds3e3MJEf/enDO+bys9AwrmYb3DI/MPXlxJfgDpeANZTxHHTnRwaXa79DxeXp3yx99xUKh90XawN6f4TQkuEtWArdHIeRqZs7S1Nc2Ari/nWVaRo4E1xdngthYctM+eufERWwpuplT1AopR7SWT9HsVObxb4nU+spMmaRzoJ4YRXQXmZWOuf9qI0VkJIGmZfnSko9Hf1N9YgW6ld1agifVrkERve9GvHh4K5RBiGjENt2sNTtN2DZOAc598RWUXUZKQFk0D62+PQuKV89yfe0D6iCtKt9OryQMsG5dZCY9QhPVG56MOGRzDkFNMGpwNLOX5y5H3Sj4PcaSbVknzD3MsqgMecTac+URlBrSgKSba+W/hR166I5sP1bc7vo9MRba44RJqj7dZa/+KSkx+TUlDGQLQTjiEXFNUmiRa56fxSHXbkq6kCHxLrRHsJUdJOHGUGJFvTPqs+UpuMRE3fvVKZ6JD+fE3rSQGAywAjPT/z3ARagfeBpI03bllC11H7vtfRa9nZq8q/BAwoSdtiZZE9FT8hy8NBeto4RUQcyTUuaaE7if2C54cApMyng/XWXqc0Ny5izNZofqK5bj+00TQiBFW+SS+vYQvqBeF8jbARgXAlSdRhkdvMU206MkZYn3JAg4EsBPogw4ND34dVSSAXSSD4stThcMpfKxl/N59b1nk1/Un9H+XNdkJF5mrM783htV2u9RJlAOMfLmw3fD6urzH672Yx7WlKR7S2As+7o6CyxmG0PoDNY7l9RV9kGpnEYJ9e3d6DOk4P4q0aG26lLXsKnjLYx+isTkUMd+DzJ3yB87EBVl6t/KyBSTgCW495pRob7rLwpnYVeZXFiz+KlVkGkP6wdhAOIEGqInMBqa+wK4HHKfu/ZgbThgskZk37HPLct4wJrqj6yDg39TTUrM1eiIsjto3kzYOQlDrHbF+DAqm8qLpu8CzS9+T1wncqNPedGMXO+X/peAW86EFuKAwv7PNJtmIAhfvgsHSHRxaoMImtF4Owr4LEAWHuxMaxzAGYcuRQRTN8jr9eRXXJsuTEwIpjsr5y4jY8GT1tj+kQbwSM/Ez5Evk2AktRVAsPZRHtu7G6WntAvkpfxAxEznL5BHZEqsy39oEnxAcclWjR+1w2vuGF5ddcCsfo2eFAyaw9V+aZ7MY4+jxWclA35xpSJph2euyCV8UagHFryo0ZTWvTcgzfPbFQ+JecR1CNd/j9ISpLBjhp+HgpIzsQ3IOhPRgNp1HGyHPkXvaOibk1XmMBIXXdb/zzxdmDaUa9KGSoMGkM9n2l+JXi/LLFgolRJgDN5VBcWvelzewAJ85Pg3dWF9SUUlok+SMZrfMQBj8uU4vBlT0Bp3ZCtqLGpuHqgRIvKKY1rKZ1pBW/wg2xl4jXCax94rprL1/Ms+DJ164Hc3zPNaQ5PowFcIdzPyg9f/50mN+4F5RwDrSQQ3Atx7hHzqZccLH2YnjSSJq20o/bWpWQmkQcW3/G0W3XgfKoHeRbPsAGkXoREKN6bCnmEWB3TGPuyS/LTTOVt8EotJkbr0tSCR+IkwO4QzuHJAwvgGkO8zKlWaIYseTDN46EQMBnbLQLoBoAI/hCXPDRjZEZ2v31xXXW0/DlFQXRykppn5wq1sf3t6+cPqljKqAv3ZacydEeDMi7ubxAURLGoUESvH/vxFYti7Pp/lamWciTR1PmD4+fMI2y8WSkN45Lhx1GXBx6gp/wb0mAQIr2VmL3KYIzMikUC4DVjS6ovEFGdfhlNP8HQetwk7SB9nq/BkTQIoh5q/7IH7/q7o+tYjytzHeyBbUNgfbK7uCthVxSOiSimmxclIH2CtpPVjkL2kLCSb8CkiakxPNTA4ZhX4gPnKRytizzQVMba3v70N6yAMlv9FGENzI0DeBW17k7eJidU1Oazn+1uEQ3JmbyjKviqHj1X+S+t5YoUCn6tjJSlrL7QDLvAAWDhvyfDet2lf9F5T2y7XgnFG/K7BP/Lk6GxxqvOmPObxmIbGGrh60hLNTR9DF7BRK4eXYBY2DezA87nLtXUQzS3pbGmPU9wJoBgm8ezmNcXXncfmNXQ16zC9TSSwjWewjHq9TdsCYSnm0SBlvbgsZWWvgbF/F4seSskzXgGOTdG2nGZxJYuTmPsCR3a9DnMvDYxQnT72QSKgp6zfoWFN++qvY58YSzWcezp0Vm5PdAgBMnFW6s8ynC5aW8Xw034Ep5QSU3I9FOi2ifAW3qraZuQNpC9XnKlvq6E62okfoL8fhgPy7oeNHkK64KnCiGErs+rFkbnIPgcSRfT6evCmEvtbOqmn/RjsjoiWDWXv19PjolvIUQTXYne3W8i+IvcBoBbkvF5ip75MGffYdlq5ioPhRirKAdN8HeTe3r98sRfAwaGROmYNvdyZwcY2Y75imHYHEH/VcAsFSGiK+MlGDZsAmRcoNx2veCQWUGBLGdLFfppknzWjSmYGEXSsAH2V7+6EAqwvOvxceYFRCSr4fzMQaZA52+8sEQzvhdNgIP5Qp+ArQBZ68XQpCocftgCN9miUPnq+cU7Ark9HyesyIefqPbN31IaMH3JZ2S8pDkErOuKhNU4wAkcNFND8BrOXxd0y0tumuhrkVcTdqho6l/kNUsnGVHf6IL6fZKeei5lGJmEMeEN8y6MSS8erwQ0CXvAD/0HvEP2VVCvb4xbseMeW8rNyhp2Ka4deFAZjU1EudTUrRhCLUILiXSXsEIYgVkzmUen/d46+FrqbeJ458MjysiQUmju0t5VFrS1cRaWx+tZ5ZnmrGvqWWN3nzaODMlP7Sr9NIjoMcQAreW79Oryhj+EcVGr96abJSOBd4pkS1IDOKK3E80ORmX+Fsq1H24rW5B4x7q6lfueFCkO7iQAeKNN9CDn7ilsgAMzNRyEQbIZKnSLFDmkPXfkeCAlL51vV+iO3g1NFtBmJPgYhDxOTMTHvFeEb9K3e3fRv4GE0fXsQeAcn9NI0k3eK0SEW8jJIcNTjdg84Pelas/9SseDAZ9v0mXeVhh2pvNM248XXgxFWUGQx7QXC1jTH1nIdObxAIR4TFM0Y4PAVQ08BcHV1B6Z0OmreGl2DntffA+dp1/RSUgYISAuJKtsK4S3SNlFnrfuF6WxFY9nZkMWwr5LY8iVGfLw/mS7KuAam+6CYvnOJLza0i3CfJVBcR58q3+inSq3IiQH44rB4MToRzqQjMoJgEeshSsgP6UOiAx5xbw5VTESGQPeJNLHJuuTNrTzhlmIUWdCOlnZ7XihtWsw1vfjSErnepvjG0KZaof6OjofJK2C2TpogVnn3ZpvWLCUWT5mSkS9CuzewXyBLgcQmsF5bKqs5Xvn5FJly/uA7h8KAFtMZVHCQYCqFizIMvSkZR4Xl1UT6M2cRN/KlQso7uhHY+uu9DjSLbkFpoOj67HmfuY4s9asASpIU6kBtgb6RgG32BAIIbrsKidZM/Dm/nkhzVfNM+0u/dYDBFsCyP1OBXQkhvY59suT6NayxT6CvqT0uXHbxD4mE+uW0eomcrXWPp0A+PDx+9wf+XuFlmujpWjJqgxitUSLn+sTvWMFKu7s4y7siwt5ltTXQwqn9aWBil4pNBLW4Cnu2KpfyYVSY9LpBaRo9S960a6PZ3B22GBUg4J0dAPFzyip1PT8TUfEYFD/nmqFICVk2RjNhKBLmSsOAYEEO/CWybOHHRzK+JKkN0D4BJLn4a0zwaBduxAnD4wbYun7Q+oQxBqE6DJQvouN1UxLjoW+BpmGtIkN0FC8LuiUmyeYrkkGyEv3U3EFP57xTIT/VdBlPf5whgQtZ809iQXYy9uJNsUQNK6Sjwf/f/6T742sTEOkqCo/TlEsarD6GWI4OqvEClmRUXYMhNFUf3Glh+LDUVdBYIJzsFmM5ixJ3DLnkRD8xPJZqTW6ukcnJIC/ps95b0AhhMGP0LkofnYd+sjcAmFAKDUgxURT0JJ3RvT5aZaYT/b6tFQHWoDvFt10bQFN6FF6ZsJ20MFCc0n519BA2LmpiTRgjQ4JJaNjnueOPX0v1XMy21ePzbjXYqPwZ6OwH/VZwC+ZL1D68WQ/Y5oerFDUtcU+5s1pUxSzwDxuarYzC6zJwzWK/ucs8CWL6FPaKLh7tVPH+rc+Jk7ZLBxd0V+4W3YV7es6Xk+ouLRVnrWfN9hHgGyg1LUyWzPZE/HWMzl5f+HKAGo7dLQCd1v9j+pI4JnpbmvrfJYIWNwUgghKcW+vJQtFN9TUjcIJvHlcvwtCYNo7pkSQDadw7bcExHsNbfUbJYzQ/H9cB6jFFSDfozdcAPIfUEyao36yQ8ezlQERVPIXjpNV3OY2Puv6yhumb59ilXPbH5bvQr39Zt5PCK6MZEv13vNW3M6xVVWaR2cxVPIKw1AEufAGIY2q2drbgJgJM1dgd3gVDZJIy8UbbghXaTRsIObNLjFKpp+OHDcKc3E7yuepeRj4JrE5aauTAYomLUS66+vuDix+TS4EJHS7BFu7dpiDhHPsClLPvCsDMrHJ9R0AvNUXEllaZtWJ9T2ohgifQpgpdjZIyPAjX+fCRPaYXidXCCUyFYgVHnLhAjBRefnqQ8Quyq3Ze2eM9lb3Fgjg7pJRKKM9t2l7Cgsq9OoO1vkm1PZdieHeFmSs0Y0CRbSoatlNHhaG/azWvhLjtQ7ftwCBEw82ASrDtFuYQD/Oqz73SiqrrL7sRkh2IYJpPagdeHdEHElREzbDyiRSaY8CU0rNAg5QEEF3ylgyFWzWsXRzQwjpq6+ugr/1VrO7POZgzu0yVcWifx2FGJt6coj3/hv6CEhPAdQ5T/JxuJXtnIX8RFRTyyplNqTHNxl2bO9Yar1P8mRSg78NGrGm8/XQUjBfVllYwKkh7KI4VKKkMp6e748JUoR03ZEjrD5LjL79CDsftQLI7KKO7uZYPa8bUjSLr9kzfhOUuqzg8B4L+YGSbhajiLw2oDhLNPRI7mQUza2WHN11/D5MIZpZmyedVe+bcJPjy9DMMPwJHxyBDyljAvGTTWhxXWuCqagBo0FRrffbOy8TUWVMVb6ookLJAsqW8w6G8ouidPzB7FhKvkgzWOfN9cvB9xUog9mLJFyFiwUDf+pXtZVqXKgkmuHVMClWCf+JyavhKmM/DcJUWar17Xvk0U0po1eps4TenX7YtpO9/Ud7mqujgSKONHOAXU/PDkGmefQGCA9ZEKrkgUA4znmMn/zGbp5gl0xMH4fD2k7uEf7FeVki1pAWJQDufKXNHTFTSspyGyGgTEMz+9JzfKpU1kM0V2rvpePIDA3Z/9j35cJxXD/8On37rEp1dzc52m93PtiCMGZfU34k2Dhr/ZQRpZ+w7PS5w0drqxK4Aty44tPZ9NtaDy2yjmweFDoxBYvPnX+4e0soLNPRL9VrBxRitylwifrPtWeNIgJvcaGm0XaH3EgcQjKHJak19hzVMIbF61kA0e/eRcbJWpSS4V6662z1FCDL8sZNTE7Y2183fMwlCYv5CY3Ad0UdeXxO3u7SgicyIA50ftgNZh3VtL9XLP8ETXhRDBHaFFLkYnPwEC5Zp+jLZhPUrAbSyx/U/IhAjw653OvlqTKHE2vp93ME9mY1yH2hKzRZ3o6oO+1yfjWLYi5+/9YUBYiaH6QSVeWVM7Rlv4Ab6flMBh2IpBgkLDFV5NwOxAjPGWcFj8dz/Nz5u7FvWr2Hr6ti2XJdOPN1dlKF/IHMlJkMRw3kENUa3nOom89Yc4FlILh0i+vKzDZ5hwKu/iu6/UZFNgT1NXBBoL1kpKOlKXofsJJ79GdiDZjsJ9j22MKerTsrDQ2g44I4sMh5MCFEmqB/mU5MzRv4OYN29+7xKqTPz3K6CwkIz6l/EXMKbgsN0zvqUxJHDF5xQ/KWr6GBi46BTA/L62J3y43IQ3sFaa/4z4EqeGvye6m0AdL3MeeyQOp6CQwOUdine53fAhBkJxun3Y4Gqa1LVUTZsl30xswluHD01Q21vckEHrB+W4Q3yqnML9mHs1IUJtR7g8IZyYGp2+w6DorcwusjhL3EgnZYTWdAVVlKAzT7nUuVHfTQ9hPvra90pvZH/f8tVbFvKKPL8+nUQau9XbNWxjiMDyuW3r0GKMUd3X26KnhIBw/eXoOevnSHF9z4jU7GI5EfcVCoMRmvAcgUdwYx4VM1IwphE7vL2Gqgh5wJUkSrqz2USHvc9fJBfaIDpJFyEypoqDf21s67/nP6Gtznv7DDcrc2HvYPmD9yJSInz1R9JySFUNOm1fZnQnXt2/jLP9rJAkcbMOe3M5d1/cS6wT9IDbY4QPvvzqHU+SPKZka1omkkCuQK1S/6mcST894IY6RCXB3tTTc+eHx3azYJ56ACKK4e55n6THogn+CWQjtL59r1AuObwzK0f9hb1CXGtjytsetbBwQ0xQNjvzRXpVTeeYQ6q52c+5kpiMBvpWOSRqEq8qGRhHI+/Dbye3Zz2HWAT0BQdDbgDNgUXsv6x7PXEkyziMn/JMfaUBjBSgXi2IC0trtHSi9NLvCDMpRqJhybGpNcWCpP1oglNGDGijt4BgF6ysbRQeiG7CEnAgTXDjDi+DVyTdB7EI7PmfN8EfPlxC55m1YjOiwus64OEXXmj5kWhdAozGLWGguI2RQXibtE4BO+wiQQAc/ZxzJYh0cp32Ehk9dx+pD9+2dpbuOxJOCDU9kcG50JF1e5Ik85plMXgZwsnZEYjP3Ab7OPC4nSlzEB2oD8SH01yJC+D4GbLCFjcBRIA6N0HHTXED9Mux/0KCddbHBarZPrE54YHSq2igy4wcXvuwfLL17sZzlNoQhhUKLrI5teC/G4MxEE/vTX7poorysHIlYIFMhRDbXNhKOn3z/1QqYhuleDdhi/tKWhhU3I+/OOyqvfiFdChZFEWOKNIVJ1MyYMlWQsx2ftaZ/5fciI1TAD0/Gg8YqveaIA/6QvZwbRfcGptW0xJE/ahrElywNd4ab7Sjxc1RJHsABrv3SI1E768yRM/qh1yXPONOwiux51R8ZMT3SMKKWwjty92aYSqsg58L7O5h3PhmSY5ZpLzqaJPFunMJnxDZa/Ydxnh8oaR6GcldnTePzTCzZm96vkruV0Q9/83wBtwN9P4E14AHbPnG1VQf4k5sjd3MEH84n9R+IW63AZprvKnc17DLrRTE4+QrcVCp1qEpik2f47MNjVDmrvb7qMb0zt0s36vQJJXtNsvkRMvOPH+v7YFFb9LQaWMs3s0aWvvRiRRLMk7UKkxE9mxIAmYmZgaRkJJMsiiogpjsR6MaGV3Xd0sRWXIsWTmK6k7CqlDXsy4y6CFYJljBOMVOKe3R3DSY1CZl2+9H5pG+99RAlvEKS3cV8JcxGOkZ7wbCvvxXQW8B3slE6AudXSaULQqHB95uJ6KfnwOp0QFoqTwXd4qMaEHv9sF9EKTrb4qKIkiOH3HbbQ/UboID104kQZYKt7OS1oKPJxxo3ejKN/ZkKSDt1qHMGEJBlEKEBuq3eTIA3Wi18XG6v1NdYs0muqkHYQhMz8x1d6w7U/n7HgNSSDLpGem2Ux35yI/PDqQAp/VfVRBbf+MdXlFSsdc8CcNJFlR6rSeDZabxSk4n5vHMoWxOavFCirTOP1IEMs93sx4awocons3NnHziM7Ic5w0N/QW0/+H5U68pFHa4XX240J37s/VN1Rv7F+/TvJiPdXYDvjb5BqEPivIscuXtH2NLYM9O8QzF7G5ZmzLmR0l7AOexxyG8qZHAHzmFVTz0aZhx1uo6fCVS1F63PDAw9B7nJ5rxbEVTqtdCyJFbjhjcEy9YVTX8aICZ1CCCs72DrYTk5Cuio1Su5N84BBpVODL2t7ptcY61gfcVfK6y2YA9j1KinD7U5+nQ4hz/T1/pDpONznEckT3bKlIxJIptDIIl5sNe0IUlzSnBxLtZ+skTL2kAgTqW/qRUkt7HJarmjRyhd4VkxyF1L182v85BALAQm/dWLkcMhACPdk2OcBPC4smqOSgRIvEHknfvTyTybR0dHpe+yG42bzFSrTCixzfzDC4LDVVE2A165xaDLFIfFIy3umSr71TRjO9muq3ofsqDTCXy+FcnSI/zcbzISLozOWqeqrZ+65/py0ACFWELOxrENp9Wa/itei75U/Cmx1mViy7u2lfKHVwi6sbGzRkF2pOYV0UNHOPFSsc6L21bX98hyINB3yFBfNNEYpfu1wQHg5c/F39RqGg//zqaT0psJu8Fcg1mOfxH6GnrTkl9tblwvw7BQH+yqOjeS6RWohuInsJtHhYD5gfCOTR45phqXx/egvupd745CRX+h4WybQq7Wau6KR5pL3tQoOIZuoRmrqjF/g/bOg9JFWezEJh9lTKc8XRpnS6CT5M/ABpOCCssb+qv8nV8ahuG5phAIl9Q+iQe37jJnZERkcknUpGk3nuqnSEQyqHJ132NL6TaJJIOM+/YC13Vg52AVxnULaiXqSIZi36PUG5K8Y0s5t7108ogh+2AjeAnu8BqX00S//h8L++DtNt8i9NZF8WI9MRaRhASESH7WC9TLcv8qxnGrZNaJroCKV7kn9pi1OSWmMMkZp+ndeH40TSK3zfsTeR3aYF6POSzHMjhEdPGCjWFmvJlSwuD4mQw8p/r6bU9ae0GYk8vgpZU7vE4A8xFYn6FhI7urAGYKFb6zUZou+BcxXL/yIZDc9V/c8Q7LF7G2ksD+HfyT04xbVzV9VbI+aL1mtGjXGJclrerILZRjOr1Le71O1Q6ewn0XYRzKj6Dt3CnB/lCWHUJrKlzPogyxsEQvXo/M73eU1n8UQ8eQPmga8m1XjoNU9rpQUp+Svoc2daQth7iVMK7nX9xXnkyJHKKE6OcIGkjPwLkttOKP+QBMoM59IZRL+TjYtUfW2fa/rR82bkILX7RXAnpcHrlWwMhqGKYZCrhwRymHEkvc3RMCKAQM7rs9EulFuzDJdi1QVlan15j2pZopuVcl0Bff9M1yIWI558ROW6Z1hbguB1RoNc+zNXQLPZ92e3IQCs/Ds23aKx0FQQpzZeX7kZOiyL5aTr4975D2ZbBaoFUAd5FtygAcT/P18rIxxcmtMjf5UpXsahByRnoYeMU+t92FVFeRumPmVPaZXkXnKSmQZYuBrnFkm68HXkVCfeHJPTg4BM2NnDkZ39cmyGvM/QKgpDIfck47sXZsxiSPgNWvKDsVDvZR5sjGCg0pJuQKHt8FmkziTAtj+aUxI3HaM89aqrU62DHKlUy+awR5qDtg9/44OjeH5fdCb4qPlakh2vhKmGKsGOB1HqJ3LmhqqlbXS6GyZjYBOQCOuWVvDrLzsVa9fIAxnJvQV1R08IHqtHGZHnRz3BwR4ZSwaZGmFrakh/BwAwyFN92R0xYMNfU02lfBw71X7bN2cDXY+5XU6uLEovjhIh6CLDjhAsQzk5AZ73G+6rSUnKtKTFj2gfC5ZdeDEAmGDt738XkGspdSQUn6mgjFg3hYvHHnf7txqkRY9TwOeBngSKcp+rCAw9yNY43VUnUdnkLzVlcjudmZchsMUBDGHcr8AiwaQYm10LF0p0p5XbMzPx7zi4yuH0YEIS4ebGncKvOys4MTTa5TEMl31fUPkS1eIC8Ytk3x+NTi8N4EuYE1Tt/WF/UfD+Yq9yNx/2/CPnVYqEC3pEgBcTMC5g/qi/MQwHguf4SDYuJ8ZYj/KQpPQ59sdA+pPTi4pJZGROJtW1jPnG3Nj5By5R9I/pHMzNzadBptxxOtU+SeoCgSnhg5S68omtJ7ATW5YYmsLyPrlBxDHbZzt36ZcHDn7/bVjH/clxoRM6peUNZsKQ9Q2a+FwKKtIToLdTRrvc7snXlUfvgEKXSncZrC5jMFD5e+R9MlL6v1sct8ULZGg3sXCIs66D4G2FgGXpqFSlku9X5JeNLJG3wlp4w+MJXQ/wyKQPO8opcuPVuAoQLdTtSWOjpyuPRR1HXZtP8E1VWnobEPddGp1GouqWY8e+cegSpMGNsw++TYn2/1x6ecfX3c6sN2mATzlJCfnSLoiXDPQGjSa/444dmd/rcYPpcUcS/8ZfSsmnyz6zHPTAeteYg6EFNg+jdc9VgnQs8YO5xRDBAQ3WxE0HFd8AhAWBL5frLQdvYXGha/Mz1gHfgdjXPmPWDmOd8cg+wNLVhR7uvBmFBrSW+BUqM6RfJ1cSlgOK+0eh4hyqqztmkJa4WEXzfwpIlj7Hek6JA4hLle6wmXwIU/aFEj6q3QzZhNDW9Z9r2aWr4r8xvhCeRxU1NjG5ANHCLIvAEoQzrppZyOvkcq8rwtEUpXQU0YlkVq9lSjU7a+BQeuZzPEmBl6tIH4jw8s/ws+w1+CIdbZQJ1SkeixTWy4eNBpgCvyBst+/Rauq8nH6Utz61aSun0RerqH1PD6J7vPdbVVjLfEp7RB5+QRxOULXtRpWSDZ321sP/AgVhCRDdQHLti7HOc3+37en2/e6AmRoqApdIZMRf0ebfN5imUYyKDyeKYrGNtyBR5AYb5gmTa8xP1dv2xt9b3q8+V/THTC2cvVtwZ6LTnhaWG9Zxk1fuUT55WufbYPPGWUq12c1Nedn9LAdYu6OrrD3vNxVmZWSj0tRW4t/9C1Mkwcda/aLpGCKuN++/1uSBJUMLAtnjQHdv0j/I0sWxaGq4vg5//x9PXzPaTmUOkTzTpvoseYYAgsVoNRKBXzF8zmGCMpDIlMzeIUgUazAZdIBK3u+/4qdX0Y+64CWI6pWwLz4+cPA4bSsVC5zw8hECONlZaHayz8NFV4vvT59+BnuzPxvOJLTQY4IYXTGSjX0tBb94KSg6RzmfrZTpUFPLulx73Do6NH852gps5hPqSYBjNKbsKorCualprDk8lTafoXiyx/xjU6di+UgR+XHykb0AJMTjvTXztbpavZJ3ewF+kk/a6uGdG+oKDi9v8a+9Notxk+Qvfvoil1/mUk/r9cIfbU2tRPLTp83R+P/FADM6vJKEH2wfTsaccrTbgFUEXZrccCnY9dsdrhUqgDNJ9cZRcSH8r38KkUpi/+YDBErKKmNautzfcmVIZAVMhFK9mRdUaMVxWfKrck56OZUOd4hpNKeZPddaNlLeYLS9KC8Jb/TeM7bH4aRb6f2jTYm2hSX+BLuxsVDmKmzhhc0lNCXKTSXYLz/QWl9RpiexTaMUtuPcHPh9piXak1o39TVh5csbyhcPXnsdwjw3RVn9IJ2MGBonqhrWfU42YA351jhm76uAyEESQOd/zJRnVun6isoqxt+TTq4G+xD1jFv7+KxhK37mj0HU0PHywf5XJgT+KbW8pglJ0OeyCb4FqZxhOm5YF7ZffYIHyuEUeoSShxuzF/sjh6lv/Hfl19eKAUcIYXQpGRl+HuBKwfyFGpGa0L/+1guwG184RjRqyqvzuk4PBogH1k4aWhTKiZ8dxBDb36fKu5kTyJYD4CuOuipk+bDuftPwIexK/QrGAAqfce+XTxTb132IUxBtEHdoYkpeuxIjLs2ke2lnnYKf+05dW0Ye5uv8SvHuIHxBhkJUbPLtMAaGnkMj4qzCzLUHFycvcT0/uhGwPGVVrH+Ml+kHorjaHEn7Ual2YGv7L6TpNZXp0cPyTh5kJwyKsvpzS9LUluxxQyLF9lPQiCiZbPTNkZkfD6ZYQZx/eOB40uhYbMrPjrbrLs4upcH1ZawedjVprO5lphhPDEik8Ysuj57H/62/tZ6d94uceVM2zJWzXQnZXFe+INxLtfXXlwttrMNP6oQJfT0ClAnuRvMMSV329Fxi0BVg0d8rFQbzMdihf57TfsbBDffexSD/51myJ8LKI3LnjcIrxlIwVrce+H6FpHnvQI86GgFXo3L3BznIojdL4jBD6uJwO3NNDJhC92AZGsEItHiVKlwjHktNz5UTpcurznaEumfTVzg7hy7v2JEseHUdWcd9xMBGPYlXijUkNaT6hJYOFpjtLAu4tc3m1ZoGMuVdy4mkNykJFYScmtMVpdwReZILWfm5fSeyoLeqOW0bt3VjmsmwHQsAOXPjoHz4kLxksdXEdiWJcx+ms9YsKqZNR/rSbJiCMPKewxcYUQKl0agroL90IzgsvqAqjFO7lBXDoChhth6Jj173rpCZa0d7ScDilwZCsSXRZBYr1cFiJjiVmymxV3qcdoRdTfaxnLj3i5W+MBthDEMlVNcGlXcO7vaiyp9PQ3BHFyirSwSSkTFStnFNb0KhyEfZl5xudeDP0Zt5Z+ywmjvtCPNYDaWdfkGL1YT6rNqOa45TIssg9nAZusrrJyk3DuF0KPZ8/yA7zi+lrgpNgm0BJVnlF3bMgLleV6r4fkbonctIjvPoO2S9VMYEdhXteQXReUn4eokyArMacI/IDZj7c+Y/g9qaTA6jmq9sVucV7OjaPOUXhuG7TpvgrtAS7VcU9YC0UNf6rYoZ4eyifwdcmTfDs6wandeUuC0k/RxYKXQLfH8o5fbTS9MY21fWzpGIWGjcDd+/i+upcZZPry+1rVWW4A+wlZkI8nW6aWikJLX0k3+DnMo+WoeQ1ghEFXOpDklnCr54XS9YGBNmhcms9JLHOSoMsu6TSsqQ6n5FXyZV8rvDejmKtAOndoU8zc0BK7wNjFuKzJy6YykpcWezofr8rgauSwyT0ViFN2NWl1KJWhUrGGJtIy3nEnPPFcxfWJhECPU7E8JWiDCsGyz5QMikof8R8vTToLpijO7deirROqo5sIPbWknxGxZul4gG4VFtPyLvXoGVqIjJqvC+U7J6ZTTOZnODWKZKuzjl5mxZbE2rtl+juvB0JBtW4PPvAhMRqsvyqBaXrCmqlykkOuBu3YVKRWBhgQf6/ta8o63rRlC/kWrG8dtvQap3vnhwXQ+uy+ZAbN0Rf0jJNN20oJOhe5f8QdSNRyYJIhx8ds5qZUcFU9bk8FmNI1S2jZheKTKJcYYkAiYHfMEWQ3284W6D6tuasWrsDB0iiYqqaWgRp7pnxTWrmzX+I5MPcdFsql4N+onI2LpmE31C+IpNA4kId2gvM+TwKVJD+m5emDKCiRMuuEm5NtvSY/xeP/bQ6NPmqyYz1DxgSPuoq955qJ/3EueBI/DqTf6i0SKXsGMauWZuTTo9vhqNqHB2IrN3qX2IwQ4DssRCXsGX7KULSaQ5zfAE+NLWBV81VQ+LAbfFfB7eQ/tzhiQA8csAwSDR4003J+nClXvgBlSuq+m/1d3KI5njuKiBG/+hYXbOBKzrOBAVzreiyyF1Ltn/b/OhroODtnt9PKng5IrVomSDT/N04jOpsPfNIMScs7GGGktwA/VWg1/bIBPToscoFtwnFzrNDAalNiz6v/1bQY1IhCEGTb+iZRBLni+9GWEkz4B070Q0ZwGpYkcFK3G7mkY9zHajzF+fbgfVioGJA0yHAWEJDlnB1kA/yTrmkmp8rD34OWP9XoJSXhFM0w8BiqVurznftor5WaTBPDAfYtsilvuW7eeg6zlcNNFNR5NxI6W+6TJhvyTlmxMD+d3HX3N3bpAIs/EbEYud6AQV6bvfME6KslokRrpaM+sTnMYMlcI3B5Zs6QaY9H/tQ4bgQR660eQfyBCMD5qM07GPmXp+1E/LJsa/l+wGXD2Q2s0uIMNOsURYYpgYzlqS7pT9EkCulaEsJCf/CQQrjn3s/yGW7F+Am71KUSykYcUTvY1YAHYxLPpsG6YU6ktOo6Ijfnv238IBINiy4Z7KNamdOw0Yav6+JHvqizFidf2yqcBjhIsG8xEKQbC9ZrJt37Ff344WSo4+CSEZiRUTJRq6I45w/4B4DXTvlFH2BCJ+Jd94v5zFW+Pc1v0QppCvA5J01leYf16OF/JRAWEHU4er7o1q4nCNZvYwTJOJQvTMyeJNMvy/7jFiiv39Dsra6/i/z+sK820+ZJHpQzCyDVdIaV+2FQTR5AVSyG/YNldMrB8d2sLhu6HxfiY5ukFO+IDkg3zavECOFwEoXF+w0kiuBQ6WN5KY1c6C8LuJh/4XsMNa69BvaHY9Wl6Ztdm0Z5pA79n2NhPt8a5scKZtWZHZ6BiN2IeJD/WgC3aAE6XeIdVjuTuV9f87weerWypCtrRYI2etXLhFPW1OEGRjPbu2hq4p/NQXxDAazgHsGUiphoidK9idr/Fths1Z6oNNmwiN5oetRsOAsGi1tCN5gUAJ1cvb/Zv1mR5qp5r+ETznM1zAZ7RJd1b7e3UnAhTsddXkr8jSrxtIZyyV1ojV2nyQpYJYRlVKVYwXJHVaua1VrDjxEUgK4z69r9QWI9KKwUFTMiblbhoxChqcitsWGe1+wHrt6PLIs9NBXeNBEbmdruqGLMocg2dqZto9R2MWmlwKIUV+hJ1yngboCUuSWHNfSGvBgL2FntTy4iPu/UN3rtZw5rXCPvY0AK0AUu6kGFSxh5fs/Dhd8+bMg9tdT3NN/wgD3rdEUyndfOnyGZ1Cu9g3aAQmjkAiajhWNI6xj+GODpY3VDPLUO2MpcKniVA+GkQgKQtythzB1PBDOnJElxZNbRjx5f+FVHu10TDcmmOC3i38UlggzKDl+opffizrVlqKcFsZrag2mZ5Oi8PBtBOrw2SCHTOrWfkhYg8ZgkU5sqkdcMDssp4cWDuS5Ho6GT4OM5T4bKu2oP9cm+/UVbdV0WC8yvZcsNoHBLCYoIHCSWHgZusPMQl/wh5/CSzllw1Liy8sovE+NG62BDCkowfVdR2RinieJbtUP+D7fTnGZiyu1FiVZYtUqqIR6Ft3egLSaucXmX/2jlkaTDH1tldVJ2qMwU6IGH6d3VwegLuR69UDBjuX0Ies/lzKNY1LxXmPiZ6PsAixLRyCzFjmEevRA4tmexhNvz1Y+EWMp9/4helW2QqUry/iEtUA4r1mBhN3DP4eJ9VdkG+7UXlX26+BbNK6NNWlC0WKiFnFN1s4SmZfdt4qu5VSVVU0EgHCKg4I74yLcaOWV61wyDz/LxTpnBvlGiBXwZxsupAPeilTw+OLGoLAh/GcWOepQaS9oAVdw/HhKSl3uVq4QaRGYU3VHOSCk2wNkCrDnZapYpYHSbMlIdn9RedXSua2Ud7p4df0m2gHnv1PZlUHMTx9Epmd7EZN9fLh1QripTb/63EqLIIINVNdazpLNsKDohJ+h6myIr2+WfTficL3i07s1MW2Wit2jyczkfQf11ELqfEFmDkiUpahWZHuYfLWzSUOVVVW5KV7TZVn5rCLj75zCR1Yaza8PJ18RJO0eSytZEHBjvsTzNJbu5CEfqYmQwKqbzx9am2Z8tu122EDnltjfDo6iza3glcn1HbS0U2qG92VyV6ppbhdVfcDQ7GTh7jXeqQtc/F94CWeMW67IIy3M2yRSkqoaWZiqZ7eHWxtwGunis5RqnNKuCBt+KW1BcZ0LJkOEmC1bX53DFa77BEY/BnexrYiy7os9dPfqoNRQnsdCYn3H4CHfSEg2CfEZzYsyo5P7in5EDHquQDb//i70YbD39kMVOg3fs2OtwLxJJhW/uW700p5jZW7iuDkR5Dk1iAHtw+QxKKtd2AblDi1fgYplYGydGvjrNYJk+MYpLpVzqLsn3Mt0hQCRkAI+g6k63oCCi7Kxfke6KFbdmdnScmrg1ax8ZHU6kYXdE05XS7Th/FOYYSi9kQLOrOkiQhkSdCoG1ZHGHRupKUNlB+b2X1PUQM/XlXY8JNsgPy5OKSS+jgoGYHmYu88mW6ENtEhAO4dDWlusO6CStDQcvs8UNsY1NJzF6NHfVruqVKxdpVMDP83G6mw6b0fIRfLAxeKd9jTYmiaiaW1eXFi9bEUAxqkwDEisrZq9jZ8vdiTV/Lrzj7xSVBc/Qde20gdwR3c73qDuvmrrAQJuzKwOkpGxHsPp8prboUnwpcj0skc3iUeBBdFQ7EzggIjFVU1F7kTGEQT+DMB5Xv3R8r+4EBvmN92mU1l5WbpJtSX+1t2u0rDUX3aYvOkep9sHi0Rz3R0I/YRHC/b6bVy5WsR+UL8CbXt26vML8IAiRZxUFtyG2/M5u1uHypOuqwrbfbcZpICng4k+U60Vqlg7Yr5B6XbeMg68M9I57LkQCdJ58FvzCTOcfxkGfGdv/9yxM7cI7fK1var5zaC7Uz5gIKIRON8WULP5Lqu4TSkI5IDuC6ixaza8VH8uT8CH7EzPttO+QsfMlateXKfXUcATvVki+lkqC5YI2kv0S0zKO3BzzoN5SMzsjiry9hwc7G5xPNkNViTBJJ/LNL6Ek2gZ3JvFveOTGQHhSU31NseFBjbJUo3qA4ouk21bYNRNqfnSZrqVj3ZCC3ZQDmEraHDU+JL2Jh26JfnFW+IJcVgawGIYlJJi6f2BZ7Ap/UVn7mfQjGNqa3/unF3lF4Q0g74/LzhPhTSwD4L+vJTgPOKMJxU8U/hhKRR3pNcliVWwIHqCHcxIJNoFZ+KxuqzfOGMV3utpClR1OsAQZ/V1xeVc+s0A8KSx1cWCTAwhu6PxMJ3/TBYctN43xu2XpkdUi4ZBhMJ52Fcm42V9Zovr1hwhY0gukYobPoYeKycbgfPmP3fmSl5hT0UzpV2xjKndeJwWTMsSPfywXEMl0urdkzlXYVa9nlkV/qJeGvXuz9bcm9gPlBaIv7STQBnW+QAK8+J1e+eSVh8KUOFypnXFHYkccSNR6vQX4D3Dn1KpBGaUFiDBknbxVfGQ7yAFntZ5x8X5B0jR6dfQMaxnfZPRvzmaav2o0a8Dvwi1RCdGqGHgVZNv/db9ds2r9jM7RmEFsLGqeUrHob4ptyo4unz//6pR3vbDvV8cKDs2IIjTYySDrgCW2EKqqavt+mv5jSYSSLJ5TTVl5pF30KKKlITbuWUVJMUgr1zXpQcLZRwZHgJ+umhedFV5gFOqk3QVGuTPK1CXk49xEnxhWf9B5PtETdUKBQo6vm1jTl+Hjf4FMqaOU326XnttFTezQ03xHMsO+7bavCin3YRxd+5+HcKIalfTZg4XLBFCChcyrzUwXCRwb1KBIKG1ygURv3cRjHS6171jvjVc2yXO7pYlzyX695HIeLzKVRsNcWcV0mFqd0yIvyHx8uyaJ1PKJgez6mQbdIULDdm6rwpm3fAiuGRAGFFQ4J9xFY/9Th/bjIAE/9Doh2iUoQ8EaqjZlLLDfX08r3FxKsZOpd61mkPE1oD8RVedd61sL21aCNeSt0kG4SepqMvtV4QZX+6F8iBxfkMQZlMqccQ/KSqnQFLIwA7JksBzJvb6TtJ8MgRd1La4fFyFXiGWZTe4PBLpbg/D+Ofll4N4+koHFL7t2feklfsO4cUbszLLEkqj8iP65QkkZDqX8ir+kNVOG9u3u+rpbIKIPUQg1wWuGOIu8llxtHJ3LRc4lLaPoTQhYn9Gqr8T/y4qspnR2Q8ejlNQ2fpPR5jQupj0euZ9ooZ4llZcZOtV/0qIlzAd62bO8VmKmtyBqVK7U+ofss/al4uy4+1VWG9afSS1Q/uk9hTkRX5HV3nufku9IQe2UZXE9NGBZuvPsufpINTBWD9PCM3gPuMxBOq2Z33m8TAhkReaOwZuZz0LMcH/uMH/+74PN2BUdWCUZh83a1WCfZDIQaDKwy4XcPi/y51XAV9SYoo/8TAj0xCDkXgUjUi9PuvILjDcy77BYpV8BBq3DXE7XlvNLM2s2TrMqWKwEZxAyr7NJzuWb/jTg2jjyhzLil0nkrUnO/oZr9Vdo6fCgkpDHxWTequSdt4fnJ+hlCXH7k8V6N95vKUpo5VaPxLNeVdV9J9DKE0pvSFz3D1YRQPmm1C0FEiPBnnf9U5v13RfilrVkZxviXQwslBHPz3buJU4pKs5KCoMmN7phW16WNQfYPjLHr4WBf6CRK6+m+vjAI4X//XZHRh8Uzrd/ltojBBJAmMXSRGTR6lH33yQ5SrVIn0etZLvJiU1zEjVnlDuh+yTczc04rR4gFScyhFoCl0X1T1oeCgfDaBUIQy71UmINQ+NOvvU0tH+HhWmanvfHMfdOsf2fBg0b8bKjPiMvgYzn4rogNHnTh+JhrBkYEXMkyhJvkJmRC7vrk1yvuEy7dxWQddlIi72qIZhw6kBxB4jqeyBr1XtXOhwTUZwWfixZ8fsYBVs6mzfB6O03xiztaHlh9uVi/NhviwLc3e9SQuR+JDuKiNYFIWODFbhC/ojfEwyrLNB9VRVm/mxYYJHTsz9/HBb0Jupcw3DV3O9go9YKTaJco2U7RMhu5HK2fPKYG5+Vx/vISRnVDmVukeBSf8iiJE0lUYsYcvPovfbnYUSHOZ77HayLaYriuZKM2iOtJK5QS6GAjmUkwLLFI5gDoDyo64A5oPsq9uZjUahiIn1tVhJ1CKDYhZX+A7wccN1MH/8InTpcZCqgDak6iQxL1s/6I3vMjt+kIWfu53E+iizF+0ls1nhC8BpnzbYS2Ud0UkvG0SFgy2MM3I4c2OhDvYvrEuU74uyqm4YI0kYpfhbE7VoO+DbkLrQzepa3hH3g9oPSzD5sSCKyF6EurZJQGwJbARm5lzrwYCYaBmUKmM37Wz5EzFpmJqPjUutr522dAdTszaNo4zYL3UvPGJhDZbE8NaINFAGpgmEOJmof+abUiPgLcT21ZbOWCeh1AuJjUDYJwbBLmGmnA0JVegr3r2qJeaI2mtZhWbRyEFTdKB1G+vUZu4gRnMwdsU8uQCyMvnci4oTtQZST1nohGW1OjO6bXceBeBpqPk0RPo+dw5J40r6KBdE3vj7wzXw8uR4TjLXUV34TQJCqU5gocJl9EuEEoy7wIq9YkGZl1zdwxt0u8okPjfpTBb8pUOx0SNe96UnlUaT1+0SOpeu/PYUWkEb3FsKd51e7Y0XpKjuO/sGyzxXf/lgju/n3kKpffpohZPKqNUz+UbxMQhGvzzFDWFjx6j0V86mWH/3L3Un9zgqrBPDy7Qqov0275hkEChzP/LzIuuhL8le17bSdSxxURKnRTSgLvocX9jkr33Sbga7S951evTbwd9K07qmMy76tPo09NkqRPbWT5G8Fjr6ZJjqulHa2adXVogZh6Iq/PZx1DVmDo00KsJJUQCr3btQwcZEQOES/q2nQVId8nTm4+qxYvlPWcJmhx4dkb2gbwlL3dSoVnrsFW+P8oU9gpBh86FjAo7ne92NLdi1GFnb6MjFUsuVou2TbzBT5mM0OuOEWtxkEYZkzlp5BPYAi/zEBiqSIwCUDCq2xKIuDmOZldu65RFXoWYtnsRkvNep9yHIzfAeARiQfTy09E7EVoPSbL1IcXnAqS6ElAaWBG4tDyNhK3F1xrQtV4IP39AoL8n1LAYHTlIkJN1XYjy0p4ueshAnUXsKGhld3LtTkCCsLzYsBEYfqAABV276UEvw2+BYoF3L4+Y74EYBLrij8IFVdEdxWtdYC9063doF+7GKx6MVSlORXaXAFNKIw5uYldGLN/DkXjVjgk+NCD9raYj6T3l1gIRrEjj2ZHGxbbSIL1R6bjzKcBA/uz37JzJ4hKtJT1paAvmNg1wAAOwYfljEDK9FbMH9W0dNvPfEYAp7SMR8/3dRcc/EDsyVLMesWsvt9k+OeOR6lxXs43mxASM3lhcBJRdsupbq2HXexTuROuhWtt6+EcF5q+FYogFapTxOaeTnagRBRsaH1rTix2GKbOZ0MFGsBmrOJBEilapyaGtLbnUe9WpJcTGTP87WggfbEWqojzpVBum0NH5krr632S5l5NZ9XRdaW0OF+vZ7hJsZGggrRP+jAcG5ctD6aSIp1yraI2R4bD+6KXRvD0aZgy7j6KiyZCybo5fX9eE2IJ5f02nCgU/Sq60WWKeWv+Ma3ya2HunbLqkSGA4K5ID4XCDqc6V56VuOK4SBfN4QHmepLMCpp50tW1QGG6SVXEvueWIazjICE8lU8puS50hNm/0gcDEYuEpRg+etyyW18kYcbJzIkBzhk69/TnsQyBZga6AAmimcNQNxHHoiV4+uuPIgyQTdAhchosyy/1g8ITBZZJFmprBsE8smFL0CVXaEBD3qVTIMCMpxZdz2yd5lTgfvIwAc7Oe3yQ73cKhvjXakLXObPhLIUL29kY28WCNa5kc2Ye6gfxmwcSmkbjiIyNa0R8a5srgeR+LsyMvwXm7mDV/zSFrtlGTciVW3zzHq83pY8Ljnyyd9SOvpHtdd9yOx+6jnkV67CCnxm5lNNr8+e9VakEJ19K2ekkv73lYe/aVmqvPyFBMDNbmxqTduF8gsQXCg3xBsVcAQfWZfZBOgAwmYf+5oHXFDzpwwS0eiTF3f2LMzytJRWKxZY01x0bAmQ52SdGEowoQPieYhNyoDumON1ovNE5f5s1F09y5ZNsXbRx2tpHdDB7O7aA0mSuvSqzSBMYAezRIprFQ9fhGXkbnBZE84Vi+7rKMwfr445kGEC2iLojowdbq8ln746FlgTn1O1Mw65fp/kZ9eMPgbIdv+sC9TlUOjiHmlsPw0+kv0yxgKe2jfY/iFIRxv1Io5v4Efy2d2jZsAjYk98AE8wujda/uKhysebiSSSTJSOa6yCqkAdi9aQTY1BylwMSY6P/f7rLn4EHDNSCjizVsxRCNCmUH3OTvTcukfR1Psyc+6zAHKQR7h638rzS2fNKTrARNfktkMiBJdjXVuGnjpnj4jknso6Ruvw0lv/BaGgUfVumCU75o1uEoRpd4mKaY1RMleX2qaakP/HW54McXrBjcXivrVDKOQQNdrd1gqnN3jfufBg2k9Q4OZInh2AC/o0PqK5EwITht00KO49PwnoOIOhWuT0tc0CZTG7dn7NJlH0C5ZVeA1wUT5CME2mpMePhIG74qOCvJVzW7rkcrCIPAN2Ga0PFmNHgkrfc6vDG9GtRs0qkxUQRKS04XlTbl3r2D6gdOYOcqdkwO4LpeYw70Ox5GJZiNDI3VP3M/yap66HY8H/tYSMoGef/U+y4aHdV93eWrUTJuMo+hzs2/ktu8oDn+YV6MELReMYQsIlFjwyNJPCAx8uDHWLJabYZiwdgEE2UXgs0hLdiisVx3i/UxKgosaVtSsvr0qRd5Sym6pm9EuzUSXrgWKZxSQJH0yir3dSplPbTKXQF39ig/2bnsOYg78sHqK90XZ0mty/OMGmVM3YShzlwnJRdzWIwbx29swK0qaLevmIpv3mEvt7kHMtpTggUP2EEFUkyjAusOSaV+V0w3NVaInq8u8ooVUszFxTQkTOV8NMcjt914fXpmmXD9cRb1azejoXCmdeth2Gpx/0bWiCzU2V6XAJ0AZi4hqO4fWi9lWYY6Sznf3eSvJ5rMpKB2CgFk5ZuRqgnzpNxux4TjAKvgz9cF0ewSwcp6NejxRTRiKfNkNg4tPwnTfsMwWQGGYxUTj3S0tByFPDEVc9zB2Z8rrD9jTQJeIVQBjsuz7TmUOUh0PktnbjW5V/Tt606IqYXPzvHSeyBetYrREZr/ZtddX5L/rpG0LJCQ51hkzrN8AVEnToHPFqeQIlHzUK2GL7PM+vd65p8HYIDWhs8EjBoUDMNTfQs/5wUohVumuuUoZIqj5BSZa5IcaEGoqPj0ugYJQIc0dkisoH3gf/S6tVjpU3NQbL8csLK/pp2N9ymROCarBzkh9bQqJ95Z5dyxIiSxckioJTsfrS2JSKoOuUi5qI3AatWfl3qSPlrjCAsHmyhxVNyI0lXSzQ9kKviwBfWzoeTgePgpMy2U2nktG2V9yE1bJ/R73maelNt/DPPuLzbF9+nj76HyZj2MLSWgZztj/0cOA36dw+eVDQH8uNbOopZUhk/r47Yt1Zc3aCGNtAvCMNXb5Dm1Q1i15l22oN4MS0DfoyNwXSPmExQ3Ih4sA9E1is+bgwfTA6KlrRt+6RNdSjTWmZUU9CghbAWP6viDZQsjiDPQ3aXf9HZLtXoo6LAMbNVMfCZ+LpX2E9O3GEc6YJIxGeapmcMyIYztfmUzv8Jy6TMWMblS8jZnosBBQL/td8794TvxjTaHsSRs7YXhz+cUTbxbSaqpVzZoAI5xKDKvRG+bohM7sCFgMCQ53JKRPpYtoTCLPZ3IyXf2tne7Ha/F1TxtYweDez/x1DT/N12ONhn2bzOUjD9SyUY2SumVjrNIE2tNInZ6LfA3DYG5J7zRr5XYtiWNTnEev6g6u3HeecVeL82xDzCgu1/4HXGvzBI8fft1C/T/m/3oKsFS7ZFNwsMqcO7iZm/zoQjfowucSX7ICCNvGDagv27i4cgmrrGPSjC5/RThzEZORMna1L7gufyMnUZJkXc40KSnCW0SCxNLpxQDFU54+3mmWUuvKsnAeQxtfZzcrNI7Fcv7hYwPA3T8Ft6z7AAkJBr1iMY8efZZSCsBadJeT9lRvaA01mPAUHDIwFRT/ab6qSm5FqrIyJB3Jl6ijOGRF5gMz16cvRBI8ZifrwMsnHF2cpFfpv7u9yz9jHUa/LxqkA/7UE0QNlZlAZ56uRRcT5uH85M9psUjwzYWnNQ85nI24KLr2/gPWoL1iMCYUB4ARJ/wN8GkMyzCx7lYhYXrkO7fktW9+Y0txQETaxj8GDnMJa9IvMgBgwPwU7ezjISAHp3/Q+YHAqYEnxfdWL0YeNKnmjwYo0TkixSnv2hndRXRtwQ/3MVs4aRVTlpUJKGbddMKkNjDxF2XEQGGJ+vocPJ3XSK88ZH8kBWJ6teXcNe4rCE+6xNPm7SDM/D2kumJFtEGe/xeN9ABJHU6mY718DiP49Az04rMXsOC0DwohermRfWEn1mw+zXLe1pTsvg734d9cXhfEyORTDJvYZ+q++RbsNvDamUP6OnmwS7c+bEHFKR5CSVGgF+svHozF+4ibj+2d43OjkCM30zCRRGzC7BOjgfTJHJmDW3+pP5LlG3yJ3+hlU0OxKwbUfl8pywftmjnWplKujeuE+Ak/8RzrJ6O3O0V3xIcsEnRNa/65YFRo74tZIxRJP2W9o26mBhFs2snTt8wbj6PO0OwhLi7CkbNpMgaT8Hy/EBAVIb5i4F1Wegtwl01/uKdXY6zNHsgDTU5BjZe5YGKEwfT0U/JG/7AneAtgyvGFQvn+IGZCjYmAmRgHTju27WWxsgrXAOKf8I4KwPgDJI8tHIy2Co45r+GUMePrnKNqk2YMe2/63xKyQDNytDmS6CM9kVTdksPUX1N/X72qnyxdciqeMyG3oRy0UMzjveJ3G3KYOolLKe4bsR2SfO0bzPRd5+OnhUK5NASf2bm24T/8eVglXlCEmnTKYOLierlYbUloxzoPIn32Kd9V5kTpG/XojEg3sPH8mXLbezX5ow9EwS1wL7IAjehnHxpKVIEP+BCn9T0/Nt0GnVXXRVNlgFqdE52fZCsGitmPO4plDOGOjxGS+DPfSHWLxa0Tp7Fb5mU3VNiLjfjWQ5t/gnKEOK0uthWxnrKfLPipF/ZTavB8QhnULsLZFCU1KQKzvx7Yd1xx86EF+AXJLKnIUMcHak0sekFETti8BcJkItemMf1a57o8PYyUp5mbEPaz1aB0HwbF5FIaVrhBVraFPmAHEDwXn7fnj4m7DmZDfA5ev5rbkQ/hhRoDRjmvHLq+Tfs7KF1qAGusJJ4nLdhjwlwCQDVI88ZprUuoJhG8+aOnxWHxUrLxdQ/P1sH/lTYDqIDbVCoWT6ABRayXFzKP1lAyxTjXlx8zaxpevZKfq+HTxKtEFiPrEXD38ZnANtOlz2ZQNjxpymst7SzHnZsiPTxwuePhjWqanI5AW1GmnF+oLJNKmdtobfDLtWuFqP4jcN+REDvkvidP6R9nNEcJPY8IPVoay76vybdh4dBm1BMX08PbwNzFPP7HAELQYVuGgA8dPdAvcHGxcdohoMKlI0NMus6T54//0Q/XxmhMspHDhWscSYrZA4jLg5s5mzGeIx2q9UPcRAxcYEymcI2IeGU9dgbQbNrSFbS70T3m+VfW7aI8Vf0eBXMC3Pw82XSyReGGrWL9TCDKw0BqUvQQ2lSi7EVskUHeTt7NvEQDRhUsEaSngk1il8r0WwdgKyh7zT3FNAf/5GlZ+aBLq7vXvpTQipm71dr1alLui+s5R5M9vkHWWq9qmKE5xfUDLy+DkP9BQv/R/jq/bFxq72AyNVVYxVIVAIEZRdPN/mu4ZInOTk8MyYqEiOlbQoZs7qRreqHpoOtDhfygUBkZfWyptbQyMPHnyV75zHGk0+mIwa7+7ZpBjzCF3Oi64BvC7xMHXCVkA46aVZ3+jWwMSvtpY8R3D8dU2Q8mmKrFJV4zDpGI239jCd8Bt07lKNiKtu2mPLGtUkuc4uEYIBtsJ8UjGh5NcjIsEh56XXjNrYK2gmb0ibtCMw5t72aICIpKjf6PKiPRNkBDVXX9VPJwxhAeEKQEzJ485TnVbZu/fxIGBBOsbDxOnpXr8oBPPMBbH8Nx3lGIyMa3AsKXwqEBVmijf7cBaWIPpCF8phLZ5UBNm6yt5ABudHSKmH56mWUNYdsFFT+kTImdL5tpK+usVD42dAmZpDSDDIxABSejAb+yIHslArRv1RpH+oOBEfh7Ao8djqwfxk5ChRVjZLvesUNCMMMNZgak6WziGg1iETb46GL7W2mx3yJMGRjVROVjHXCxVDeVQf+Ohnty7QlHvinYl0hfZdvPkGKYvvuvI9ZqJk2RXqooYdCAIp/lM4Ibte12/+tFLaC8EiTl/jKMhFFf5QiisvGll4SUujhwUGD2Ba/x0aRg+o9UynpzWfFQLIvQUc31T1lUXlLyrOpq/8oAyUWZkAECILGfREnNlGYUFfRv0TWx6OpdSw6JjV6b0aLxl936B4cj63z+o3opIg6h+H6az1ptltFiepDg58CbGfGXPLfdATgo3pojIf8F6zOKf6JGnc9/Py3NdMHq2Chj18qp9BtF6jNt7TNXKkH+/+S2nGoTEpysaPPbTKOSiQkHb/KkL9eOemS8AoVdBg9UXhwsooKwfjEVSO35SP3+myWMWFsZUHx6VWV7DtbQH25VTjyNnXLIDErpKXCWxRYz8VHEoBXl8drgyRvvnLY+1Bo0Qexs6K3BliSDRANDO3z5+jv5pqh25ojyHvIk2OH//ebTAr3S6kkBZmiAPEjLTh4gwxpC7PPuCZ+yR9n/viiNJsMevxO4242H43Oh4xvog774HSnvLnGxgNGLZ5LjtBTZ7Phqu9AmiWc2NUWAV2v1WA3L2a4YO26v+BBHf7SZIOJNEgs3nQ1nz7ypgHn+bVDurSkEder01COZNu2y83e7iUi8dtCCfILLF66bGbMZeSksITqCRnb8UPQA0DT6QXpkRnynd+HRxheace3tT4Y6URZHB5WQqxv2qOFYQp4lD9uvhkFgZQ84trkt48MJ01YVz8xYYeLoBNzEl5M06a4Bs/qYwKWIi0iYhzl/qY0rGU69j4HIcGGlUKHfUwbfQmeJQQCORVqzSSiimkr6V3p/LUGESk2jnSG9YAMqr1ZIYpdhYBz+QIzSE0knpg8AQx1jH8is8gPnjtfcI29M6qT+HtdtPNHfeKkkaQYGqoGBiAhzJow1Ko15CYHW/2WPPQJlnbOilmOsQgVpYLsTtP8K17Da9GAvBg1M1kmxeUqH2zPA/JM19WxTL92pNp8mQLqY9rNSkKjR/6sKm0lAd5MliBiwRAITJL20BcUB+YuZT7BmrMCLTw4H7ULfHxdsqQwjidxQLBN5yi05NB5GNxARTgtACNLS7JnGGZWSCoPhlYRjHZWkj9FVWMSzcZrjK/U6aE3xP65WVI+i9kP32FhWlkaXiEeswYSeOvHhEt4QrYA3o8LL0Vto9VwB2a9qnEmsro5wnQrGvUnEIuPBEgPemxk6UWQTLjJZ+V5geF+ig69G6NAEqdUgDKxto0RQig0L2gQ0S3hkItoryHZ/GZqOv68zfOPzDwg+FM123q42nSVLS7FrcuT3UP8Mnbo3vl2sogl1sjg9SJ+k2jpP42+0Iit0ToHbFAGQNbVZ7WxIG/cJIG3JaajBCMkU732an4T2W9OR84CSM7sJQYz0u7rn2mItA4Y7uTS+RvUMbIoG4yfEqYQPvrG/HuTZAu2h4wg54k1BTGJ2xD0XeL95O3JNlPaOjgFD3UtZ1KAII3lc+aP5JEj5osbDMCflY18lnk6M+DmH+2YFiu2dOZMxQb+FpnyS6kCoQfykooi/nFU1lpzVnm1gBsJApDN2oH2oHuSq130uqPVQY5iwcQjPDYHbQ8Kbef1C5ZeKBngfWjObaRqdOw6YJF8J8OZjE/cAnRULZW8nHZJ/GGT0qIvajBm3sNyh2G1ypQLbEOtmD3YZ54JFZLKkcwQ88MgG9rTie9pTeCul+EerGZQQX4lvIm6utgMll5ETRD14lzofUPcYScGMMmBWnIJCQxwC5QyAotZT0NLZFHvQJ/idkuZc7iVT9M3SZN6plXsMG6wnxpaZSpgl+qyY5gHYkmT20zhRuDBAz4K7sBzJ8vl1xsgkaP4Cpjb0APacXlZxzzX4Ge5FU4HFJP7vGvYWEhQlMmFNsWSjluVHe9TENo8qOSIaq1GLOPzrsz4ZxDDbpLk7XWxyw6/8XOrgoMKxCI3H0+AuSOD7gxIJkRa2UvgZBqKmA2Y45eL0JXdo0lctLDZwTVcbOQbfz+VAICCa5OWmfzoaiXwpboSUWk9C9wQ+bEfg5TcBqgGHKxKXzqI6Ivcl4+eanyc0TCRT/+38lO9cX1GLJExMRkWQDDliGgld2Rl7x67QNTt1bGuVCPyUe/Ucae1k8kAxxlp5yFGWjpp/fDwbNXcvaic640viRJBt7KsXq3joHmQUPhaIS2To1GHOF+W5JTxN3GrGtKcFNX9smpjjDlE8Ai3cj2USjev8LQhKsnU2vAlylhmuDINnLRJgxkmC4+8aujQMs7S2Dyv7buE0PXeWBkZZNTQTbTTEK0LdjUmb+qlW4oxijDGosexqmbf5SOBlVvwf7uOuhQFVoBT375LNEVx58U/igce0StCOV7krjJ6EaxI8frBE+dHCtJ3NKmgrC3v+m7hcnoyamynQryaNi11mnVvZJlDTFlFC+3T+uIS7F33M3xaCJW3GVMamSzEJZ4Rt8onc4UTyvGz3UrpdNIVb6TruxxFLySoGWIysbBqM41p7DYN5ICdyYMLHVqIIIf1d9CDP9OfPf/U51xM9YVxAKcSgMZpiqDPH/9ihPc45WuUS1BfFuOVvVC4MklDwW3GoRFHjdRJCcYKgkC8BHxNSiuBVsF3agr/XdXMsykZMp5rcYrI7FN4XGCet3VoG/wtNO97mJ7A3j7LzX961iYYGSDvUHfnM2BxzJQFw0I1tH5ZxDqwqo9pjPAWE705iN/n3w2sQQgIKR+ZDO1r/KLHMw3f2DKOzb/a2M83cshTUzJWMPGboRSzrY27HDjKcSlj9DfQQgJJBslkYYRvciir1fn/px/OIcBielEASa/LaI638DaRDHxzUhRB460aTM46txLmpeDDA2S4JivwEcVjSIomhC2i/evH1CSTG1CbK72audLJEEhPLdeUX0URCmZ+ZYA+oLKpJKMCknHmFDccck7kJphN47t6oqANJjhqP0YBT+FwJcb7stmhOQfkjblQW6PMilKRAUH/Vzbgf1/tespee59PPfAUw1AiqOFJvDiG3rcdLxSBV3yyQ6EXHgNtHbYx8CpKgQj+ndJCGRxaPvhLowGY0pYcAUSoUtqAfjFZKoDLbnjisaETXpVtoYJ6bL0Ntk+zJB5OpsHTq5N04s9oTN7hMbn+kZaTbC4BGBgE10bVqxOyQrhUhOXloRp8+BuyBjK5TW78RclOQ+KK5ZZnbm2IrFAzNAoOUirU/JS+UFUvnzLOYPfmTsDGP8lSiJoMvm6gyTowfH1yaSphJSb6v67oJq0E378J0kH7wUnqtyYap8JNEGX2ZG+tScYfhNToa0fPeDwF0HGIbAQFdI2G93DhgJYZ6CWrnKK2TntmfDs1OFw94cr+llCuZvZM1+z9J9v5r9Y36O8je7jICVnYkgrUue7DK5yU5UijP0BuF7aycujKscOKRG2jrWm1GoH0m990ysQbW3j9lSensuPYFx1VYq0YoAupKDLoe80m9lrJ+mdD+0ul5S78OBkGAArD7p7f5vDC0WF1FlJU8qZT4Ge0GLyDDkorFmILIgR+PMVT0NBB3wFOBXtLHCWh1iOOhWOJ/2YxqLaWxohiGDAZT8pDGRCNgLTOMJnPuRkVft/lbStYDppNNGUgilfqa90FItdok0PdwdbWDkvJQysN2ecLQYc1LV+2n8Hkz7kuXbUVsJG6EJrDisA18hXtZ/nYa1kDzvxWDHNK9O9hf/ZFfBF6WjxxbAJJqQ6UQFpQhiDc2OoBPhv+UYkm5pXzQcGQEt2zEj5Z08ytihW639CR83ckjcT9ulnVdobVmQPaSjwpm8JyX/ht56NHUFDYIhTMD0GiuqDKO2SKVeswzaP/XAF2r9crN63g69bwNSc8IvlWTfVOpw2s9QSfqTXLXmK5zWFuCLaisXgbzmaR/4hCXbu9KSQ8cabk0SDw6FZ3yAyGJWhTHxvNkgbtNpbXstyRpQ4gh2EUnL2EJbXewpJyRAlWY2t9gBOwL5dU23Ekk8rzW/YmgUIGfNnHDPqkPtuwwD5EJ0/JGCUId0fAix/a48h6+r4Klg1IH21rT63IiC40B8qAO+pjwZozNpgSoUf0RdmBn01fedqCAVEM5sXPaSOG1bnJ+m/BnAfGVSiop1PEgG8yGv3QZmohiEarnhw0i1J6UFfgFvRppDTrbHSvN1NzweONlc8oVV89I7IHSejrsUSEqSkUTULHCH6lLqwxLmejd/JDPcZGFq2TImxaGUucLTKJownwYonIK4usXDxv2xO8619SxH7TanC/TKiyLLlbmqUArtkyyEJfQhHoY6HDuXLD5FuwDEeD97AZUC744iLhKTpH5VNGGXbIXPwSiL2t+lIPiSDRXut8tyfEw4vpCGhrBHt3vi49+nUkVzOFMaxO1yPnokc0AVYZYXejfFct6+sGZvL35k4kmr2flEFbJlePC8Xe3QgJlYDFL9vTdero1zbCtOkdyA6WOEcx62IKz3IuTE1H6+ZbpoRWLlSxWmpyMk6HSprxy/SJUD1lyqwrL5IBitLioarAFjjqCKXW9u0DdfaEbPQiU0VPmagX5nPU9EwD0O/rMo7idMEAPKOR32/2s0yOaMxCw7LtcvkBEOJaZ4+tECzeSXOb2bksOlrvmyBnZi0Y73Mdu7cKecbJYg9kFWxjDaXCEkXek0bKiRhZSxPFC1yHnA6Rn9zWtCJqvHSjZvim3DbjgVFvOR5SUjWFB7i0r8bhr8YmSoNuNZIhzttF3PlAcMj0AL6gltu9O1Tx8prbU6XcVvo1WWL31mCDULryITB+wCeqIVb6RhtOInrZiFS4WHFtsCdAEkSY8t5DnN4o0mLGYbxM/E5l714sLvhZeGyVb+PEn24MaRFO4MKiS39H/Ck/bQSS+Oqgs3d8BD1vBSVn27tvmulOruagGXVwGkoNw9+8ezA9AMJZoI3+FzKaX2nMsWdojKJC61BaHB8gLBqZ4395kJOpdLM4ZFNpafB56aZOFvw3ZX7JzJ0kn+gqKTfV7IwGuCukYKiAF5eHPWRJEmYIleIxhNlmVjcBM09dnb9gn9mMyAolbJgoqRMQ9Kp5wQ9nx0fvz/BXCRRJ0uaEysNSdMHswpAEXlwxJnqTt6OXmTINKRmS048P+RLWIF5tSSTWOtdKU8KRPqz/3KiX44MA60EzUKjJb8UBFOY9TYgAoe3ynYU7DYU85/AILEdeMG4CLUx9VfkyGfydBOHNww8jitNY72h7ZTnyfRpuyZadIucyAC/PHV5bKJmlt7EPn1CDn1qwOp9skmAHdmpZR/Yr//skTdrjWWTSn95d1J7kVgWo2UIdEUo8Uc6ovgUoT7zdV5XIwJPNidcNCYpNQp3gMUP0aVn7McHRAe0oliUSnnoTwebR2e3v0ytmLOmCTPV8qf/L+93mdXA0/JDh3GgX9XBF6TVFBAEEfmpgSAQ6KKZmAoWTcqFn72/7m+yFCsMSnxGECqyYYs2yCarlH9BUNxjz4D/JNA7zU13gEels/XpWA6lymu9BFggojqkQLPgN9TxyQrW7TKGruO5xyqsxoYGGo4w9u/ZuIxKwEemsoVP67jMhiQolQyb1s3N6IeoRsAZ/TmmAyOc3e/lDfNIqsOf0Viu09tVPXsO2ZBW07CbDoqFFquvqsRP+p3YcUZtpnYdTBxIuXnPVVKTGIRU+Q+2Xfvl1l3MqNwjQaZoCP7liN1IAXB4vBkROogBO11Zv9Lm30zXlfq6EdZ65lzhxpvT6uV6gsimAzYdP5V+qjTGZ4uRctfzPFm8Qe8nOUHEZBfbw2EJxaO/lzgwGiPOE1wDxDG4UO3kgcmqf+Jq/vc5BfV30UyO7OTuxhhvCYNBZfT6h44gzhQOW8Zwfirc98nhOih6AZ2JJb1XKcU6/gR322s+QkctCmiHxiqVg7K3YCGYu+fRophKHhV8FIgjtpu6YS8wPBp/uDgsR38KwsciQbhTdYQbDNY41HA28qKLi1wVU6qj+QQwc0E2GAoEp1Is6KtzB2RgwAs5dSNx3tdGokhUNrH5T3Uh5dshWno5VPPcZvsDRueeMKJVLjd2e1UqedGBEL/boQnQA4zlXhD+NCwuiDI4TdfWODIUMCj/rXs8Tm7IjJ3HqecJOZuVbFo6UAFDPRo0nT0NoVHIwZRvTPgupn7gHP0a4dJttL/km97huQxyCEiu/lkSjXOS2ZyjHc+VrzsO+nvowKVcdCNIJC5j4F+8CxpaHrLkV3fOgkvoVkiMpzxY1xLpqZHRs57Yg/suUBEN+vPkDGYxgaCEMRLucOhf20fOPSXPaAAGf/PtegqWBZBI05aLEDo2EQwYTS4qLg4G04tkCRnu8/yQswStqEx1LFkOfUI/0j4srMlnKT1MNIMks/4PFjGW1sN3UwMT7XfblQ9WRbwKlxwtP4o1j5Ra58jjRkW9sQOcIZCEsEeHDyXbTI8+G9Nf+Zekf2xJh/RQKqJdHcLzHTqBtsHG8LAuW6n+0MYhgvXgnclDQXNWoUrN6LUARW26LDwhS/atJUwDkO/wmdc9tye3DB9zAg7jqUn0YzwoOJVrx76XZPMIEyt09rmTv7mPrCTz00VGXuKs/9FY9G6Vi1s1xBTfJIvQHhsRBUUK6/jO9tOrSaqfd4TqHVTH3c+banpoUBIcMJarx4CFPXDSs5zE1jWgYyuFRUc81OVC+LifRvfb5X+VMAJhpRJ3v4cIJDg8wkSZOp9lcYLJVsR7EtDzc1p9ipHcZdiEO5IRM7wGQil0SKtgBeic3PDRvyElk3OFrlNIy+mCfEYoRi5GC4qUP5NjgHE1ZHOZJ9B/LFGXfL33vHidDKqoyFxunLszifPyNbMwAJQ7HvMoIOt15dnkcuiqm5nQSXWWrzwtuyxvmJsL3s1Lnv7vwdqU8hlrsGM9zCQ80U+zZs0yLpnIEtjGbt8gyllD5y/9gzjlAqFGW+P3YRzb8NwoHcATZ/4XTGcMyHVtuXpPa0+30TXDFIgbU/3yj3rPpUUiH3R5EbdgKHC2xwHGqoT1sdUHcA5ZVRyerdmwPOy4uKW9+I5mUrFKxUm3pggWVEYr3kRGL2uzAFipNZzxh0XbQgYbV/7ngLY+mwIs4y0B7G254OiNygD51oBDO0LcW1L+UVD2kbN40sGggScrKqaM4hXIwXr/coMwnfqHimqHO/UymrIgNZG1o0hM75HqL4X1pGb39xJT9u4ZXmT+n1t6wSdJysOIo5fqharnih+sxK3pbuMkhPEGkvjyChXpXCxkXZPzZwkrlr7aRRiZidTZr46C/EwzCoQ0myVdgUntrYDu0Nh2qCNyLest9vuFKX/b3PmOIeRWwigVwakjMrcX9HDrdwl75okS+QFt3H9D2lu1Sq/gggtAacJWWyD6RIlg5GAgK0LC6PrJ4SQCgnehR3+808NAzPUs2Dphn3B5mRQ6qbZ1BVOccURwUEhcMHY/5xjpXpA8aTh8ll04Q1HAw9ZnWpUgA+MSxZCZG+nEFyKmW2bLFbv6l7u5ltH4hQsZD7dTmLuqNNO4KUtYD27LuUsspEXLXduuItR6Czp3+uKhUyE/fNuQiRa31DJAeFlVXDgtinA5hw452WHvgBUbhJ82jODSCKH8k7yKv3P0aSWvQNBNZ4UMTTU4z/GRlHrY147E5VZ01BE4LeR6xujR8lpbF5RdRSFPKGHqbLsvT1yt/tNuJCA6FQjQLypgGajcxN3COmxLTC/BJzNfGr1HSwnl5bhs2l0IxCUYmCLg0XSKC3cJ4AZvkz8qQwKGKEOgOGRLftSFNXf3HzjsbmzUjQX3kCnRezMJgxyH2QWuRIuar84XYR4+bmavnVutNyViQOFBHPRDUQyiQB/9p0J/KMPZIFygxPqDQDLV39rmmHhcyF8e1c/sMHUImt69Bspn7SHTwGvDTMypbXvyGMJpXjxCV+GcNaFQzs2s7gpFrNPVp+//rct6AgXhrc8F/s/ZASU0Cg/Gp5Y83fJshDvqUtW/2tzu5Jb9fO5VL+UAP5EYpRFeL/nGycF2lfyCWRMSyZa3y+ZSmlHPPhuKyBRfFGsG1ccxxeJMOHYb3mJaYiyJ0Hvm5WPg7N6NfLrOAv21BM/m9f3Mddc3U1u5IP/LqrVQRg8znfe6EXKVWFyPaxBbSMwqqPP9J+vIIQ14lYa/ACKmFxStJmtnrVAiu0NdRvSqzgJ2zMkzSMmuWBgemJyBzQtdvmL23Ea7ryrpqRtm5y8Kk+D0eSNMnfwlCT+Os+8ui7MFl7z/g+OQq9M6L5hyNgler0cQk3wrraItV/J/4/DPbeOybn0eolqwBkiVPWhvbAD/zrjcRDGxT7qU0OUwYa9a2lHjoBC5PLA4udMlQjv5VZEkMHEn4zrURnU/n3LdQaXpmQiQH2Ejgn8/mrQCM1QlxTWhnq/KIVSy83MFL+WsS7Av8pcd5pZY4Luk2uT+Aw72jJ2SOuz40JKwUdy8Jmf2HLvWczf+tkB8DXasFFWGDZfnymiA5SZStgwLMslSXK7m46N7LJn4RA3irTTcOtnjdS+sN4n6MwVBpNtraWBH/BZZjidIMo0DnGFLxTJ7OqLWH9gyHx7r7ApKNGFDIbjHHSa5/TD9VgUV88j1wKpC3sxLfRKek/1MYSqrVl15JqHbK8NIcCgB1Du8W+4D/inR+aJ32JwesfuJAqA/WHRLribBsdvkOoMuoqvQgci9YHLHtfkLw8N37iOcPJXYJQw31dcF0j3chAkxGfuUHthK8UohgUmn3NrG/tv/jtMjpZnEJvFzSKPuVeHq/mBg950YpZoI80XTcq4uXnknQFf+VauymCaCcBbZ2Tv5BGXSyNUSqs0kjvglw/lRHmsvTjn2M3z7/bR0ln+1s0W0QPHtJyY3/tvSjdCNShNLtdmHhU7FVhMtZgKIYssx0DjnG4haJLUwrWOyGuQXjiWCcR/NtoHx3IxlJ1HHaSH4OYTu9Z2NF1+f3tilIkgJH/KVwYHph1zfrXauGDvzpu1pcfMQAud1oL5QVVLmIqTq63CrmzKheahJs/5VLAb7Fb7p+M4XwoiOOc1rmnmrjwo5ae44zC9hJveaOI66/ZHpg/5QAQqS5lDIdRDLIsNZGG7GlKdX5dfEUPCf2xT8f/Jn21uQL5IFcSQLHPIhomRrD9HRHTwvg51cnxSK2OCXUxrrkt2p887pl/4HNipk3m2Idk2isz3LzSbLyeJKtxw6Bb/CcRc13LyslHmzlhfCDcEnGAwA+M2AHwT1wOMUDzy9abK+LHL7DGoITRpwk9ORfAqy8wCB3rnbqq/BDQqMJabBE5Tfn8+LTBHbyA+y+ccS3DYHMWwUAw36tZOi6dKCpS7BqNQ9QJceLjatjhevZWFf1fGxXs0D5hy06g/WCCA1QFy1FGLBS4FXdGWI2JH0t6iyH7TpSKVUYxobdjW5giR1KKwHtna7fwKvZCf5UdzGmGytgIrgWi0TWMEWeRoXLHONx9iTg0rt5eidXAjjpHz+api4SSH60xfCO1JUkL+SAcv1P27UMP473BCs+w9L06RtZVrqeJxoDSV6z+7P9/8R7aSE+jBvSrbL9PjzEKXZzBWtf9idbxbYeT16rsZ9eElvlOOzD+Tvl9sDvPCe8SMFJC8UkcZGC/+NTOP0oLqkBE0X1NK64nGBKHlE6wm88qJc/PC75C7xL0DBHaI1aIsRFys9RzYIDCHndDQGp0sJMAsbT5UjTnJDRPlMobvel7hXluhCk+DTsZqH0L1KMAeo0//IEtVKzgLrTqipU7u8UOi+qUK5NihcNXtTM2r7K2uRHbMpme6HdDOuilbvQw9iaBtRWa7HCLbL4APl7bhYKaYYRehX8b0ipAVuuQwY5zAkErJHTUYcYQteBLFuWTASqh1aBUzcJX76wjsTzVJxTaT0a5PmORBci2w1EcrTx5Yma13X1ukccBr5GDwsY4EQn5+G9yjNJsSbtyAi66eBvTJJlPHO0yhZAeKwAAABFWElGugAAAEV4aWYAAElJKgAIAAAABgASAQMAAQAAAAEAAAAaAQUAAQAAAFYAAAAbAQUAAQAAAF4AAAAoAQMAAQAAAAIAAAATAgMAAQAAAAEAAABphwQAAQAAAGYAAAAAAAAASAAAAAEAAABIAAAAAQAAAAYAAJAHAAQAAAAwMjEwAZEHAAQAAAABAgMAAKAHAAQAAAAwMTAwAaADAAEAAAD//wAAAqAEAAEAAAD0AQAAA6AEAAEAAAA8AQAAAAAAAA==;" parent="L_jksF-A3Jjh2h2nsNvG-12" vertex="1">
          <mxGeometry x="540" y="129.99999999999997" width="220" height="139.04" as="geometry" />
        </mxCell>
        <mxCell id="L_jksF-A3Jjh2h2nsNvG-20" style="edgeStyle=orthogonalEdgeStyle;rounded=0;orthogonalLoop=1;jettySize=auto;html=1;entryX=0.5;entryY=0;entryDx=0;entryDy=0;sketch=1;curveFitting=1;jiggle=2;" parent="L_jksF-A3Jjh2h2nsNvG-12" source="L_jksF-A3Jjh2h2nsNvG-14" target="L_jksF-A3Jjh2h2nsNvG-19" edge="1">
          <mxGeometry relative="1" as="geometry">
            <Array as="points">
              <mxPoint x="560" y="430" />
            </Array>
          </mxGeometry>
        </mxCell>
        <mxCell id="L_jksF-A3Jjh2h2nsNvG-21" value="Yes" style="edgeLabel;html=1;align=center;verticalAlign=middle;resizable=0;points=[];fontSize=13;" parent="L_jksF-A3Jjh2h2nsNvG-20" vertex="1" connectable="0">
          <mxGeometry x="0.2" y="-1" relative="1" as="geometry">
            <mxPoint as="offset" />
          </mxGeometry>
        </mxCell>
        <mxCell id="L_jksF-A3Jjh2h2nsNvG-14" value="Is data available to assess the cause?" style="strokeWidth=2;html=1;shape=mxgraph.flowchart.decision;whiteSpace=wrap;sketch=1;curveFitting=1;jiggle=2;fontFamily=Architects Daughter;fontSource=https%3A%2F%2Ffonts.googleapis.com%2Fcss%3Ffamily%3DArchitects%2BDaughter;" parent="L_jksF-A3Jjh2h2nsNvG-12" vertex="1">
          <mxGeometry x="600" y="370" width="140" height="120" as="geometry" />
        </mxCell>
        <mxCell id="MVluI5JHM8mCgpgCiOip-73" style="edgeStyle=orthogonalEdgeStyle;rounded=0;sketch=1;hachureGap=4;jiggle=2;curveFitting=1;orthogonalLoop=1;jettySize=auto;html=1;fontFamily=Architects Daughter;fontSource=https%3A%2F%2Ffonts.googleapis.com%2Fcss%3Ffamily%3DArchitects%2BDaughter;fontSize=16;" edge="1" parent="L_jksF-A3Jjh2h2nsNvG-12" source="L_jksF-A3Jjh2h2nsNvG-15">
          <mxGeometry relative="1" as="geometry">
            <mxPoint x="629.9999999999998" y="560" as="targetPoint" />
          </mxGeometry>
        </mxCell>
        <mxCell id="L_jksF-A3Jjh2h2nsNvG-15" value="go, do your homework and collect the proper data" style="rounded=1;whiteSpace=wrap;html=1;sketch=1;curveFitting=1;jiggle=2;fontFamily=Architects Daughter;fontSource=https%3A%2F%2Ffonts.googleapis.com%2Fcss%3Ffamily%3DArchitects%2BDaughter;" parent="L_jksF-A3Jjh2h2nsNvG-12" vertex="1">
          <mxGeometry x="700" y="530" width="120" height="60" as="geometry" />
        </mxCell>
        <mxCell id="L_jksF-A3Jjh2h2nsNvG-16" style="edgeStyle=orthogonalEdgeStyle;rounded=0;orthogonalLoop=1;jettySize=auto;html=1;exitX=1;exitY=0.5;exitDx=0;exitDy=0;exitPerimeter=0;entryX=0.558;entryY=0;entryDx=0;entryDy=0;entryPerimeter=0;sketch=1;curveFitting=1;jiggle=2;" parent="L_jksF-A3Jjh2h2nsNvG-12" source="L_jksF-A3Jjh2h2nsNvG-14" target="L_jksF-A3Jjh2h2nsNvG-15" edge="1">
          <mxGeometry relative="1" as="geometry" />
        </mxCell>
        <mxCell id="L_jksF-A3Jjh2h2nsNvG-17" value="No" style="edgeLabel;html=1;align=center;verticalAlign=middle;resizable=0;points=[];fontSize=13;" parent="L_jksF-A3Jjh2h2nsNvG-16" vertex="1" connectable="0">
          <mxGeometry x="0.3701" y="3" relative="1" as="geometry">
            <mxPoint as="offset" />
          </mxGeometry>
        </mxCell>
        <mxCell id="L_jksF-A3Jjh2h2nsNvG-22" style="edgeStyle=orthogonalEdgeStyle;rounded=0;orthogonalLoop=1;jettySize=auto;html=1;entryX=1;entryY=0.5;entryDx=0;entryDy=0;exitX=0.5;exitY=1;exitDx=0;exitDy=0;sketch=1;curveFitting=1;jiggle=2;" parent="L_jksF-A3Jjh2h2nsNvG-12" source="L_jksF-A3Jjh2h2nsNvG-19" target="WIyWlLk6GJQsqaUBKTNV-11" edge="1">
          <mxGeometry relative="1" as="geometry">
            <mxPoint x="525" y="538" as="sourcePoint" />
            <mxPoint x="450" y="380" as="targetPoint" />
          </mxGeometry>
        </mxCell>
        <mxCell id="L_jksF-A3Jjh2h2nsNvG-19" value="Create an expert team to assess data to figure out the cause" style="rounded=1;whiteSpace=wrap;html=1;sketch=1;curveFitting=1;jiggle=2;fontFamily=Architects Daughter;fontSource=https%3A%2F%2Ffonts.googleapis.com%2Fcss%3Ffamily%3DArchitects%2BDaughter;" parent="L_jksF-A3Jjh2h2nsNvG-12" vertex="1">
          <mxGeometry x="500" y="530" width="120" height="60" as="geometry" />
        </mxCell>
        <mxCell id="L_jksF-A3Jjh2h2nsNvG-40" style="edgeStyle=orthogonalEdgeStyle;rounded=0;orthogonalLoop=1;jettySize=auto;html=1;sketch=1;curveFitting=1;jiggle=2;" parent="L_jksF-A3Jjh2h2nsNvG-12" source="L_jksF-A3Jjh2h2nsNvG-36" target="L_jksF-A3Jjh2h2nsNvG-38" edge="1">
          <mxGeometry relative="1" as="geometry" />
        </mxCell>
        <mxCell id="L_jksF-A3Jjh2h2nsNvG-36" value="Identify who has the power to take action ?" style="whiteSpace=wrap;html=1;shadow=0;strokeWidth=1;spacing=6;spacingTop=-4;fontFamily=Architects Daughter;fontSource=https%3A%2F%2Ffonts.googleapis.com%2Fcss%3Ffamily%3DArchitects%2BDaughter;sketch=1;curveFitting=1;jiggle=2;" parent="L_jksF-A3Jjh2h2nsNvG-12" vertex="1">
          <mxGeometry x="395.5" y="910" width="154.5" height="60" as="geometry" />
        </mxCell>
        <mxCell id="L_jksF-A3Jjh2h2nsNvG-38" value="Actor" style="shape=umlActor;verticalLabelPosition=bottom;verticalAlign=top;html=1;outlineConnect=0;labelBorderColor=default;sketch=1;curveFitting=1;jiggle=2;fontFamily=Architects Daughter;fontSource=https%3A%2F%2Ffonts.googleapis.com%2Fcss%3Ffamily%3DArchitects%2BDaughter;" parent="L_jksF-A3Jjh2h2nsNvG-12" vertex="1">
          <mxGeometry x="310" y="920" width="30" height="60" as="geometry" />
        </mxCell>
        <mxCell id="MVluI5JHM8mCgpgCiOip-49" style="edgeStyle=orthogonalEdgeStyle;rounded=0;sketch=1;hachureGap=4;jiggle=2;curveFitting=1;orthogonalLoop=1;jettySize=auto;html=1;fontFamily=Architects Daughter;fontSource=https%3A%2F%2Ffonts.googleapis.com%2Fcss%3Ffamily%3DArchitects%2BDaughter;fontSize=16;" edge="1" parent="L_jksF-A3Jjh2h2nsNvG-12" source="L_jksF-A3Jjh2h2nsNvG-36" target="MVluI5JHM8mCgpgCiOip-50">
          <mxGeometry relative="1" as="geometry" />
        </mxCell>
      </root>
    </mxGraphModel>
  </diagram>
  <diagram name="Worked Example of WQM-Decision-Tree" id="y302SAP_Yb9lhixObtny">
    <mxGraphModel dx="1391" dy="792" grid="1" gridSize="10" guides="1" tooltips="1" connect="1" arrows="1" fold="1" page="1" pageScale="1" pageWidth="827" pageHeight="1169" background="#ffffff" math="0" shadow="0">
      <root>
        <mxCell id="aWh0_txZF6k_S7zX-cxL-0" />
        <mxCell id="aWh0_txZF6k_S7zX-cxL-1" parent="aWh0_txZF6k_S7zX-cxL-0" />
        <mxCell id="aWh0_txZF6k_S7zX-cxL-2" style="edgeStyle=orthogonalEdgeStyle;rounded=0;orthogonalLoop=1;jettySize=auto;html=1;comic=0;sketch=1;curveFitting=1;jiggle=2;fontFamily=Architects Daughter;fontSource=https%3A%2F%2Ffonts.googleapis.com%2Fcss%3Ffamily%3DArchitects%2BDaughter;" parent="aWh0_txZF6k_S7zX-cxL-1" source="aWh0_txZF6k_S7zX-cxL-3" target="aWh0_txZF6k_S7zX-cxL-6" edge="1">
          <mxGeometry relative="1" as="geometry" />
        </mxCell>
        <mxCell id="aWh0_txZF6k_S7zX-cxL-3" value="What is the cause of the problem?" style="rounded=1;whiteSpace=wrap;html=1;fontSize=12;glass=0;strokeWidth=1;shadow=0;comic=0;sketch=1;curveFitting=1;jiggle=2;fontFamily=Architects Daughter;fontSource=https%3A%2F%2Ffonts.googleapis.com%2Fcss%3Ffamily%3DArchitects%2BDaughter;" parent="aWh0_txZF6k_S7zX-cxL-1" vertex="1">
          <mxGeometry x="340" y="260" width="120" height="50" as="geometry" />
        </mxCell>
        <mxCell id="aWh0_txZF6k_S7zX-cxL-4" value="Yes" style="rounded=0;html=1;jettySize=auto;orthogonalLoop=1;fontSize=13;endArrow=block;endFill=0;endSize=8;strokeWidth=1;shadow=0;labelBackgroundColor=none;edgeStyle=orthogonalEdgeStyle;entryX=0.5;entryY=0;entryDx=0;entryDy=0;comic=0;sketch=1;curveFitting=1;jiggle=2;fontFamily=Architects Daughter;fontSource=https%3A%2F%2Ffonts.googleapis.com%2Fcss%3Ffamily%3DArchitects%2BDaughter;" parent="aWh0_txZF6k_S7zX-cxL-1" source="aWh0_txZF6k_S7zX-cxL-6" target="aWh0_txZF6k_S7zX-cxL-10" edge="1">
          <mxGeometry x="-0.3924" y="20" relative="1" as="geometry">
            <mxPoint as="offset" />
          </mxGeometry>
        </mxCell>
        <mxCell id="aWh0_txZF6k_S7zX-cxL-5" value="No" style="edgeStyle=orthogonalEdgeStyle;rounded=0;html=1;jettySize=auto;orthogonalLoop=1;fontSize=13;endArrow=block;endFill=0;endSize=8;strokeWidth=1;shadow=0;labelBackgroundColor=none;entryX=0.5;entryY=0;entryDx=0;entryDy=0;entryPerimeter=0;comic=0;sketch=1;curveFitting=1;jiggle=2;fontFamily=Architects Daughter;fontSource=https%3A%2F%2Ffonts.googleapis.com%2Fcss%3Ffamily%3DArchitects%2BDaughter;" parent="aWh0_txZF6k_S7zX-cxL-1" source="aWh0_txZF6k_S7zX-cxL-6" target="aWh0_txZF6k_S7zX-cxL-72" edge="1">
          <mxGeometry y="10" relative="1" as="geometry">
            <mxPoint as="offset" />
            <mxPoint x="490" y="440" as="targetPoint" />
          </mxGeometry>
        </mxCell>
        <mxCell id="aWh0_txZF6k_S7zX-cxL-6" value="Is the cause known?" style="rhombus;whiteSpace=wrap;html=1;shadow=0;fontFamily=Architects Daughter;fontSize=12;align=center;strokeWidth=1;spacing=6;spacingTop=-4;comic=0;sketch=1;curveFitting=1;jiggle=2;fontSource=https%3A%2F%2Ffonts.googleapis.com%2Fcss%3Ffamily%3DArchitects%2BDaughter;" parent="aWh0_txZF6k_S7zX-cxL-1" vertex="1">
          <mxGeometry x="340" y="342" width="110" height="88" as="geometry" />
        </mxCell>
        <mxCell id="aWh0_txZF6k_S7zX-cxL-7" value="No" style="rounded=0;html=1;jettySize=auto;orthogonalLoop=1;fontSize=13;endArrow=block;endFill=0;endSize=8;strokeWidth=1;shadow=0;labelBackgroundColor=none;edgeStyle=orthogonalEdgeStyle;comic=0;sketch=1;curveFitting=1;jiggle=2;fontFamily=Architects Daughter;fontSource=https%3A%2F%2Ffonts.googleapis.com%2Fcss%3Ffamily%3DArchitects%2BDaughter;" parent="aWh0_txZF6k_S7zX-cxL-1" source="aWh0_txZF6k_S7zX-cxL-10" target="aWh0_txZF6k_S7zX-cxL-11" edge="1">
          <mxGeometry x="0.3333" y="20" relative="1" as="geometry">
            <mxPoint as="offset" />
          </mxGeometry>
        </mxCell>
        <mxCell id="aWh0_txZF6k_S7zX-cxL-8" value="" style="rounded=0;html=1;jettySize=auto;orthogonalLoop=1;fontSize=11;endArrow=block;endFill=0;endSize=8;strokeWidth=1;shadow=0;labelBackgroundColor=none;entryX=0.5;entryY=0;entryDx=0;entryDy=0;edgeStyle=orthogonalEdgeStyle;entryPerimeter=0;comic=0;sketch=1;curveFitting=1;jiggle=2;fontFamily=Architects Daughter;fontSource=https%3A%2F%2Ffonts.googleapis.com%2Fcss%3Ffamily%3DArchitects%2BDaughter;" parent="aWh0_txZF6k_S7zX-cxL-1" source="aWh0_txZF6k_S7zX-cxL-10" target="aWh0_txZF6k_S7zX-cxL-21" edge="1">
          <mxGeometry y="10" relative="1" as="geometry">
            <mxPoint as="offset" />
            <mxPoint x="175.5" y="680" as="targetPoint" />
          </mxGeometry>
        </mxCell>
        <mxCell id="aWh0_txZF6k_S7zX-cxL-9" value="Yes" style="edgeLabel;html=1;align=center;verticalAlign=middle;resizable=0;points=[];fontSize=13;comic=0;fontFamily=Architects Daughter;fontSource=https%3A%2F%2Ffonts.googleapis.com%2Fcss%3Ffamily%3DArchitects%2BDaughter;" parent="aWh0_txZF6k_S7zX-cxL-8" vertex="1" connectable="0">
          <mxGeometry x="-0.1367" y="3" relative="1" as="geometry">
            <mxPoint as="offset" />
          </mxGeometry>
        </mxCell>
        <mxCell id="aWh0_txZF6k_S7zX-cxL-10" value="Is the solution known?" style="rhombus;whiteSpace=wrap;html=1;shadow=0;fontFamily=Architects Daughter;fontSize=12;align=center;strokeWidth=1;spacing=6;spacingTop=-4;comic=0;sketch=1;curveFitting=1;jiggle=2;fontSource=https%3A%2F%2Ffonts.googleapis.com%2Fcss%3Ffamily%3DArchitects%2BDaughter;" parent="aWh0_txZF6k_S7zX-cxL-1" vertex="1">
          <mxGeometry x="110" y="410" width="110" height="101" as="geometry" />
        </mxCell>
        <mxCell id="aWh0_txZF6k_S7zX-cxL-11" value="Develop solution" style="rounded=1;whiteSpace=wrap;html=1;fontSize=12;glass=0;strokeWidth=1;shadow=0;comic=0;fontFamily=Architects Daughter;fontSource=https%3A%2F%2Ffonts.googleapis.com%2Fcss%3Ffamily%3DArchitects%2BDaughter;" parent="aWh0_txZF6k_S7zX-cxL-1" vertex="1">
          <mxGeometry x="280" y="530" width="120" height="40" as="geometry" />
        </mxCell>
        <mxCell id="aWh0_txZF6k_S7zX-cxL-12" style="edgeStyle=orthogonalEdgeStyle;rounded=0;orthogonalLoop=1;jettySize=auto;html=1;comic=0;sketch=1;curveFitting=1;jiggle=2;fontFamily=Architects Daughter;fontSource=https%3A%2F%2Ffonts.googleapis.com%2Fcss%3Ffamily%3DArchitects%2BDaughter;" parent="aWh0_txZF6k_S7zX-cxL-1" source="aWh0_txZF6k_S7zX-cxL-14" target="aWh0_txZF6k_S7zX-cxL-16" edge="1">
          <mxGeometry relative="1" as="geometry" />
        </mxCell>
        <mxCell id="aWh0_txZF6k_S7zX-cxL-13" value="We see a change in the state of water quality, pollution issue like fish kill" style="edgeLabel;html=1;align=center;verticalAlign=middle;resizable=0;points=[];fontSize=18;comic=0;fontFamily=Architects Daughter;fontSource=https%3A%2F%2Ffonts.googleapis.com%2Fcss%3Ffamily%3DArchitects%2BDaughter;" parent="aWh0_txZF6k_S7zX-cxL-12" vertex="1" connectable="0">
          <mxGeometry x="-0.2874" y="3" relative="1" as="geometry">
            <mxPoint x="89" y="-67" as="offset" />
          </mxGeometry>
        </mxCell>
        <mxCell id="aWh0_txZF6k_S7zX-cxL-14" value="User of the DSS" style="shape=umlActor;verticalLabelPosition=bottom;verticalAlign=top;html=1;outlineConnect=0;sketch=1;curveFitting=1;jiggle=2;comic=0;fontFamily=Architects Daughter;fontSource=https%3A%2F%2Ffonts.googleapis.com%2Fcss%3Ffamily%3DArchitects%2BDaughter;" parent="aWh0_txZF6k_S7zX-cxL-1" vertex="1">
          <mxGeometry x="150" y="140" width="30" height="60" as="geometry" />
        </mxCell>
        <mxCell id="aWh0_txZF6k_S7zX-cxL-15" style="edgeStyle=orthogonalEdgeStyle;rounded=0;orthogonalLoop=1;jettySize=auto;html=1;comic=0;sketch=1;curveFitting=1;jiggle=2;fontFamily=Architects Daughter;fontSource=https%3A%2F%2Ffonts.googleapis.com%2Fcss%3Ffamily%3DArchitects%2BDaughter;" parent="aWh0_txZF6k_S7zX-cxL-1" source="aWh0_txZF6k_S7zX-cxL-16" target="aWh0_txZF6k_S7zX-cxL-3" edge="1">
          <mxGeometry relative="1" as="geometry" />
        </mxCell>
        <mxCell id="aWh0_txZF6k_S7zX-cxL-16" value="Houston, we have a problem" style="strokeWidth=2;html=1;shape=mxgraph.flowchart.start_2;whiteSpace=wrap;sketch=1;curveFitting=1;jiggle=2;comic=0;fontFamily=Architects Daughter;fontSource=https%3A%2F%2Ffonts.googleapis.com%2Fcss%3Ffamily%3DArchitects%2BDaughter;" parent="aWh0_txZF6k_S7zX-cxL-1" vertex="1">
          <mxGeometry x="350" y="120" width="120" height="110" as="geometry" />
        </mxCell>
        <mxCell id="aWh0_txZF6k_S7zX-cxL-17" value="&lt;b&gt;Data Persuader: An app to&amp;nbsp; bring your data into action&amp;nbsp;&lt;/b&gt;" style="text;html=1;strokeColor=none;fillColor=none;align=center;verticalAlign=middle;whiteSpace=wrap;rounded=0;fontSize=22;comic=0;fontFamily=Architects Daughter;fontSource=https%3A%2F%2Ffonts.googleapis.com%2Fcss%3Ffamily%3DArchitects%2BDaughter;" parent="aWh0_txZF6k_S7zX-cxL-1" vertex="1">
          <mxGeometry x="160" y="30" width="530" height="30" as="geometry" />
        </mxCell>
        <mxCell id="aWh0_txZF6k_S7zX-cxL-18" value="Action is taken, problem solved" style="strokeWidth=2;html=1;shape=mxgraph.flowchart.terminator;whiteSpace=wrap;comic=0;fontFamily=Architects Daughter;fontSource=https%3A%2F%2Ffonts.googleapis.com%2Fcss%3Ffamily%3DArchitects%2BDaughter;sketch=1;curveFitting=1;jiggle=2;" parent="aWh0_txZF6k_S7zX-cxL-1" vertex="1">
          <mxGeometry x="300" y="1050" width="100" height="60" as="geometry" />
        </mxCell>
        <mxCell id="aWh0_txZF6k_S7zX-cxL-19" style="edgeStyle=orthogonalEdgeStyle;rounded=0;orthogonalLoop=1;jettySize=auto;html=1;entryX=0;entryY=0.5;entryDx=0;entryDy=0;comic=0;sketch=1;curveFitting=1;jiggle=2;fontFamily=Architects Daughter;fontSource=https%3A%2F%2Ffonts.googleapis.com%2Fcss%3Ffamily%3DArchitects%2BDaughter;" parent="aWh0_txZF6k_S7zX-cxL-1" source="aWh0_txZF6k_S7zX-cxL-21" target="aWh0_txZF6k_S7zX-cxL-25" edge="1">
          <mxGeometry relative="1" as="geometry" />
        </mxCell>
        <mxCell id="aWh0_txZF6k_S7zX-cxL-20" value="No" style="edgeLabel;html=1;align=center;verticalAlign=middle;resizable=0;points=[];comic=0;fontFamily=Architects Daughter;fontSource=https%3A%2F%2Ffonts.googleapis.com%2Fcss%3Ffamily%3DArchitects%2BDaughter;" parent="aWh0_txZF6k_S7zX-cxL-19" vertex="1" connectable="0">
          <mxGeometry x="-0.479" y="1" relative="1" as="geometry">
            <mxPoint as="offset" />
          </mxGeometry>
        </mxCell>
        <mxCell id="aWh0_txZF6k_S7zX-cxL-21" value="Has action been taken?" style="strokeWidth=2;html=1;shape=mxgraph.flowchart.decision;whiteSpace=wrap;comic=0;fontFamily=Architects Daughter;fontSource=https%3A%2F%2Ffonts.googleapis.com%2Fcss%3Ffamily%3DArchitects%2BDaughter;sketch=1;curveFitting=1;jiggle=2;" parent="aWh0_txZF6k_S7zX-cxL-1" vertex="1">
          <mxGeometry x="140" y="630" width="119" height="117" as="geometry" />
        </mxCell>
        <mxCell id="aWh0_txZF6k_S7zX-cxL-22" value="Problem solved" style="strokeWidth=2;html=1;shape=mxgraph.flowchart.terminator;whiteSpace=wrap;comic=0;fontFamily=Architects Daughter;fontSource=https%3A%2F%2Ffonts.googleapis.com%2Fcss%3Ffamily%3DArchitects%2BDaughter;sketch=1;curveFitting=1;jiggle=2;" parent="aWh0_txZF6k_S7zX-cxL-1" vertex="1">
          <mxGeometry x="30" y="760" width="100" height="60" as="geometry" />
        </mxCell>
        <mxCell id="aWh0_txZF6k_S7zX-cxL-23" style="edgeStyle=orthogonalEdgeStyle;rounded=0;orthogonalLoop=1;jettySize=auto;html=1;entryX=0.417;entryY=-0.054;entryDx=0;entryDy=0;entryPerimeter=0;comic=0;sketch=1;curveFitting=1;jiggle=2;fontFamily=Architects Daughter;fontSource=https%3A%2F%2Ffonts.googleapis.com%2Fcss%3Ffamily%3DArchitects%2BDaughter;" parent="aWh0_txZF6k_S7zX-cxL-1" source="aWh0_txZF6k_S7zX-cxL-21" target="aWh0_txZF6k_S7zX-cxL-22" edge="1">
          <mxGeometry relative="1" as="geometry" />
        </mxCell>
        <mxCell id="aWh0_txZF6k_S7zX-cxL-24" value="yes" style="edgeLabel;html=1;align=center;verticalAlign=middle;resizable=0;points=[];comic=0;fontFamily=Architects Daughter;fontSource=https%3A%2F%2Ffonts.googleapis.com%2Fcss%3Ffamily%3DArchitects%2BDaughter;" parent="aWh0_txZF6k_S7zX-cxL-23" vertex="1" connectable="0">
          <mxGeometry x="0.564" y="1" relative="1" as="geometry">
            <mxPoint as="offset" />
          </mxGeometry>
        </mxCell>
        <mxCell id="aWh0_txZF6k_S7zX-cxL-25" value="Identify why there hasn&#39;t been any action ?" style="whiteSpace=wrap;html=1;shadow=0;strokeWidth=1;spacing=6;spacingTop=-4;comic=0;fontFamily=Architects Daughter;fontSource=https%3A%2F%2Ffonts.googleapis.com%2Fcss%3Ffamily%3DArchitects%2BDaughter;sketch=1;curveFitting=1;jiggle=2;" parent="aWh0_txZF6k_S7zX-cxL-1" vertex="1">
          <mxGeometry x="317.75" y="735" width="154.5" height="60" as="geometry" />
        </mxCell>
        <mxCell id="aWh0_txZF6k_S7zX-cxL-26" style="edgeStyle=orthogonalEdgeStyle;rounded=0;orthogonalLoop=1;jettySize=auto;html=1;exitX=0.452;exitY=1.026;exitDx=0;exitDy=0;exitPerimeter=0;comic=0;sketch=1;curveFitting=1;jiggle=2;fontFamily=Architects Daughter;fontSource=https%3A%2F%2Ffonts.googleapis.com%2Fcss%3Ffamily%3DArchitects%2BDaughter;" parent="aWh0_txZF6k_S7zX-cxL-1" source="aWh0_txZF6k_S7zX-cxL-25" target="aWh0_txZF6k_S7zX-cxL-80" edge="1">
          <mxGeometry relative="1" as="geometry">
            <mxPoint x="569.7" y="1031.42" as="targetPoint" />
          </mxGeometry>
        </mxCell>
        <mxCell id="aWh0_txZF6k_S7zX-cxL-27" value="" style="edgeStyle=orthogonalEdgeStyle;rounded=0;orthogonalLoop=1;jettySize=auto;html=1;entryX=0;entryY=0.5;entryDx=0;entryDy=0;entryPerimeter=0;fontFamily=Architects Daughter;fontSource=https%3A%2F%2Ffonts.googleapis.com%2Fcss%3Ffamily%3DArchitects%2BDaughter;" parent="aWh0_txZF6k_S7zX-cxL-1" edge="1">
          <mxGeometry relative="1" as="geometry">
            <mxPoint x="630" y="840" as="sourcePoint" />
            <mxPoint x="710" y="915" as="targetPoint" />
          </mxGeometry>
        </mxCell>
        <mxCell id="aWh0_txZF6k_S7zX-cxL-28" value="How do you persuade actor to take action?" style="whiteSpace=wrap;html=1;strokeWidth=2;comic=0;fontFamily=Architects Daughter;fontSource=https%3A%2F%2Ffonts.googleapis.com%2Fcss%3Ffamily%3DArchitects%2BDaughter;sketch=1;curveFitting=1;jiggle=2;" parent="aWh0_txZF6k_S7zX-cxL-1" vertex="1">
          <mxGeometry x="460" y="1080" width="120" height="60" as="geometry" />
        </mxCell>
        <mxCell id="aWh0_txZF6k_S7zX-cxL-29" style="edgeStyle=orthogonalEdgeStyle;rounded=0;sketch=1;hachureGap=4;jiggle=2;curveFitting=1;orthogonalLoop=1;jettySize=auto;html=1;fontFamily=Architects Daughter;fontSource=https%3A%2F%2Ffonts.googleapis.com%2Fcss%3Ffamily%3DArchitects%2BDaughter;fontSize=16;dashed=1;dashPattern=8 8;entryX=1;entryY=0.5;entryDx=0;entryDy=0;comic=0;" parent="aWh0_txZF6k_S7zX-cxL-1" source="aWh0_txZF6k_S7zX-cxL-30" target="aWh0_txZF6k_S7zX-cxL-80" edge="1">
          <mxGeometry relative="1" as="geometry">
            <mxPoint x="560" y="930" as="targetPoint" />
          </mxGeometry>
        </mxCell>
        <mxCell id="aWh0_txZF6k_S7zX-cxL-30" value="" style="strokeWidth=2;html=1;shape=mxgraph.flowchart.annotation_2;align=left;labelPosition=right;pointerEvents=1;sketch=1;hachureGap=4;jiggle=2;curveFitting=1;fontFamily=Architects Daughter;fontSource=https%3A%2F%2Ffonts.googleapis.com%2Fcss%3Ffamily%3DArchitects%2BDaughter;fontSize=20;dashed=1;comic=0;" parent="aWh0_txZF6k_S7zX-cxL-1" vertex="1">
          <mxGeometry x="712" y="940" width="50" height="100" as="geometry" />
        </mxCell>
        <mxCell id="aWh0_txZF6k_S7zX-cxL-31" value="" style="group;comic=0;fontFamily=Architects Daughter;fontSource=https%3A%2F%2Ffonts.googleapis.com%2Fcss%3Ffamily%3DArchitects%2BDaughter;sketch=1;curveFitting=1;jiggle=2;" parent="aWh0_txZF6k_S7zX-cxL-1" vertex="1" connectable="0">
          <mxGeometry x="760" y="941" width="216.13" height="100" as="geometry" />
        </mxCell>
        <mxCell id="aWh0_txZF6k_S7zX-cxL-32" value="Government" style="whiteSpace=wrap;html=1;shadow=0;strokeWidth=1;spacing=6;spacingTop=-4;comic=0;fontFamily=Architects Daughter;fontSource=https%3A%2F%2Ffonts.googleapis.com%2Fcss%3Ffamily%3DArchitects%2BDaughter;" parent="aWh0_txZF6k_S7zX-cxL-31" vertex="1">
          <mxGeometry width="76.13" height="50" as="geometry" />
        </mxCell>
        <mxCell id="aWh0_txZF6k_S7zX-cxL-33" value="Watershed Orgs" style="whiteSpace=wrap;html=1;shadow=0;strokeWidth=1;spacing=6;spacingTop=-4;comic=0;fontFamily=Architects Daughter;fontSource=https%3A%2F%2Ffonts.googleapis.com%2Fcss%3Ffamily%3DArchitects%2BDaughter;" parent="aWh0_txZF6k_S7zX-cxL-31" vertex="1">
          <mxGeometry x="76.13" width="70" height="50" as="geometry" />
        </mxCell>
        <mxCell id="aWh0_txZF6k_S7zX-cxL-34" value="Individuals" style="whiteSpace=wrap;html=1;shadow=0;strokeWidth=1;spacing=6;spacingTop=-4;comic=0;fontFamily=Architects Daughter;fontSource=https%3A%2F%2Ffonts.googleapis.com%2Fcss%3Ffamily%3DArchitects%2BDaughter;" parent="aWh0_txZF6k_S7zX-cxL-31" vertex="1">
          <mxGeometry x="146.13" width="70" height="50" as="geometry" />
        </mxCell>
        <mxCell id="aWh0_txZF6k_S7zX-cxL-35" value="Industries" style="whiteSpace=wrap;html=1;shadow=0;strokeWidth=1;spacing=6;spacingTop=-4;comic=0;fontFamily=Architects Daughter;fontSource=https%3A%2F%2Ffonts.googleapis.com%2Fcss%3Ffamily%3DArchitects%2BDaughter;" parent="aWh0_txZF6k_S7zX-cxL-31" vertex="1">
          <mxGeometry x="40" y="50" width="70" height="50" as="geometry" />
        </mxCell>
        <mxCell id="aWh0_txZF6k_S7zX-cxL-36" value="Community" style="whiteSpace=wrap;html=1;shadow=0;strokeWidth=1;spacing=6;spacingTop=-4;comic=0;fontFamily=Architects Daughter;fontSource=https%3A%2F%2Ffonts.googleapis.com%2Fcss%3Ffamily%3DArchitects%2BDaughter;" parent="aWh0_txZF6k_S7zX-cxL-31" vertex="1">
          <mxGeometry x="112" y="50" width="70" height="50" as="geometry" />
        </mxCell>
        <mxCell id="aWh0_txZF6k_S7zX-cxL-37" style="edgeStyle=orthogonalEdgeStyle;rounded=0;sketch=1;hachureGap=4;jiggle=2;curveFitting=1;orthogonalLoop=1;jettySize=auto;html=1;entryX=1;entryY=0.5;entryDx=0;entryDy=0;entryPerimeter=0;fontFamily=Architects Daughter;fontSource=https%3A%2F%2Ffonts.googleapis.com%2Fcss%3Ffamily%3DArchitects%2BDaughter;fontSize=16;comic=0;" parent="aWh0_txZF6k_S7zX-cxL-1" source="aWh0_txZF6k_S7zX-cxL-28" target="aWh0_txZF6k_S7zX-cxL-18" edge="1">
          <mxGeometry relative="1" as="geometry" />
        </mxCell>
        <mxCell id="aWh0_txZF6k_S7zX-cxL-38" style="edgeStyle=orthogonalEdgeStyle;rounded=0;sketch=1;hachureGap=4;jiggle=2;curveFitting=1;orthogonalLoop=1;jettySize=auto;html=1;entryX=1;entryY=0.5;entryDx=0;entryDy=0;fontFamily=Architects Daughter;fontSource=https%3A%2F%2Ffonts.googleapis.com%2Fcss%3Ffamily%3DArchitects%2BDaughter;fontSize=16;dashed=1;comic=0;" parent="aWh0_txZF6k_S7zX-cxL-1" source="aWh0_txZF6k_S7zX-cxL-39" target="aWh0_txZF6k_S7zX-cxL-25" edge="1">
          <mxGeometry relative="1" as="geometry" />
        </mxCell>
        <mxCell id="aWh0_txZF6k_S7zX-cxL-39" value="Causes of inaction" style="swimlane;whiteSpace=wrap;html=1;sketch=1;hachureGap=4;jiggle=2;curveFitting=1;fontFamily=Architects Daughter;fontSource=https%3A%2F%2Ffonts.googleapis.com%2Fcss%3Ffamily%3DArchitects%2BDaughter;fontSize=20;fillColor=#dae8fc;strokeColor=#6c8ebf;comic=0;" parent="aWh0_txZF6k_S7zX-cxL-1" vertex="1">
          <mxGeometry x="570" y="630" width="500.06" height="270" as="geometry" />
        </mxCell>
        <mxCell id="aWh0_txZF6k_S7zX-cxL-40" value="Social sources/factors" style="whiteSpace=wrap;html=1;shadow=0;strokeWidth=1;spacing=6;spacingTop=-4;fillColor=#e1d5e7;strokeColor=#9673a6;comic=0;fontFamily=Architects Daughter;fontSource=https%3A%2F%2Ffonts.googleapis.com%2Fcss%3Ffamily%3DArchitects%2BDaughter;" parent="aWh0_txZF6k_S7zX-cxL-39" vertex="1">
          <mxGeometry x="260.05999999999995" y="39.99666666666667" width="120" height="50" as="geometry" />
        </mxCell>
        <mxCell id="aWh0_txZF6k_S7zX-cxL-41" value="Political sources/factors" style="whiteSpace=wrap;html=1;shadow=0;strokeWidth=1;spacing=6;spacingTop=-4;fillColor=#f8cecc;strokeColor=#b85450;comic=0;fontFamily=Architects Daughter;fontSource=https%3A%2F%2Ffonts.googleapis.com%2Fcss%3Ffamily%3DArchitects%2BDaughter;" parent="aWh0_txZF6k_S7zX-cxL-39" vertex="1">
          <mxGeometry x="130" y="39.99666666666667" width="120" height="50" as="geometry" />
        </mxCell>
        <mxCell id="aWh0_txZF6k_S7zX-cxL-42" value="Technological sources/factors" style="whiteSpace=wrap;html=1;shadow=0;strokeWidth=1;spacing=6;spacingTop=-4;fillColor=#dae8fc;strokeColor=#6c8ebf;comic=0;fontFamily=Architects Daughter;fontSource=https%3A%2F%2Ffonts.googleapis.com%2Fcss%3Ffamily%3DArchitects%2BDaughter;" parent="aWh0_txZF6k_S7zX-cxL-39" vertex="1">
          <mxGeometry x="380.05999999999995" y="39.99666666666667" width="120" height="50" as="geometry" />
        </mxCell>
        <mxCell id="aWh0_txZF6k_S7zX-cxL-43" value="Environmental sources/factors" style="whiteSpace=wrap;html=1;shadow=0;strokeWidth=1;spacing=6;spacingTop=-4;fillColor=#d5e8d4;strokeColor=#82b366;comic=0;fontFamily=Architects Daughter;fontSource=https%3A%2F%2Ffonts.googleapis.com%2Fcss%3Ffamily%3DArchitects%2BDaughter;" parent="aWh0_txZF6k_S7zX-cxL-39" vertex="1">
          <mxGeometry y="39.99666666666667" width="120" height="50" as="geometry" />
        </mxCell>
        <mxCell id="aWh0_txZF6k_S7zX-cxL-44" value="No regulation" style="whiteSpace=wrap;html=1;shadow=0;strokeWidth=1;spacing=6;spacingTop=-4;fillColor=#f8cecc;strokeColor=#b85450;comic=0;fontFamily=Architects Daughter;fontSource=https%3A%2F%2Ffonts.googleapis.com%2Fcss%3Ffamily%3DArchitects%2BDaughter;" parent="aWh0_txZF6k_S7zX-cxL-39" vertex="1">
          <mxGeometry x="120" y="130" width="76.13" height="50" as="geometry" />
        </mxCell>
        <mxCell id="aWh0_txZF6k_S7zX-cxL-45" value="Lack of awareness" style="whiteSpace=wrap;html=1;shadow=0;strokeWidth=1;spacing=6;spacingTop=-4;fillColor=#e1d5e7;strokeColor=#9673a6;comic=0;fontFamily=Architects Daughter;fontSource=https%3A%2F%2Ffonts.googleapis.com%2Fcss%3Ffamily%3DArchitects%2BDaughter;" parent="aWh0_txZF6k_S7zX-cxL-39" vertex="1">
          <mxGeometry x="280" y="110" width="70" height="50" as="geometry" />
        </mxCell>
        <mxCell id="aWh0_txZF6k_S7zX-cxL-46" value="Lack of resources" style="whiteSpace=wrap;html=1;shadow=0;strokeWidth=1;spacing=6;spacingTop=-4;fillColor=#dae8fc;strokeColor=#6c8ebf;comic=0;fontFamily=Architects Daughter;fontSource=https%3A%2F%2Ffonts.googleapis.com%2Fcss%3Ffamily%3DArchitects%2BDaughter;" parent="aWh0_txZF6k_S7zX-cxL-39" vertex="1">
          <mxGeometry x="400" y="110" width="70" height="50" as="geometry" />
        </mxCell>
        <mxCell id="aWh0_txZF6k_S7zX-cxL-47" value="Opposition to action" style="whiteSpace=wrap;html=1;shadow=0;strokeWidth=1;spacing=6;spacingTop=-4;fillColor=#f8cecc;strokeColor=#b85450;comic=0;fontFamily=Architects Daughter;fontSource=https%3A%2F%2Ffonts.googleapis.com%2Fcss%3Ffamily%3DArchitects%2BDaughter;" parent="aWh0_txZF6k_S7zX-cxL-39" vertex="1">
          <mxGeometry x="170" y="190" width="70" height="50" as="geometry" />
        </mxCell>
        <mxCell id="aWh0_txZF6k_S7zX-cxL-48" value="No voice" style="whiteSpace=wrap;html=1;shadow=0;strokeWidth=1;spacing=6;spacingTop=-4;fillColor=#e1d5e7;strokeColor=#9673a6;comic=0;fontFamily=Architects Daughter;fontSource=https%3A%2F%2Ffonts.googleapis.com%2Fcss%3Ffamily%3DArchitects%2BDaughter;" parent="aWh0_txZF6k_S7zX-cxL-39" vertex="1">
          <mxGeometry x="285.06" y="171" width="70" height="50" as="geometry" />
        </mxCell>
        <mxCell id="aWh0_txZF6k_S7zX-cxL-49" value="Lack of resources" style="whiteSpace=wrap;html=1;shadow=0;strokeWidth=1;spacing=6;spacingTop=-4;fillColor=#f8cecc;strokeColor=#b85450;comic=0;fontFamily=Architects Daughter;fontSource=https%3A%2F%2Ffonts.googleapis.com%2Fcss%3Ffamily%3DArchitects%2BDaughter;" parent="aWh0_txZF6k_S7zX-cxL-39" vertex="1">
          <mxGeometry x="187" y="95" width="70" height="50" as="geometry" />
        </mxCell>
        <mxCell id="aWh0_txZF6k_S7zX-cxL-50" value="Other priorities" style="whiteSpace=wrap;html=1;shadow=0;strokeWidth=1;spacing=6;spacingTop=-4;fillColor=#f8cecc;strokeColor=#b85450;comic=0;fontFamily=Architects Daughter;fontSource=https%3A%2F%2Ffonts.googleapis.com%2Fcss%3Ffamily%3DArchitects%2BDaughter;" parent="aWh0_txZF6k_S7zX-cxL-39" vertex="1">
          <mxGeometry x="100" y="210" width="70" height="50" as="geometry" />
        </mxCell>
        <mxCell id="aWh0_txZF6k_S7zX-cxL-51" style="edgeStyle=orthogonalEdgeStyle;rounded=0;sketch=1;hachureGap=4;jiggle=2;curveFitting=1;orthogonalLoop=1;jettySize=auto;html=1;entryX=0.5;entryY=0;entryDx=0;entryDy=0;entryPerimeter=0;fontFamily=Architects Daughter;fontSource=https%3A%2F%2Ffonts.googleapis.com%2Fcss%3Ffamily%3DArchitects%2BDaughter;fontSize=16;comic=0;" parent="aWh0_txZF6k_S7zX-cxL-1" source="aWh0_txZF6k_S7zX-cxL-11" target="aWh0_txZF6k_S7zX-cxL-21" edge="1">
          <mxGeometry relative="1" as="geometry" />
        </mxCell>
        <mxCell id="aWh0_txZF6k_S7zX-cxL-52" style="edgeStyle=orthogonalEdgeStyle;rounded=0;sketch=1;hachureGap=4;jiggle=2;curveFitting=1;orthogonalLoop=1;jettySize=auto;html=1;entryX=1.014;entryY=0.659;entryDx=0;entryDy=0;entryPerimeter=0;fontFamily=Architects Daughter;fontSource=https%3A%2F%2Ffonts.googleapis.com%2Fcss%3Ffamily%3DArchitects%2BDaughter;fontSize=16;comic=0;" parent="aWh0_txZF6k_S7zX-cxL-1" source="aWh0_txZF6k_S7zX-cxL-69" target="aWh0_txZF6k_S7zX-cxL-16" edge="1">
          <mxGeometry relative="1" as="geometry" />
        </mxCell>
        <mxCell id="aWh0_txZF6k_S7zX-cxL-53" value="Practitioner" style="text;html=1;strokeColor=none;fillColor=none;align=center;verticalAlign=middle;whiteSpace=wrap;rounded=0;fontSize=20;fontFamily=Architects Daughter;comic=0;fontSource=https%3A%2F%2Ffonts.googleapis.com%2Fcss%3Ffamily%3DArchitects%2BDaughter;" parent="aWh0_txZF6k_S7zX-cxL-1" vertex="1">
          <mxGeometry x="60" y="150" width="60" height="30" as="geometry" />
        </mxCell>
        <mxCell id="aWh0_txZF6k_S7zX-cxL-54" value="can take a looong time" style="text;html=1;strokeColor=none;fillColor=none;align=center;verticalAlign=middle;whiteSpace=wrap;rounded=0;fontSize=20;fontFamily=Architects Daughter;comic=0;fontSource=https%3A%2F%2Ffonts.googleapis.com%2Fcss%3Ffamily%3DArchitects%2BDaughter;" parent="aWh0_txZF6k_S7zX-cxL-1" vertex="1">
          <mxGeometry x="630" y="550" width="60" height="30" as="geometry" />
        </mxCell>
        <mxCell id="aWh0_txZF6k_S7zX-cxL-55" value="Concrete recommendations" style="whiteSpace=wrap;html=1;shadow=0;strokeWidth=1;spacing=6;spacingTop=-4;comic=0;fontFamily=Architects Daughter;fontSource=https%3A%2F%2Ffonts.googleapis.com%2Fcss%3Ffamily%3DArchitects%2BDaughter;" parent="aWh0_txZF6k_S7zX-cxL-1" vertex="1">
          <mxGeometry x="950" y="1110" width="110" height="50" as="geometry" />
        </mxCell>
        <mxCell id="aWh0_txZF6k_S7zX-cxL-56" value="From Problem to Data" style="text;html=1;strokeColor=none;fillColor=none;align=center;verticalAlign=middle;whiteSpace=wrap;rounded=0;fontSize=20;fontFamily=Architects Daughter;fontSource=https%3A%2F%2Ffonts.googleapis.com%2Fcss%3Ffamily%3DArchitects%2BDaughter;" parent="aWh0_txZF6k_S7zX-cxL-1" vertex="1">
          <mxGeometry x="110" y="290" width="60" height="30" as="geometry" />
        </mxCell>
        <mxCell id="aWh0_txZF6k_S7zX-cxL-57" value="From Data to Solution" style="text;html=1;strokeColor=none;fillColor=none;align=center;verticalAlign=middle;whiteSpace=wrap;rounded=0;fontSize=20;fontFamily=Architects Daughter;fontSource=https%3A%2F%2Ffonts.googleapis.com%2Fcss%3Ffamily%3DArchitects%2BDaughter;" parent="aWh0_txZF6k_S7zX-cxL-1" vertex="1">
          <mxGeometry x="762" y="330" width="60" height="30" as="geometry" />
        </mxCell>
        <mxCell id="aWh0_txZF6k_S7zX-cxL-58" value="From Solution to action" style="text;html=1;strokeColor=none;fillColor=none;align=center;verticalAlign=middle;whiteSpace=wrap;rounded=0;fontSize=20;fontFamily=Architects Daughter;fontSource=https%3A%2F%2Ffonts.googleapis.com%2Fcss%3Ffamily%3DArchitects%2BDaughter;" parent="aWh0_txZF6k_S7zX-cxL-1" vertex="1">
          <mxGeometry x="50" y="590" width="60" height="30" as="geometry" />
        </mxCell>
        <mxCell id="aWh0_txZF6k_S7zX-cxL-59" style="edgeStyle=orthogonalEdgeStyle;rounded=0;sketch=1;hachureGap=4;jiggle=2;curveFitting=1;orthogonalLoop=1;jettySize=auto;html=1;fontFamily=Architects Daughter;fontSource=https%3A%2F%2Ffonts.googleapis.com%2Fcss%3Ffamily%3DArchitects%2BDaughter;fontSize=16;dashed=1;dashPattern=8 8;fontStyle=1;comic=0;" parent="aWh0_txZF6k_S7zX-cxL-1" source="aWh0_txZF6k_S7zX-cxL-60" edge="1">
          <mxGeometry relative="1" as="geometry">
            <mxPoint x="580" y="1128" as="targetPoint" />
          </mxGeometry>
        </mxCell>
        <mxCell id="aWh0_txZF6k_S7zX-cxL-60" value="" style="strokeWidth=2;html=1;shape=mxgraph.flowchart.annotation_2;align=left;labelPosition=right;pointerEvents=1;sketch=1;hachureGap=4;jiggle=2;curveFitting=1;fontFamily=Architects Daughter;fontSource=https%3A%2F%2Ffonts.googleapis.com%2Fcss%3Ffamily%3DArchitects%2BDaughter;fontSize=20;dashed=1;fontStyle=1;comic=0;" parent="aWh0_txZF6k_S7zX-cxL-1" vertex="1">
          <mxGeometry x="702" y="1058" width="50" height="100" as="geometry" />
        </mxCell>
        <mxCell id="aWh0_txZF6k_S7zX-cxL-61" value="" style="group;fontStyle=1;comic=0;fontFamily=Architects Daughter;fontSource=https%3A%2F%2Ffonts.googleapis.com%2Fcss%3Ffamily%3DArchitects%2BDaughter;" parent="aWh0_txZF6k_S7zX-cxL-1" vertex="1" connectable="0">
          <mxGeometry x="750" y="1059" width="216.13" height="110" as="geometry" />
        </mxCell>
        <mxCell id="aWh0_txZF6k_S7zX-cxL-62" value="Benchmarking" style="whiteSpace=wrap;html=1;shadow=0;strokeWidth=1;spacing=6;spacingTop=-4;comic=0;fontFamily=Architects Daughter;fontSource=https%3A%2F%2Ffonts.googleapis.com%2Fcss%3Ffamily%3DArchitects%2BDaughter;" parent="aWh0_txZF6k_S7zX-cxL-61" vertex="1">
          <mxGeometry width="76.13" height="50" as="geometry" />
        </mxCell>
        <mxCell id="aWh0_txZF6k_S7zX-cxL-63" value="Storytelling" style="whiteSpace=wrap;html=1;shadow=0;strokeWidth=1;spacing=6;spacingTop=-4;comic=0;fontFamily=Architects Daughter;fontSource=https%3A%2F%2Ffonts.googleapis.com%2Fcss%3Ffamily%3DArchitects%2BDaughter;" parent="aWh0_txZF6k_S7zX-cxL-61" vertex="1">
          <mxGeometry x="76.13" width="70" height="50" as="geometry" />
        </mxCell>
        <mxCell id="aWh0_txZF6k_S7zX-cxL-64" value="Costs of Inaction" style="whiteSpace=wrap;html=1;shadow=0;strokeWidth=1;spacing=6;spacingTop=-4;comic=0;fontFamily=Architects Daughter;fontSource=https%3A%2F%2Ffonts.googleapis.com%2Fcss%3Ffamily%3DArchitects%2BDaughter;" parent="aWh0_txZF6k_S7zX-cxL-61" vertex="1">
          <mxGeometry x="146.13" width="70" height="50" as="geometry" />
        </mxCell>
        <mxCell id="aWh0_txZF6k_S7zX-cxL-65" value="Scenarios (past, present, future)" style="whiteSpace=wrap;html=1;shadow=0;strokeWidth=1;spacing=6;spacingTop=-4;comic=0;fontFamily=Architects Daughter;fontSource=https%3A%2F%2Ffonts.googleapis.com%2Fcss%3Ffamily%3DArchitects%2BDaughter;" parent="aWh0_txZF6k_S7zX-cxL-61" vertex="1">
          <mxGeometry x="40" y="50" width="70" height="60" as="geometry" />
        </mxCell>
        <mxCell id="aWh0_txZF6k_S7zX-cxL-66" value="Data viz" style="whiteSpace=wrap;html=1;shadow=0;strokeWidth=1;spacing=6;spacingTop=-4;comic=0;fontFamily=Architects Daughter;fontSource=https%3A%2F%2Ffonts.googleapis.com%2Fcss%3Ffamily%3DArchitects%2BDaughter;" parent="aWh0_txZF6k_S7zX-cxL-61" vertex="1">
          <mxGeometry x="112" y="50" width="70" height="50" as="geometry" />
        </mxCell>
        <mxCell id="aWh0_txZF6k_S7zX-cxL-67" value="The toolbox" style="text;html=1;strokeColor=none;fillColor=none;align=center;verticalAlign=middle;whiteSpace=wrap;rounded=0;fontSize=20;fontFamily=Architects Daughter;comic=0;fontSource=https%3A%2F%2Ffonts.googleapis.com%2Fcss%3Ffamily%3DArchitects%2BDaughter;" parent="aWh0_txZF6k_S7zX-cxL-1" vertex="1">
          <mxGeometry x="642" y="1059" width="60" height="30" as="geometry" />
        </mxCell>
        <mxCell id="5d8S1l1wgxhSIqwadba9-0" value="What are the conditions to make these tools work?" style="text;html=1;strokeColor=none;fillColor=none;align=center;verticalAlign=middle;whiteSpace=wrap;rounded=0;fontSize=20;fontFamily=Architects Daughter;fontSource=https%3A%2F%2Ffonts.googleapis.com%2Fcss%3Ffamily%3DArchitects%2BDaughter;" parent="aWh0_txZF6k_S7zX-cxL-1" vertex="1">
          <mxGeometry x="1070.06" y="1020" width="159.94" height="80" as="geometry" />
        </mxCell>
        <mxCell id="aWh0_txZF6k_S7zX-cxL-68" value="Image" parent="aWh0_txZF6k_S7zX-cxL-0" />
        <mxCell id="aWh0_txZF6k_S7zX-cxL-69" value="" style="shape=image;verticalLabelPosition=bottom;labelBackgroundColor=default;verticalAlign=top;aspect=fixed;imageAspect=0;image=data:image/webp,UklGRvKxAABXRUJQVlA4WAoAAAAIAAAA8wEAOwEAVlA4IBKxAADwvwGdASr0ATwBPmkqj0WkIqEZbT3cQAaEps4g4ROdbsFFQHCF4TM/z/N/7K9sZjuvD4fyRPc+/r/4PWZ/hfUX/vfpS9NfmZ/dL1iPTf/fPUK/of+z9cT1f/8V/6/Yw8531jP73/6v3P9sn1APXX4VfyOfNv43/RflF5o+On2V+2/5v/wf3r2wf9T/L+ELpb/uf5z1D/mH4B/f/3r/Oe9r+Z/7/+f8W/jh/w+oL+bf1j/j/4X1ovuP/T2+O9/639s/YI97/uX/c/yvqN/Qf9n/I+p361/hv+p/m/8n+032A/z7+xf87/Ae1X/B8H38N/t//b/q/gB/ov99/9f+g/1P7t/Tj/g//b/aeff9c/1n/0/13wGf0P/C/+X/Oe3b///+r8Nv3d////i+Hb90P/+JB58WfJjeU7kKUbvE8URl/mYdXopJL0K2bZz5Ai4wslPFXWmv46rx431GXGyxbqk9GsSyQYkMswDvsWqXw29O+oALrP9Lz7FWzk/EJiOQ06r55otri5fxSCrfg6lDxT9jOuNIGxEKgnpKJCGA7gwBVMXF30u7lnVPvPrC2rRZckeuhod7ZJ3vM+0pXzZs0vnXLglJkPjZOCQRp0nOqf3HB0JKE4Aqgd+5RbIY9a8SFETQ7GPEzUuMr5mfGJpKIbR9iMFoAjGQcsoGCldNVFkSihLAZP0/84NJ3ReKvoVCPrN+3X9h6CaHhNOODm5dOBV/aRLT7Lnnunh7oDhVUHgFEaLM25XKlQ2jUCpjnqwKkXxy7u/bFKKxvLhNkUjeyJiNmTnxDv1S1uQmISmeMKypoWfzgeKlwWITkVbpfz41+c2FW+DTDHIwf0ELO0MCI817hZWvkr6mfE3TsHT78PtPEvqZ23UVtftuRucfxgYAuEnOCx0xD3MH9fxmFH8t+ezQf6+ulW62Eo4HKaiTYjEpw7ZIVY7aAablQno+3ftCMihXPMI2rVuvEHxDxAIIk3hQvWIEIua33ZHpfiCtXU59Enqy8si+KUDiJnvYu9Pfc6iNkS4zb8xE17IJWjGHKZEXpYoFP2MMD6MRxVZVrSs9VB1xTshQWN3YU9T293y2l41EoBxN9ha7DDmnb09y58HEPHCeoTsaPZJ7eX8AvIHwcE1BYQC6JLKzg3/7sVX31cycBFd/8FpbnHuodVEhRVdslakCv90NYJW9moBEEnrRE/LbsXG9G5+xlGMY7N8vPLui6Ux1MPE2wtVxy8x6F1cDHaoYxsWbWMsuhtWxMgo0rtLQZXDQfUtpcvr96tRJCT9RLSa/jJhK+Iyi8cUAye6jZVAPQhNdUGHXtQxmBuJ0PxBTfoF+Ga88MHbBjbcViHbe30qVEN73YSuOWQbSS/Gdz7pcaqO6DmFVBlqwevoIuK8uXrRmbs5rRU1Lrk8G77K//vnbHIRQlytKITFBZA1GCaG8/Fj3jlohZioOo7mCcYifVv9pO86IEuRwH9w0XCRGSp6NPkyK4KNHmurwoZjESijL8Xrd2bSXWeu4lLxiatEereCU7nQuzCuqRMOMdJd1anVa8zn3wTD7YfQ9HvcrJW3RPJTSznh19xz06f3mZclfnVMwWC2Y6Jw/e/PGHWnMInSIC/34SZ3xVqzIdZ1lQe9JK9zjzCWsjx3tg2il5rWJDHoyh7NEWckG/EaobF3G7d8o9eOlFFYiI8UYdd4z3xeFocYX1NcZ2dPVtVqvBDUNv5k4/HkdcxFTr+DsoND+x+UJVKDDN29yfpq6ClTYbYL3u3fjHN0sjiqRNgk4vU7565e/BCce3b3HTt+08kVod6CkfQxfJJAuKHNRKfW2CDFYXHzPDDbJs0K/6aZcH74wH+e+OCoK0wPLLd7ThCUpfb8dVCo9vk1q+eDaHtq11m6wssGrCXkMjVKVLSB4QPjekj2p1Px5ezNkYjjj6I7f+P1pfqmESPtQVU78tLFTa22ejnyRunJzXn7nV1tjBL+23potMVlmVJm+4SwpAMG+ANQZqecqRIMI8wyPYC7fywpkCb/YImKGJb4lHw6b5lSkZFzc1fsVWoLXHStV50FP1tyV/OpD7vGYvq478ewzL8JKqUyQjSH8S102A70pa48Xz1643hihyyWGY4/jUn7VxZH4tc6rv81LPk3jlrMDRpGYfRK7amFhkMuHI6Tlxu9LnJEomOH03x53PfhNPScn9QEwV/DJFqrk9JctNnkUC7LGJiblvdzVxPjeqnPYNXUC7VIq7QOh8fPVbc9cfJR7157H0TKDCfVZ4PzrFGB1kIDQmEocF1GTTbv6ESBLRCsbA9GbJamgSQ+J66L0i6DtqUIY/0Mq8QlI2mg0Qvvp2OBoRLpVsbsttV8LiUxtMNGpqolQLPGyY2/zFf6Tjfs4hwlDeNcpilm3w4m/qx1f5ekeJ+fsF3kAIdblPg4wP0yO8BUsZediBFw3iD1lPx4/bwcP54eFvsd/AxVc8oISTaQZcdYUSF3D4YR0bVat8Ac2cNNbSEMM5yGTUj+Zw2ind4FI3QGRu7y/lrLOAOeXSKr1MusV0KN8P2gkmxudpgCQ2krPl1ZMF6YA+3Qsp9BtUFPkDK9CNkORbeOvLkY3rS3TUyNbPJMtUEGGNNm7C9TQGqxFVlGBXpFcIW0XseIK1ngBGOEWVkpoomu8lWHHuCD4iyWFSyied5Oami0iq2mlOOdQnVrMhdgwNIZtAJUCH7EDAiVaRFDqbn1NvriKnJA7PRIPoNdVpZtsFxvdH7RlGFXaC/GVlqLX+OgrOhT1LGtbQgJaMy6ikAaxegql0/mjhJ67yPimhV90iFbR53dU4zT44EN852Dvd8xLbaBjnYMK2YVP4n8tx2vmSvczF8tTtJtwmxj6xGFx6pROv0HsMk6IDiW38kUObIyJjZfWA9oQThheImcO+yyGflsbdDYDamO0qaun06TukzBYpH/bOeKx2wzNjhs7o98RII1PFMd1rBefqXdllM30x6zrXw3rYqsBWb+3mER48llqrkTq31mJD1LwyAh9nZ7P6j5Ha8oLdQsTUzv72B+dZ98zXUD/FAD79xgO8q1If7jIblmJEQ5NXcVDIW7rdMV9G8CCnIwl+Oev36N3eCJWJjOEan3gms82m3wsbGlyaLkraifIuJQ1lpD9VZx0AlcZPiV1KjO8VMia9mVkr/a2HagRm7ZNQQ5LxEh92On6RKVGUuQZeByL8/pz+xmCel1xJGENHCCEwCD4sxEg9Oi/BLIB90Q+c6VuGwlNkAF2G6X+tT3t3JRsc+xjvB75qBOeyowTU9YRrEltprjpvZaLzWze2z5vCcV+X6ETPzYodqJMSxkL78m0oeGx88E+PbPvVFHxKDwJiaexVC8Le0Xj0ktbxwCi8Jc1M/R1c81PS2c+gXIniRi9twk0Bm9baxayNDqK79YCPpyR+TvsLCV4pSslOnpofR6QfNErvVZSX0z599YoIfEfhZayojkEu+CXwAmueM0pGzzQE5MN1CZNr3LqQoP9DUFRI8RGrqyzVuaxXLfSijCYXxA8Gtsk+/ZOtrJzrskxoUyT1lVbzjgRtg80o5ndnkqFxgVbrR4aa7IBAfFGj3t8Mi12tCWuF125Hh3g8j23qg/HG9NEBxSeFidXCw6EBx6YV4ba8Bs3eAyh3rR+RV4lkjVYAKEl7OsKIMZPbb9BMa7+mrRHpIbkvC1Z8lLFJvQAhPSVg1tvw61F352LilpwVdi+CLablJ1ui+bTURnOQcsOk/Zh6O0zqdDVdFJ65wqOOPIQ0ylG7aV6K2O/IagDHTV91nhX7nbn2qsyqt4vlL94f9EQFUyroPFwb3Blstz0G5LjLcgtHHDLPZiu8O2Ic6c8P9oh69YG5emums6COastbScLLm9AMGjzmMNCBR7Epu+EytSOK7W7IBCai+hcOlBPcibRxAhiZvU1PGtN9JYd2L8M2MNObLrFI1VfVUVtDM9AFrA6eQH6ytUjNUSjoGYl4xZCNsh9obXjZFLvt7dOaVUtPoZQrkG6z8Fp/idr6Wz6wUy2L2UXfp0XfdzsiXk32PenpH25KvHXaiERJkaBc4dgQwyKyLxUQ2VAxq1etBMwJKhvg3/ZWYv8hrO7KVeYAk+cPHFp/sIQ3xMQYJAWuVgpHJlde1SkXNmaniDdLtMs36/dY6HOKA+2a3S3e8XoJdsjOhFw1dqu7+rcLbeoU+zMhbVdHUKC5hTbjUiFT/SFJvif70RhEbdXHcSR6Rto84q8ltHfO85HXZbqJxrfnV4SxaHY9GmspqENTPVbJa4EOB8BapAs5MnOtr2SygLL7nof9WbTULiuH9uJaX9AUCeNzldGEWyXNmqEEAm2yz5Utg7f9V4RKWmB9eVeeQPF9EWaWH1+8l+pY7Y7ia3ATusn02P07BVoqZvMWMksxtwV9YuwUeSpVZn9jqMj8NxRXxrVjrQM45Mi3dnbF0c5KpzrfB5OBbyPewiYlzcFuDxZLwrbM6Wox0t2pYONcB3f9JmTGfYjDpaDTpNZC0cu+/SyXKs9EV94LAaxwFKYroqmikwaZcX/RmfS2Ny0Mr5urX9yGa3BMTgSNthez3luDNM5lfFn4cnBnMhkl5vkV9jyNsYO5npuKBYPLZJSB7HKCRyNt2Hw0a2TgATMqPuDnplQZFER025JwEYQmt3ifDmzyrjy2TTBOQP8+zEd/j2o5xWlHUGszv6yiwq4nFWxmWmrR9VRt6+DHjD+VSByL79e4YpiVTgfScpoljVwKHwv6q1i+2wHB4cUil57qOirw0hls3WuAF5z/G3RTmZl2dY2Ggrwap4kpL1UIYSY2ngAAP7yHIHfxHKLMseLoUoSP/IGf2IEM77M8Jo27B62dx+KTUe33j8FD2sknDsi6r0PTPyWdsag2WLVPvdDj2uyLhjR79uqwDjGN+fdnLPBrHncEKoBQgG/bvwTduBFLz24iuo+fQ0N38n7y9PVsdQknxFO88aJe8S/xiEtYxO/iKZBhQP5BNJrfVdh1Wvi4M4/zOfFr161OYSTKWkJpP/AQhukCYFCZ8dP/bXMkY6v7FFSkah3x4KZbiof0BYSxH+Rd4+R3NUpuzGSmUp77zZfIiLCwWVGMsREDlrP+MTqA1WN4A/1Dxtsr2V6cFgWHzbPH+OxQsxj4XQirMxekuAsYKCMj09Dy+YyMGSPYCf7KxZul1k1bxEMQz0NAZYFvaAx1s7FvQ3q2FCtSQdEymdhfFUzeASA9uCStIuepfu4wkmmI9c9vIf+pzOmQ1x5PLs647qE3mIrAx9issqW/FAdBg0MGYEuhq6KJIowpEPMdgEfB2UryuQeLgZ1QaiWCQ+hn8I8Mu1hdplP5winkkKm2LnQW34QQLjq/2GXApjP8kRNZGDEo0wodp0PB63I89dNBd6z1plCy2L6Uj9H7Z50BuiCoILzmwPtYAMsnjDTwBCW8HkLWW8TKoWsfUFxHBN+1cR4ejq8Skbe+5fOCCEKtqimwBt6CiydNSU6dl2nFS2CcKgkBuwCy7jH3f4v7uu07aM/UWOtQLWhjM+r14NIdn5bZlHZTrzqZj1mT00RD7A80qmnJcctRIlhmgPukztfPnFZqJm7H/DVYkgbb7KKph4R6CfNwIOoJpYmWW0je4w4nIkpDndmMXC+2hidZFNrKtapc5R5aT3yvE3t6iz4nqrKWjgwsi1RiyPCGfUbk+ssiCN3THzVSNAsmYR2qlRx96WGqMWtgQ57lVDiIs/+UBdtNmxe3ljUchFNraCbi3vMc8h+tqGOnyLC9NZLPtCODXUcgzE1pNL4sSQ2YyRuhhpWr03HjxY4JXALBNQFChR1Z0MNT7HMBRxw+xkGjwujCs6hnIfGbsGRjQIE3KJPC9RFOKj6f/fDGYdXK1lsPgoYlhHZVZxDe3e1wEyu6PYNNTMR5GER/ex2aWGnNYJC3OWlec479riaoGWYOTD4+Vno8U4aGzmkdhHOedeq2xt4Btb/VIEGrcHQ//jOwhJXRxBSUxdrDnviNuQ7HYt96jVp1GSJ0Gh7/Xx8OVwZjzbVW5BpDFJOW7iqlDUz0jwpp4QSzgwNa698te2Gyz63vCvVW0P9YE0GHZ9ur6UQm0iEOg5wi2sTp1NA/3S00az/m3Y0k2eL8TiBsZi987/cTbru6ko/yj59MhjdGcu+Mwev1/P1+6vd3n6Zo30XrA4plPh2x+9W4tZnosloC4S95qMZnQP30sp9k4jF0OVUZZl9VtNhRWvJyEE7qq+8AgRFVwCtnWmsRWxdtdca5xj/Ct644Mw/T1MfbTF8rlOGLBv9GBNVUwD1NvNXR6nhGhX7SML43KIH/4emhHAb86nbkSD4mKYkG7Tjth/beeMhLjitsXuf0CfIWCUSI0CxST5ZuZq2NxrSxOYmO8breXIRTC2kijLK3V2xbfqm5/+NCQblL+e5bTR9d3sUWHmUJs6bAxkeouLZzcmlVsvJm6ryQTwpXBw8BEUWK4oVVuW1c6FxxJBGZhd5+YeafGneJmPm18kHMDJUIEtL5tod2UA2zII/HfbwLJrklCuDkuuF/kX8hvBPxwWnnGxfOO8nVAI7PzzXIeuexYCkuUmRWZOpk0TsDYdSPGsRdYbILc5uENM8tr57hmyFaNzVbNCVttWRtwAwdYKxH5BGUds/VEy+srxpj+pWIyiNkzIM2iuQqCzMCeTpvOY666uc9QnnGEiOcV8NYenAo3Jrj8uVnngBxPFmvEtBtnai8tEU7u3RmbwZl5J6D9zQYwPg2Pzijxy5/5Smbc3Xi288c57E2zN5w+ym6ZH5tq80NXTTDBwaQjhDhpzBfV1BhfG3jAvdfEjJxlhCny9FnR6BotOJNT6OVhBe7UuYowpK4ToTq0HWT4NDOwPEgX0mK/VfRp7OC6D0qDnipLEiVhNf4vBwy9JWL2+oXrAtitnE6FEMqfd/lTEnho2b0MunNW1NkZY77WlvCa+BoY3RgJoBAAX32jT9xWcIrTcvA6U4XWcyJs3iPXjOmLgGhv/kCkIG65GCHWzFilsmc1iiS7vXGTlgiHP6fiLTuPpPCNCiYlNUWzDBB+Ft+LQzGdW4VzBmAAA2HEETU15vVYiBinpKMxYOqHXFu8GuQ/0daBi8AG8NpNkm8DKi85JjLdpXnF5Rgt/xEojd0Gj9g9Bx/UtDwUqEq3wwdzwAXF2IOyK06BO8XbIKFVNr2s/7NrTBQ0EJszMpn68Mh5ztqpEuG1B5m11rtgdM71Gu16AiHyDapaaBgB4OZNVxl1qAKeOx5bHdoOwBN84Q84Dswr0uXQCEKBor4WPJWHy7IaLWeMnsbGDDB6innpLUqJBlii78iWMDjV3ebWovOxLnufGQ/c7r0q5rnNtTihxboEwdy56sn8Z3x+cvDSc5ucUszmddO55ffR0w57xqasZKSdOJKXtgpOqAzStdOkHMUZ6lICvmc6wsz6BEMynWRGT4DqJm09CpM1/tgXxlTcsxD1yuXfOO+mL+X8leFUX0z17JM3LU0Bnsf2dqTRgZvQ9DqFiVEOXH/bKv04Li2eLbAczuwrqiQkidqGop6ZWy0KwuIyPdbPl7Fk1tf7QELhnXgoDHIWd8ylZY+NBnGNKDNVrjvJ/KlHRhIDl8TRCf5kFybWRqnUOr2t+ufCzT7frCgMAqQ0C1BkR5hBJxP6knUuSo34Sius+7o9PKBa+Whz4HFM1HQWIvl4YJXVUpQOPsBCpSlBgnlNGYDYXGgV6bFygK0lnfh1IOn2aJb7Iv+2YitMRlHtXc8Xj0rDX1rqEe3xcpaHzTeePRe2JZVsKgb7l7Hl56lDZ9wG+cebQK4yjp799pncpl1Z06oVP1bp3+D4eFlaKSYwANUYmliEyIwWChnRULa74ftLe8sNSC6g8u6Zhy6PQB96NM7FJq94JlGOKs3/Bxh35sUqXP9VmseSM8Ct4AHsTcn/66loDN2cyKEsNchHbJ0xmp0ED2r6dedHhPIV5O8dCv4oGz+FsOj/dxPyU0kDMTcILyikczFKJff556T82kegP4d6mjfU8DkGrY3Kk1Kpa9EjcWDvGr7CsIUztKwyNGwwDQKITw+F0nfx5e7g6kQ3chgXRL2/QwGNUqcSd6CUoC7MZrDfgkq5Op5cc6nXEhLRKdQ/BXIJP7Ur5q24MHBjsm1VqbB7iL9SJBgdixdk3/gmQWQeuzDqoCMtd6NONt0IsxYZcEmzaZhIGVBJcBGAiXoeJJi0j+AQgobQTUS2DQPOVDpM8YOj1iRf89IkrlbSAkz8P8yxUaGCrRUR2b3aOINmzpNuR2QBSHMNhmuIoWG+SCFP+1gKT5qfXCgW09eM824AxxsO7BhNIG6j6BMQ05fmaEqLD/MsWQE/zqHFkfN9HJlaTsVkpDfmw11o+K/m0VO87Xg4vE7mbLc2n/PfRuJ07H3TlA7oiTvuK6pb9RdJrwyE5Uw55mdr13pwINXWC3CtcthRehp9cIb1a8dOiGPgehRTTXRgZmpcADOkofQJ9YUkD5GrP9AjX8fJgyhCWG93ZXftsIGyuPpq+IwssdvaPHao7jJ8/jEdKtSfAdt3ZyUr9SdUX+sCJa4HDflp723J7aHwvkXLOs72ej03ti9MC4DSS3kM9qaLeRL8LNm57uhlNsKGYDc3E1AQz+EEzfHN02o7A0izxZmev97miYEjY7NCXd6GCobIKlvGWguCF6VC6Y/6OTYBabdCXISx7/LPBo2u9SPoZYnLGt5a01PE/IfHLlgslEnAhCxtYW78bdYfL0FA41l9uMknom8RP93V8dqZxjO17yv2Y4YU6ES6wybtgCkVLbFOkwFTnZa5jEjxUE3vnVC/yjMjeZbtq1IzDkeVLwNuNKFV8FKomIlFc0jpceDzEJrOYrDYzIi6SQXQO0VMc/QbYx41wJl09CqHDnUlBnniNOR+ZxPo7hsRT6yEM1e6Ba2jfK6Fe+cmc/eI2OuwTbvonseIxKvIc1b2FbrieEyoCPTBOao4vW5Ol/QfdwSX0CsuSqbodTElEwowypvUAqCOggwpUZERDHsXqum3eEh8APTV/0/1KSDDnPlG9L6nfWV8p7j22uxass15N638QNiVjm9m7pYvJ9kDHiI0CKiTwdOjbMtktzD6cVEIu6h/OrPqeQZda8uuINtX6Xsv1kSLhXlGTtWnI6/gD9185FdPYR5ZmhJ7IVELkyoRpfzApRbReYa5Mg4ItQ1Ysdp+wDsD5T/gxBgPpcFB7twRMFqG+/qnruYpVGP+awWrAQk1nmn4DDtyHVii6wMc+22S73Va1SpgmeaYjUY8HPjWHPxxPtEyAcbC5E6ImdpX11jFrrLtt16g5EZzSDYbr4Rizcm6OBXPoyfwNTTWWXGCS8cHsfspFb73rVPlwVFbOpqeRV7nryjYeqGz96+in0cFWCbBXtin1+yAKGR6DP5ZaHPBa/LGaY57+prLA3u6QZ3+Yjpzz2dlpG6NRUaxLjVylmKxk5Npu3E9Kw8qeED0tddSOBViL4DA81+Lxwu7TICZUz9kC8R1mZfc5ShEqkYEsqdgcKljVaIgSLTPCAVsPRgf5sV1EYz4BICfLa+8m195dKF3jcBKz9ROxJONTbVdC0Vk4CtcIAAshLmFHSWmwjgD63sAyAmJNcBwvO9fhyMstvcO4BZ2goiS3dvYtEjSllbjrVnaIILRdzFMxIB9gz2bit5EKMIMQxiARkJm+5EVC7o3oF+382h1gI0e0TXattWOSSRzsABJ5xybftEBIIoCPuKs71I+IPT9bgY5LpME76G80RAgAU23ZLxTVnhTEErOo61dQUAj+5OFJXkn5mTC3Dl1xKQOCroQLg/+W22g09sFdUaobDptMgqpfhy5w/SdpEhKUtYfHqOU9P3U2/vCI4ILy2UoXgunRVqxtvWRew5semuZ9V4Wf0+TogvrtBSNYe6JRhEOCCE7SPyQIMjiyCaH+6myrdMy8hvu6XS7JI93r3iBRrf/IOKHrU3m3PWqr8fsO6lN8VZg6m4JirKSuA65dk9Yl8lAHFQ2SA+UYwGL7IVEudpc0BgtGtdzJZbDpsLvZbiMssjuVdRGcVwNtdwQPsSNZ4Tzix+4mnfJfBimsYf6nx+Px3bsW5ipst3wU+0UbtCj8o98etYsrgH4xDwo/50IKCqt8c2Bw8kNaztv4ZDJ576+s1eXSxbLJnmKH3inri5b99Eq8fO2aBjqpAuVw8x9W2qEmID2qtyii2NJxZxxnIdSXn54j9kPWW8kETHFKMGSmP6EUCFmB/7pcsmMHQ7ZubCTBrh3xdMs9NjuQwt3aUCb/DzDmeNYooSXNwRR2aR8J83Ic4FKsI2hKfHbioj+W6CFfxgQOuVydW8/d8mkXmEK2nMz0/CW3wVydbJris7KsJKWkPq88Tu1BZ6Tz3s1L2OhWpsblx/Zxnem/hUXP+rg3r6EaVxV2h/UKF9iJhOfKNAIie+k8+yClkzsRITt/dTooeUyvpBTYyuwuS2Vk+qv3LftEDWJGpruNWQBpXe+7KZDx/Io83u/1DKw34BFtp4KxeYVArvRzmCN1PpBAuBb6GhHfaWTE8dnAhIPxYqEavIjnK9P9ZIgz24kP+AMC1w1M0Sffg37p3MFBZASvcs5P/WxzFnlSzxFeRX859n6K8ZY2J8qpxasj4SysoiCtKCrvDepwF3bcWvF89owI8D5f8M4VEo0rl4SGM0v/702az8ODV60Y0XhU3rxGuLaW4goi0HtkugIz2KDA7LWZ1Befp3CRoRew+V6vjPgqO6xeJTEi3d8NDXFuK6el7aaudXeI+eo2xCWZm9kjZzQLM4+qikKeeW7FjClPOXxHmvVlHxh2n5kICGNJERlMy6oe7TKSnzUpkTMddSREsx6XVGCt/EFKEsRMY5lLavE6LEryYmyDSfsVM8BBnQcwtZzwOqlnj2OWe6Pcucyf80RH/cb+f84pJJkcLK2vbrEjBfpArMbodY5/VWzlqTE0Xx1onE0U3NqH+67q6A+Xk1Y2k1fojh9Q7wdcWy/Ec5PECk4oNYCn+g26SnPvkEs7cETLucnG9dG7BfZJlf7S3w2aKRRZB3KpG6K9Jlx9pGpfWRscP9w1kpGRQXKWsyL6wr5aumqXplyAHMPwPZqR+k697w4wldqmYWsyYxh0HqmUr0CghxdqvjApxTbJWTqWz6pZwnPetLiup9n+TjgNjbMuiBYWDVjCPmi6mE2VcM5Zke2hWYXrDzYeoZIHREOLNi+WtgT5pIWV6fB+NWVtW6oEeYKsmREhBp1JIYGJUUd0cvupkuUA/pussJedLFyF06uuvB6jNlq72Ynds4nBEcZ+cyHCVyaWZ7hmOOgcEhKHz8ctLkT4vBeYQqToaRI2a8bHKAxs8OyNz+10r64uH/PNpd2dUswQcaH3o76JBbrAqLOR5oH47hROVIEXCTEdzZQEkQ04X77bMyZNhVo9kAI3J9lUyRW0EJMs2GEiWSDpu5M3wR+Ak5u1tVrg2rQvzg3R7POQwguHhwJMsnOZKfD6aL3dhnIHhudsYhG7SbM5sWxritMRBgONDt+Mbpddnw/VFXV9JJcAFn3wOgFearSHPLpIAeMZhJ9bRByFFPkUPVSIlCH2gQgFvW+icB78XHdaueDRQIbCzxAUMpUOE4DNEpUNUNGJN43Xff4kqHKAiKxdqeH2L+12tg6jH9YxmhpqE4RjYDkcxVz9zuQrni8eWZsPR1rVwUj+aajE7d5xEK3B8szTDRPPA9DA7Ba4XSluGtRjYODlr3psgB8mJByxOqDk4xc+OdUfB+n6yGEsgZ6beBzMhzm/ok9RHWa+mrjCpQs9KyCF4EcsMwLRJ+2iuVggwBoCawsR+H45cGXUE5jNm5VZ7abb4Nepftj0wLWMIhTnQ568UVYBPlcqJX1KI5YgOjCaqlAl797GlmG8Dq8YFX1uCgyqt+iKJMGCCo4AVxPB5d9dkTFYliO2vsVsPCnMGc8/RuM6uD7Hglpw1/JrtG+SwyfsxwbLEGstJXjlyG6e7Bimfp0i3CTppF2R4VouBXWt4BxDkY3E4ndOTLjsq/sZA3hl0zTKHhC18ajLI/qESw3nZlzmK6ecOb4E0WUMvidVP3Sred0TfH1L9ILaNH96QKVUBmK6zyX9tDhaaS9wAHsR4PtRfLatIh4sTm0xCaHbDnqMsX8D2/2LxPG9uCwpRvqpnt8fq9NrwdvOnETiC8e4+yKp8LgqJig3sC5FLhsZBO2q+eRQyH1ipQ0eTTUkORAuyTakzlAOr1Adr3qJnwZITOvurt7IyebHAjqcjIx9194K6YXjX/Iarr04ACpez3yDoJOWaj6aA6Xl2d8gXDp502eObvFX0xEVlvSI+iBI9hM8+1VPooiV9gHJTdozVkWyNLqABYrQljkcqQarfGzSfsvdjHSM1sqHf4jaELdKxBB8VYcXkrQMsnpIxg3RaEV+jAJDj8rgGxqhglykYwrKP3/L9bVZpctER8wg2oT2o2Aq2tyjg+gAMVW0C56MIkvUIi7XgoycjPqeJsCKzwoDFmJ3mRh4Fj6ZUMnXPX2JgY3C714m+j60LehtUST0IaX/FjSoQoqQlFKLiQ58qL6pRcImfUjdxMWIAw5nhBOy+MQE73u4NOGLpL78KJdGRIMXezLhQNzRFYeomsF0jA7eLRk9UFVExNtCRhqWSvb1g+e0b6C7oN4rz/26CC01w7HM+Em+RAfhQkvUzO7mpzVXW2wfZKpaWSimcBNkhAeFlWz2dvZ3wTr1VTzN35/xVZLbxTsOmmZrXaHDls/eqUF5HXAeBYHqxI69rzSWBtsi+ObfbNQgUAe+2szaWYCutzdsgCyfbDP3nPstjsuUPTQNnT9Rr3crpDVEkjghTA4T2+bsE+UnLGr/oDtv71BEvngOBeLD0oBHtuhTBDbshQJUAPBopQNoPB2Dz8dVcRQeJmMjArnmqdNrKbgU9iRDmzmqk3/tewV7OTcLiZKzRU1zold3l6nrQP1qjZc0Usm7Q62bNKBUpC1RU22haBx9IZjfM2hJtFKJ0g7eQBQbwgeWRMxBI/NTcaAZk7QlfCQrz93kWX9eL32yHh9DK/gxB4E2+0Nepw3ORCT6GyHm4IlZe1c/pVQFIFp+a1Yl6go2umkj81dSFTvNpo3hBA6oMbvrwsQ249s2r93clbMIAtnkvGGYunCqZuuKrVye4Ojk1ahsnrPBOM/fwk563q2U1+wlEVpqw8iYTrKvj3BZ+ACKW+R/Q78xAw+Q+RCCF/H9RgOFYbPS0uAt5qgUlLTTVNBYwiA9KLTNPKw4eODvQIv0M2V1DjaqwDk/NzPR18brb9DCEgLqAzt1fCewQxE4RvA6tTLtSx0ZsLu8aEv3Qvxf5HbO6bkeiAmByOIXktxW4xBjXbrUUF+zy9fargTbjy/J1g/CF4hPBBI1Vo8C8UUgex3CJETjmv6BJeI0UlCd3YzibWlAgbXj4VlCeiFjNOpBMe1iX0brwCZOjKXxTfcP9G2BXUH1jgl3mhTayPpqzJ63LOwUzKFofC9ZpBm6ja/A7D7UQVPsRvLZI9+hGRXtO8JUIfLC3jfZWV0sXDFsNtt8bfN52PJDktZUbTJb7dA7keQjGRRflDfYGmHHqrZC9fWZteR+tdgnsta1LPwDJKbjOn8ojEcXXOMuBiSrQmDT/Os62DwyAjeAo1e8PSgp9I7NCshekqhUGTHPXiBXSopxI4iXsV/wI5lx82z0Iv2GZb1596OVJteQFePCe1o5IKejc2pTNK7Hcapr+BbRVH0Fj5DlCK81Sy1rwAAFG3fTqI7p8XQtQJziC5GsxuRhQ3B2jxU8rVd6fPiBN9WzyC+HJpgaajHEUY1fb0Id9xmPbd13FhyDvYOHRy7s69Kip+nNvqhwNLILjOhVZBmwyLo4JY88YXHtSuAJBOpz0xMCLkToIloOaQujReyEh1iTN8c52C7QuWqVGHNHrX59YqX8QM0aqXYCewxrRbIAVmekwfZ4JMvLmkFfQO9PiLQROsUL0Lh4Z3/cExdqFQkD9o8vPusISm1psDt0XnBB+aBHUuexXYSOTtdin/tJKFZl+lTeKQdq2yFEwEV+Cv2uLz/3l2Mn3C+bbRsIp08D7VUckSP0z85Uh2Y5Ju2XSGoOyWigQNFY0qKUSbHbaeDQ0qGX+hPSaNLjJ6PkOjBgyW/P5o9sEPC2mcsRXfso+O9BgDHN7W08rG8TpDESkih+uHXwKYpp9T5lqImPeBpzCZquuLktwAv4k95xnZZaBFI7pmeKJZhk+x8WAw1gOKl0Aj31DWdBgLaATjhTX10lyhahFKajh3N6DSiFud7EANrg400mJSQ6rdxdNO7UNNq1WHOsYzadG2a4AP3so/CBoAkvRTHZ5mDRaU6k6g20B3L7ibPBpQ2X74iBC6gdDetBPNhIiX2xeRRQy8XKc3hjkDTsXL7RnT1iw7hTxFpM3g4fe+JZXNovFZh33T/Oq1mLfXAwmYUGw86xHALefIW/H/kOUTBI6AxhmapFSgfaXj+EKtXfGgdk4TvViUeXgNRYoXFJj7S0pq2A3wTq+RbzHKwsCy3M0E/OeXfOHBlaXqKsYLlOq43wq+eDeOHqjh4+30Rny7lt04nMt6r1m/C2X3b09D4YA1jWj/dTz/qZJTdLs2ihZmcAv5r7W5+TE/gUMn6YyDoRC8CcYblFTJuGjO0kQ+AtBrHUKu24ijxQ0QgzZIjyUKPb6bM1dC74/C99LCihdJstFjye4RLPZpjnaYnckPnLRpWGxUidZoFbUuebvXt9YrAvbLH5nRHa2ERV0yuSF3CiWfslUtFNvrNK2mt2yOnE9KzZKH8W7+h4lk0SLkXH7NL6RmROELGodclOzFpIwdmhH31RI6cDt/ptPv4rN0PzaajIRCZAOMiTWga3te+GfvChKhCNQKwnBd+gZndmoKGlZxA0jkA8Ox3/qfdVjMXiMpL66tA9s0e0r0IBAP3dxyukCCrGWzQ7T9WlNnc85+Xq0AfSRi5ns0wrZZtZyEgKIJfcsjlafkmv56zSfOWdJXD490YMawjrh84tpNIpYqhJDqJJ/hbHBSW7bKLqND6DU4Rd6eKxEw3UzaMFQcysNqZmdYLc5P633IskiMjFBQue/FMK5y5i0DVZ/Np/oMgCEN5SseoeIJ8NjZkO8lzRJ1SVa72REqlGf6ba85srWiGp9OcUUFiFzlQceltrUcthNZdYrdUjgzqeceMHGsHgj5O2CfG8WLj9Tm+s/FK3N2TeO78679LhaSQ4DjX+JBlyBL9pAs+1G8K7/Sk5yRJBd8EtFgY1PbRRRQnK7i8W/P6//WbyOria6YTpAoJ38PmGdKwX5vnrEGmO+6nJ80uaMaGc8N7BUZbgwGxsKbgQP/6Ps76KGhmoAMRFOpwtAEAyG4Xan0hppds2Yc4dF3slTlSATe9+QwzIx1YjpYw7D92F0mI2YmU8tBXi5KWx8KqwebNmD378FfpQ3gSlwRZkCgvObxlWLComdO0xJcGmzccCFMu5pCtpN+tm6+u39UDbtU4QnlVQ/rDMR6Gz+FnzQykqb4HOXwPB2VFfy03aQt7ZwdYeWVdmnXvIt/3rCRg52XJ9GC2Ui8fOj5NxX5aMwZz1rbcIVnLdouIGGKGwQfG7rO5LZznggfGWCggDGNBUhtJwwoxfXHI12rxdD9LV/6XWpfSB/aB0BFoXvLf5yP64TSdaF2Qs3T22L7c6YXR3+gOxnEgCBxgmxWi7n2zAV/7HVfgfJF3GEfhZIVJFGAtHjIpwPxlnnXnNbDRKdV3wRYzFKw3vhkRhksZ+JDhvm5bxVdIMvU0qY2PkStc86j8gobGsGCabuErSNU92mVju4AmsbThPpCPQoKrHUlcRvqpFWaIZ07A4EHtd+zCjfbqFHTRT3XLTIEhytnym9jBKb4gbhPNqqGSQzXVqCxqrFLXFZtGstLfKb18RQ2aoWf0IwRsL+V7JJL0p1iyGwMu3DgNnJqE2tYdkNv3McjbWalJgHsUjJTLCeo/uRkCDF6AP2Y/pqwomWFfJEh7R646IGn/YJWF5PvI7UQk08/HK3DrxJ1XezeiP7LGJ4qreIur6lEB0Q568tWGlsn7NIlpVv3ejce9sm1HgdCNiweBGst6onuLZYb0ULof/K/HBDBCPgP63TKomSPQswoVXgjRJtMPL5k8a6FxGggawbN6IEoiYmXTRg/DZYkeIDhGMIUVPOqUqT1ZrxzMKmhlCyFTrLhXwAlvRdzW8qQNIIRyc6fwI2OCQDfmj1ldAG+TEuiYezROx/OPRluP2OPOS2mu//uTCfv1NLmvESiLjDrsnk380WF8RukSrxT9wDHfqJyfFsOiKZV6hFNeWSpM+6mfB1NFqBy7WX/ltfpKNTPTOU9r6VctsSA/D1WjWeVD64UJYdRo2iQWjFWR2NfMraYEdBmVjM7nCuYUDCAcorhChgzKEP7UuMXP5hO0uG/L72Ko1QxXKiBnJSbS5erqFgy3eErPfyEbh92luD3lUC15PpqYV5UJPf9Fcz3Xtpr+2yiJwcOX8bWWzlBc4oeX3AwdHP2bXK4/WeKmZmVK3PN5BOmIeVkcad1PYP0ywQIO0tUr7mnTN8xp/xI9Tdz7Fm+YBzAxeGopX1oW3ahkI/HUhzVlN85ZSjvIg5G9qOmntPJFHNiS/ogNea7LWGx/uLPXKBM2oROipuUmL+1FJcxa4J8pkox06I23rodYE7h+kT1ZNzVbLEHBAB9wRZj2PMOXMC1EM3dkDaC9aspEIY0srmPK36PDHM1jneWgjdaAHWfbChLQ4sXVW9oRsdN+AmbdnWR0nwNIaavwKxn/QZ+wmZoFOReLP4Qo6eQir20HVuq3usv+FKZ9Oxg0GBIw0xfAjKj2P4Ubt3CfE1bJsbbG8P87RZZTjMiHFDO3FumYlZcChjhSvDlBju+ufo64AYjIBUajBaz/MHFNWL339bEaImYMsX5oD46YrJ2SGYDzzKagmzJD6X3MkS7FnnR4gqwMn0v/LmfM85hHzdnZ6dHn0ZfJrmDOmoeoV5NCma1qCB3Mbf7mekjThVbf0Uce3XdypDAu+IIBJR8ZT22GMS1818KhfNNGZOV/nsQ3ywyK5mLvvezuqZovc3MUsIh/eInhn/07Xey+lPnXNMLJ+3iJsOxBTlPNXJbXzZQ0p58SZS5UBQ6CwCGzp7aopN2GhKAQFuJTfyzMQog759Etl62SiGX6L0QRkkrFuzGV0MlIIz5l0xeLh1tLYSXYeDqkbOnUqd3pjHaLDPyY1EjQIWaStNdjxeHuFFuxbOqUuYgDNZak9ete4+BYkCKXDYZEhRIndMVUA1W31DiNPnitNct+amrLorKBZ6BUhrhDCr2gtRMIE1uoyUYWpB8Ubx+AochykaRr5mlpqO66Puq9BFDK+hklB6v0Yi0BtGckqsoozhrOfa3Ps+arRmhB3ZvoKASchN8t7vjvCMuBXcwC0ZfRxMXozinBwPewZ0agxP4R6y5l9jDgXIol3cNkA+3ut07M5KvR0fJO6LzJt038KG219dfcy35cOsY/P/pki6jQcapM5ySOVNgyuw3qxDHbwkYSuibiAwUcMGG4Jdlx9NeRK2HYnwDhyfALXUixHHS5UObBIXqgikroh/OhdjSoXMzwjf5JOgYAoc+sm9FXwGEQhz0Hs+L8LDW+yeGdTac1NnGRiBTfT6Gi9F15NdvTe44z/t7DgRknA/pde3IwJ98H8GTqPQcs/H3iliX5PlvKAzPLWbwyFSy10uHtYvhXs4Dum1/SqvaA6cmcj566AC75cHyHub70p6Py2gwZkczLqbf5M1nvjmVcOQyEvyVbCdy2Mx6RPf0uM3Wev4Ydj6BNx4xAUtq2bB+jvfX6DPRL2g6hcHZZlKM6acnPdHQyVRqS7zhpGZ3YW8DxAIVDEIj4B3HXnEpmBhJPq+LNeHAG3Lq4rSbrIXTeJeDg4TFnD1tvDIsER//ha1Nf7nCou7fXUIo1MOTEAfUt5CaFxiQ33r0kwV5jZgq1FwS9l4szu5iOo7507P214Vy+xbrAAOByQGn8ciCANu/qVJjR+h3Yz/vM/v8CvGSB2LJOAk1OXbWxaIVygNYhI79fiH3ukNLiW7NbZYBQrIAka/MuA5rki65ymJCtUjUxwehTH4gTHt3QqW8S3sOPSIxwyw+rSUPq9Y8uhV3EVt5KsF9/hFQeGqIF6+buvZEgrlznoqp9Cy6MZoVdaqeUja6cq9cJ4X7DG0jaBO3bFSOE4qeNXXvhFUVEkBgZBwNYrTiY0pamFof4CGSwbfcjUN8ewDw5DGdx7rvnl3l20ohOhjWh+ZcfXSgYI54vxeyubHI+jS1QId1LNkjVB65mnEbmzN12Kt9RYErLEmYR7vjqxdwK7CaOtC7hdz73T2qWgSIRHKrNi8ZBJ4aJ/+bSBWEPbKKSfrTHjp5b4K8PMDgVnX1cjeK/c6u6As7m2SPOg40Vfg6+oUkR3C10jl1seqI7pDxhZV8ikrg/JnotRNRg+D5aGxFGLV6sw5H7qrKGm+qdJt7IIyrT5uUgKeuzzj/pMfA655LVZRwKGX9iaQwHR+GSSNPmDLV1bKMVNeKI6OnDpz0+uaC6j8Qc+SEveSSwLOWPqLL01Vaf6b0HUZnr3Fx3df59Uy9NEQ1X4LTDRRnga5krWVPEUsom/ooK/IWj/0YgV8ndB9O++59Y89DKRv08E9WzGuskk6QmYvvu7qvbWD4VazsGK0Ypym+JoI/kHPFTNPFWr/PokHD4Uf80tBEFPXi1qTArruQI3cGArin7wt/SE+YKSYUFoL8CPZwCZKfuADWmohzqVL/5ldFzn8aMIxuzTyfyUaWXsgvKCvgvIe8ADZXZZGf3VDfJjrFsxmIzboO+3peNJP+52vXiKkISh/8P6MurbhdXVv/PG63qjpPbaDNPHA7dozl/6nRNJStFOEq6yX2drhrlLkW4Rgz9sJlkp4xUs3nvvNszy3IV2ehw5uW9czfOLBfSx3mVJPg7mK+QY04Y2Hf5cx6c6K644nPIfbNPoCISRlFI68LTURcrL4KTBT5rhuPiXdNIfqaC/XMhiUBOnXXgDRiRTLQFET0ywFLKmBzQSbeL814kx2DjPfiOOg20AkmK2Oa6xGM9xkyYGDQw6oDQbYTxAuLddoDX54QLdnan0L70kKNR76NHpN7cm0o++b+yCgvh62sCinDwkEWz3SR5+4iENC8Xo2hSt1EQUffFVVy3GpK/ZAEbfa9hDMTcMhkoRhvf87ESg3jOG/RrOz0U7udJLofyqyUDs3CiOeVbJyZ21Fl5cHn+gz0LMyDPR2dVc4ocskZpFWILXIs699RYolUbYs+vHH0kE1gO9LX6IR8bzpghQTiCzknaJomaYoaAvH1j+/fWDpEG1ZTBPYnhZAwMV5VQtFY3EhgoZXAzvT788FOFHlMu/SKSIY2SLd22SG27kxXIUBycgALr54VE5caUKdGCEk6lh6SE6l6uno2k5p78bp2sQSwgrfyF/pWXvSdpGVLffuUgKp5+tqaYbANFY8j/XHB7db8Zj8J7u6VdjyxRgGVe52JAUOivlnJ0bJ+wR0n0dABk6pY4Em0pYp8khxrZqfLMIf2h5mOidcn+EGA7d78EezVaczzKfc6Xb1KgOHFy8c7PF5rZTyD0uSgrTnVONXl+ypfCvq5ocVlsqW6i5dL3WBjMuukbx8A4iTyedToY3Kdj8NKs4O1epQHVIjOlvalj4T6977ZOYm5qCb+QrANpnDaQ5WtElLbpZbfzlTlF0Vn0IvLDLeXNUYeZm9UnDXToFK1VWoIKY4hbjAlVsDkLydzx43uLqMRSdj+/xRIgka18O/lo53059F8S3Ps/qaxhx1EaYReomTKD6NPnvzyYiVl3fLkOIeAld/R/+7ah96ZKfz8sSBjXRu3KdhzrhspJSmupB4ftc2/8IXIJxyhXWNViy2Ktd5mDWhjKbIKNV+rVnQjYZrECAvenV2bFbfNaDvwSJCFV9vi10mjFJ0Uewmg6x2waO3LdzlgdXZEJY5Z8lyOokgbzAyJmcfY/LNB+dcjc5bztsO7rpNURRNGMJNGyIxC2akYl7tU5I3pDggeM3F7H2d6BXDHeZ4p3OQqU2GWQP/tb5rpCJwyr+/frJrInF9zat+2SeoWvJiVuRTOHGNUCoAZ4BzDa0xcMvl9yJfY/dPlO8RlLgItd+Hx9W3ZUSpOjDBLOhF6/AqGpKZA3eD6+Z+Uc4gxHNno4l98NaTK73vC4XAy86wYLejBHLjg3cNU7qXj5d9OFeejTp4tNmkbJFnkdwMmQqQIKP0521wK+JYCGo4onQI29zLxqBF41ldBwScX6RlMj7+y8fheqpKYdyyssm8YJubbn85W+61kN4YgdGGpycstAQO9sN0BUNQD04CekFNb0NmUZ7ijMW9pmhy1MjAlqK/PAVnYZR563vvAj4yz/Hq/qI0t1fyCT6a45AqmjxmYdU2BIMiie0TPIkYgFPMK5dJv/lcrN74QlDKIHklTvekgNouSRq3FPcennnLREwkK6UawsvEg9bVTf34Yclnrqlm5zfwZ7rGOioZVWiGKddLQnDqJUpio6pcOrHTLuNS4JNmYHBL/BpJPGgltN41NddUKmFecbaPKHAZrwt2qaYJn5daLh+miedEKRy+AQcFdtgE1IA04gwwJkqOzl772DbSRWa0D9ieHLFFbmx+Rbf32NqR/8uwt/cbYlFqMkATseO4w1evgDOTIaS4UIqQIoVZ+8vt1pmFEfDmDJ7FHcyEEquyfxCRyIAmzK5C+HDjpjPUHUKsnntiR8jQ+Qsx1dYbMOMsYo0hbrDjx7MBd72OHhnteJ+0TXJ/YRKLo6PYd6dbUeXiZOjOA0j8WR/a5SW+VFWfc0LTzWmh+6ej7bAyBKRGEVSuczEb/nrofZCYbKxGBuQNLtAVUb98c0y2/s/j1SEpxwAlB7aldy9aIjNad5W6iioeBs3TC8LH9vZ+HZ9E0t00mR7FrcxpAVOWOhaKH72Pp5PX1le+0fjC2ivJUaBR0j5rRsElrRFca3CueAvWHXZ07jB1UeQ9XRRaeYhMeOOG+G6SnEatCmmLp9BrpvmTlqdZI43wCM1vo0GTeBjUIxphFxQFe41sfOQCCEvKmTzGipmuIqxknh8GXxJ/49Y2ISqT7zhQkUhj9xHQZnJv+Z1zmP+f97T+S+4CZ25Nxu+U1d96euG49pictdhdlmTcYlNYYVIZiuajeq8wA+gZPMXc/vriFkqRL9tuD2MiAdJPNLB8kYAG/mknGBn6nug8PK/a5+xjnt7ZDh4SGD9WliP04KgFy+p8XClzcxPdJ7Vhg5ggMGVrl5turKm+j7W8/H1KKSqGLjuj2W4uGz6V8vQC/fiMzoxDWMwfBVSno/2uiTX49ixEaPSgk8CL5Ohlnl3VbTIzDZi0t7GqtQpifCv8GDQPYTobEpPfE3j6P2F2TAp9c0DD15fWbkRjOM4zGERV0B71n4AFTyDkIIi6TyMUGHermLr4tLtO3F6eGNgyEz5Y9ALcn3TZd6P19ibQyQSN/YZaNm3vCFYYfsD9anxn9w+zExwBmEZArTuuaFkNUPjfju9Ys3wN1Q1qRwlsanJByW+QVaLVs+HsUVd2DIzuwO3qgaSndnQsUzjqB3Z04DU99pO1ou2hOh33V45L4hPlv3+248fBWjSRlCVZhrt3dMrmv07THDAbYuLXe7dlbdbdw57f87f1Di96O/fsBS7lxR4LjBgao3k58RjFiRW0+vyyOu6oRRCq40cIUhNJUpSDMIUhegFNXEvG3A3NHxgK/EODANUPcXmHQ9V02BljhXJuVZu1URPMMAPRl5IOZF4/hwlI6E46xUZTCzTAZc9m86NZNMRSrvuueEcY3odMd6WvdwgTWuVU9ArRFbFwQLGAV/JH020o/FfKMO42+zdVTmVvXAMPOuK9pCUfaNYsurC8v6s977ohfndnnLo/ugKg6dkhb6et35oYdz9PuUsQiHHpS7qOGadyZlxcWwPWWDgmVRBi7ubhx84opuenwSMQafuP3pxnkCArUKd9EpJ0XAF74cy3M9+mizcuZ4xTHjJiedRjRcUoeLsdaqSqzj67Q/0uzAnxs6990yETJodJPpXpg+VcefWAD3O8HElUfrkBG4IyBQm3XWC+lkZDJ1ELYcR8FRzFLqmq500lyPY8qIkmXoiUAOMfJDe44t1XcsZw4VAPwDZP0MykFBkBqhL7LGIIV5zq+UFO/m194WdzL2gnyp9oFR7n5Ml/bU5zMm/KD2dAqiozAW5rA9Dh+FadwyuWKvpgNRlsXRRTzUsQ6/EXhn5lAEeV5UcCVsx7U1xLgYoFy2FDwOghSDcD08x2yJfyOkmuy/y/b4dSCRgD+gAM6yvO+9Pj79+ME4JRJ+XOJ61tlBv9FMjHmQXVVtIu1IOdH6gYUAesxrT/izFAMs0T+m1cIeMN7il1laZqr7p1IzWkba+/tyD5NL8lcgKvfa9cVICSSSNa6cMpJtvDPOeaOiiLI3AyCljXyL937J8dqt87oqt2D1b5OOLdWUe9TeH9jdqtJOCFNtf4K6tOY7nydX/jn012tiSmFEpwAKwG3J+DRTYuoJ6gCHXBK0TFEM6E3HNIxWyoPYG9dPxPYdp4cOFFIVG3gOTWVZxD4bB3uAWxHIB/SWWvoG466gCA9180TzrHWgAJcaTrb1eL0gr8kWNmY8cdiSL3Y3t3NKk7NYXqCy8w0dpjfuLnPi9eHF2HANPcyEpu92ZelL+7z3MHtem0chzAWEzKFEPrHDfq/bcGODXLO9qK80PB+rRwihlul0wGNX6OWvqc3ojQyKcnjMG/B1esyaPv990it2ybqNmCyQBobW6ltFjxH6+4OBjZ6Kl4Ju8PxId6x+5puA3WvAPpa0KnSXTnVRv922hUzoOhDOhBORXFwh9j6Y7Ya4/Axq78tQr/4NX9vYOng4pii0j6gPc1UDUwT/O43ovdo5gf4Ig6z70kI6M65uHoMxm6YCXMKhXs945Eza/2eccP88ZfGdBs6OI4fEXUEI1aZbHYeZ4ABjMrNv/Yjc9BaAHqj43OFzGwlz4PjrHrf5RTjUL5bqWiOEb1AysWkRRuld1N7/e38opxwQmqL1EH4Rg2SHx7l5o5R+LKE3A+/cuZ6ymX8Fv/yrvwCyJDUY0RJLWN+yaf6A9Vihz1m9nF/JM8wqIS+vpg+T1kHcY8oQiIm05TKXBaXaBjF4u/vRvD+f3Dnlf/nFxumArSHUXWhMwqhn0rYRlEsaRUNtmbtkeE4ulq4NFw0e2hZP1Imu5npHModRxm/jEVDeeDyVleJfHJKwplXZHCqLePwi/JQPqu1rxj58H/WHJ8Ha+5FrB4NaceYUR3JxlHrvv+e6fjDxGYC1ZZ7jMxL1xxiQGeRNnrMC1dxbuHxrvQY00fgZqfHvYdPYtm5FwnUOnFyFFk5UUc6vtZs6UxEx2bLvDxZ7M52VQrg6Yv+P1Uo8KkMp1KZySvxR5Seo8GHRGohTubb0shSOgSo6ld+e+W5kK2FeJvhnEdg8/Qd8ZQktEtUFSlrMkDJBRc3lpW+p5ez+TC9INxKacoM2Pa90Y32ijeSWjJnHCT8sJwauTYl3I5YVn3s8Xwf31FcSyVdk77nb6w0HJqw+V7ogRHv7utt410GQvrZSqweUNtIdQBOsP4YT5u9E/KixBUBgz65zBy0YlL3Yb5iAChzt0oGYMEtvl0pwBnt9KvofmlujvOKbH1O/P3is/ECDiVVC86CwMiIYp+exLUuX4YZh3UsM+jFPH1K28gIYx/ix7lW2ad/cdjK+WFeJv9YSx4bRIFmAUHuJT+mOch2G2LaNSHwWkAzFroMjrfVHPHTRPaom+st+dD2Ge4XdPPqIqVHSeCRovPmzyjvdFECv26t/hQFxmIHWSe6JOlkzeFYp/tZuytgvuZ/6Dp+G4AelzRG3YGyzY2AluVlhMtts8+Q8yiLtZ37yVm4gLIdt7Kl/3ic/aDLJZfMSyP+h5IOyREHATBmXO9dOTYhTmp9jsQ9GPMxMR6iKdVmHDRAwz1aD47ni8miOSCKJq8zY6++Ek+YAJWX5U8E+nYBM8uMlu5b5GlOmTxid5qFMJKamzHwtqPgeJD5Td7ph1dpe3WTH46+hu4rZYs/qFCNR/d7BAXSZK+QTDLv7KXBBp/O5kl37RJvAj7dEQ8tK+QRGgVM5N3h1pfflO6zUXoqAixyJSnWDmLXNLj3XDk8uoIYt3knK65XjrFBiWPlkf3hI7qQZz9FCG7f3Y+633G7lBHSQ2IscKUUrfVEpy/OyZK069Nnrg1GfooAr8Yhcgyp4SQFgyB8zW0qzxjLmMiJh7NoEf3ROV0HGadFJ83ZH4j71ehntVN5u2vZZ4JXuBp76Y6ZGqpygERLctrK9famjbGS4c3Kwl0Q0lfo5QUY3fzp1yz5DZILmjydy5UjxypMjXZVELM2L7E4Pj83Yd37lvoplXd7Q4IbxTqJkVut9oqd6Qc+YHUWVW8l8X+Geap/wMBL0Uqe4FXaf5G51hcP/rogSShBFKR+wUhI7UXvam8wrDfqlC/5qvUg7Sh3ntVa0Spn4PZy4u8ZUQUS3k097+5S6QqqwH4/Mc7r2dsLFNkGSQjyytUneRqooVZAETM9Cep0sFqCKlCVCbrqw48z60yWJ7SLbroKu1zpMOCKvtjYwGGWB6Gpvvwzkle7FFUvChfKkM4ECespvUjwjrCTPWfcPWuF/U9yv5TMFYGYLiv7hawcpmVz7xKM/TWhxSX/rY8v6RlUDb91YlcXLOGreIa1vDdAHzWNwcEOl3M1pGrnKDtkcVaBz7rLpFoDn2XAm4gVVW5lk60f3PtxDiDWBI+gxuSpNY5GRcgva3DPjpdafFJpmwxcU3J0hewRT0Fedzz67tVz4WXkF145vCPHo9cozsKnjDFDYg0VCB17VR7dCD65dQngXEqvH7eAKHN9/zDpkw2lBDJajzlZDzo8CHwljr+Mt4M15g5Hko2756JL/7V7HNFumxkZtT/GWb1NZNS4B/BDcbQWZTC8E41BWpVPz62DjpC7VAttBTzyi/5hrMV2vXitiQNYLKUIj6M71m5XUWPoKSfiy19STGtWwnj3ftOvLmIOSbBNAbEDJijfLtfJvO8u4DIgH82oZ2s4dxK7qARfhzyDete4pBSRf0somkAgmbFVwHnbhGCbpwyRNE5NJx2aEuZJpKsTN4t/n1jybF+WpQk1/z4xFcAE6Ga2M7TZz6//k7t9BgZJs3g1xV4ZByy6fvp3odAeJrPvnFQLEdJXHdJXEnhrN6sQOoB8rF7eOpFj7wyClQ0dBOM8eTdX4jKQApJKjg1Zw2UyGU0EHAt4OgNOlxrj4Ok8s5tuLgtRNY/c46chSXguHCci9T56G6AgL29qeob66RuvCecO0WfW8PF6DamNf16noUMSxW3xLCXVxfQUxkGlD+9F0bs9QLXySAjJ3t8OAmPjHjrLYAUgZT1Nslg3aPriGJzLFs+kuaNGH23b3a7us9GzxsQKGG6D8lgTjk03JpjYj+inn1uMbQm+Di1o/9K0rmoT0ENmlZ30t2Tb+8NCzVvpU6UQHU1XeorG0eWMPN3N4jCnfk74/wAO1cC0Wu/kNqlMjxbFiEmvOwlzBw7OdzyPs8MXpwWdFWgmGTr4/HEyclPm2NVYSlWgaZE6YN5HOWqQNg9v5ReKFpD75z2DOrtnOtbqRNrpQVAx0IY5OeEk4GXTlM3qjgV2WzysbsT+w4zxwLFpmScuccjwH7+2rsucaqi4VQN/B27kJvE6qZl9rca26fFkvJ0WXL30mH1D57dsSPHXAIVfloKXUMALHZqS17Nve3rN2x3Y/qAt4xkgmzRojhiNPSaDR+g29xZ3ojM+rOyM4OXYbmg9ldIHqoE/jHNZrvY3XAAbGPJil2nA8rgi4PEGmCKrfZt2FL5B91waArvalrEcWZPU5kL+tsIcz1OlRtiu7byfco/cGA53Jv4QGvnwMalFI2s1UCR6Uca95AlzG1HMCWvdKObgsc3hwYPMp33RYqpDNaoatkOjVC2hiNKomyhzIZejiZAGaCfE6B5xMiNt7gxbhsb1WlmyeNQ15LZz8dKsM1HXjwvp71FDTZjeATTqiPaJN/Qz60TduPfvxnJ5Pds3e3MJEf/enDO+bys9AwrmYb3DI/MPXlxJfgDpeANZTxHHTnRwaXa79DxeXp3yx99xUKh90XawN6f4TQkuEtWArdHIeRqZs7S1Nc2Ari/nWVaRo4E1xdngthYctM+eufERWwpuplT1AopR7SWT9HsVObxb4nU+spMmaRzoJ4YRXQXmZWOuf9qI0VkJIGmZfnSko9Hf1N9YgW6ld1agifVrkERve9GvHh4K5RBiGjENt2sNTtN2DZOAc598RWUXUZKQFk0D62+PQuKV89yfe0D6iCtKt9OryQMsG5dZCY9QhPVG56MOGRzDkFNMGpwNLOX5y5H3Sj4PcaSbVknzD3MsqgMecTac+URlBrSgKSba+W/hR166I5sP1bc7vo9MRba44RJqj7dZa/+KSkx+TUlDGQLQTjiEXFNUmiRa56fxSHXbkq6kCHxLrRHsJUdJOHGUGJFvTPqs+UpuMRE3fvVKZ6JD+fE3rSQGAywAjPT/z3ARagfeBpI03bllC11H7vtfRa9nZq8q/BAwoSdtiZZE9FT8hy8NBeto4RUQcyTUuaaE7if2C54cApMyng/XWXqc0Ny5izNZofqK5bj+00TQiBFW+SS+vYQvqBeF8jbARgXAlSdRhkdvMU206MkZYn3JAg4EsBPogw4ND34dVSSAXSSD4stThcMpfKxl/N59b1nk1/Un9H+XNdkJF5mrM783htV2u9RJlAOMfLmw3fD6urzH672Yx7WlKR7S2As+7o6CyxmG0PoDNY7l9RV9kGpnEYJ9e3d6DOk4P4q0aG26lLXsKnjLYx+isTkUMd+DzJ3yB87EBVl6t/KyBSTgCW495pRob7rLwpnYVeZXFiz+KlVkGkP6wdhAOIEGqInMBqa+wK4HHKfu/ZgbThgskZk37HPLct4wJrqj6yDg39TTUrM1eiIsjto3kzYOQlDrHbF+DAqm8qLpu8CzS9+T1wncqNPedGMXO+X/peAW86EFuKAwv7PNJtmIAhfvgsHSHRxaoMImtF4Owr4LEAWHuxMaxzAGYcuRQRTN8jr9eRXXJsuTEwIpjsr5y4jY8GT1tj+kQbwSM/Ez5Evk2AktRVAsPZRHtu7G6WntAvkpfxAxEznL5BHZEqsy39oEnxAcclWjR+1w2vuGF5ddcCsfo2eFAyaw9V+aZ7MY4+jxWclA35xpSJph2euyCV8UagHFryo0ZTWvTcgzfPbFQ+JecR1CNd/j9ISpLBjhp+HgpIzsQ3IOhPRgNp1HGyHPkXvaOibk1XmMBIXXdb/zzxdmDaUa9KGSoMGkM9n2l+JXi/LLFgolRJgDN5VBcWvelzewAJ85Pg3dWF9SUUlok+SMZrfMQBj8uU4vBlT0Bp3ZCtqLGpuHqgRIvKKY1rKZ1pBW/wg2xl4jXCax94rprL1/Ms+DJ164Hc3zPNaQ5PowFcIdzPyg9f/50mN+4F5RwDrSQQ3Atx7hHzqZccLH2YnjSSJq20o/bWpWQmkQcW3/G0W3XgfKoHeRbPsAGkXoREKN6bCnmEWB3TGPuyS/LTTOVt8EotJkbr0tSCR+IkwO4QzuHJAwvgGkO8zKlWaIYseTDN46EQMBnbLQLoBoAI/hCXPDRjZEZ2v31xXXW0/DlFQXRykppn5wq1sf3t6+cPqljKqAv3ZacydEeDMi7ubxAURLGoUESvH/vxFYti7Pp/lamWciTR1PmD4+fMI2y8WSkN45Lhx1GXBx6gp/wb0mAQIr2VmL3KYIzMikUC4DVjS6ovEFGdfhlNP8HQetwk7SB9nq/BkTQIoh5q/7IH7/q7o+tYjytzHeyBbUNgfbK7uCthVxSOiSimmxclIH2CtpPVjkL2kLCSb8CkiakxPNTA4ZhX4gPnKRytizzQVMba3v70N6yAMlv9FGENzI0DeBW17k7eJidU1Oazn+1uEQ3JmbyjKviqHj1X+S+t5YoUCn6tjJSlrL7QDLvAAWDhvyfDet2lf9F5T2y7XgnFG/K7BP/Lk6GxxqvOmPObxmIbGGrh60hLNTR9DF7BRK4eXYBY2DezA87nLtXUQzS3pbGmPU9wJoBgm8ezmNcXXncfmNXQ16zC9TSSwjWewjHq9TdsCYSnm0SBlvbgsZWWvgbF/F4seSskzXgGOTdG2nGZxJYuTmPsCR3a9DnMvDYxQnT72QSKgp6zfoWFN++qvY58YSzWcezp0Vm5PdAgBMnFW6s8ynC5aW8Xw034Ep5QSU3I9FOi2ifAW3qraZuQNpC9XnKlvq6E62okfoL8fhgPy7oeNHkK64KnCiGErs+rFkbnIPgcSRfT6evCmEvtbOqmn/RjsjoiWDWXv19PjolvIUQTXYne3W8i+IvcBoBbkvF5ip75MGffYdlq5ioPhRirKAdN8HeTe3r98sRfAwaGROmYNvdyZwcY2Y75imHYHEH/VcAsFSGiK+MlGDZsAmRcoNx2veCQWUGBLGdLFfppknzWjSmYGEXSsAH2V7+6EAqwvOvxceYFRCSr4fzMQaZA52+8sEQzvhdNgIP5Qp+ArQBZ68XQpCocftgCN9miUPnq+cU7Ark9HyesyIefqPbN31IaMH3JZ2S8pDkErOuKhNU4wAkcNFND8BrOXxd0y0tumuhrkVcTdqho6l/kNUsnGVHf6IL6fZKeei5lGJmEMeEN8y6MSS8erwQ0CXvAD/0HvEP2VVCvb4xbseMeW8rNyhp2Ka4deFAZjU1EudTUrRhCLUILiXSXsEIYgVkzmUen/d46+FrqbeJ458MjysiQUmju0t5VFrS1cRaWx+tZ5ZnmrGvqWWN3nzaODMlP7Sr9NIjoMcQAreW79Oryhj+EcVGr96abJSOBd4pkS1IDOKK3E80ORmX+Fsq1H24rW5B4x7q6lfueFCkO7iQAeKNN9CDn7ilsgAMzNRyEQbIZKnSLFDmkPXfkeCAlL51vV+iO3g1NFtBmJPgYhDxOTMTHvFeEb9K3e3fRv4GE0fXsQeAcn9NI0k3eK0SEW8jJIcNTjdg84Pelas/9SseDAZ9v0mXeVhh2pvNM248XXgxFWUGQx7QXC1jTH1nIdObxAIR4TFM0Y4PAVQ08BcHV1B6Z0OmreGl2DntffA+dp1/RSUgYISAuJKtsK4S3SNlFnrfuF6WxFY9nZkMWwr5LY8iVGfLw/mS7KuAam+6CYvnOJLza0i3CfJVBcR58q3+inSq3IiQH44rB4MToRzqQjMoJgEeshSsgP6UOiAx5xbw5VTESGQPeJNLHJuuTNrTzhlmIUWdCOlnZ7XihtWsw1vfjSErnepvjG0KZaof6OjofJK2C2TpogVnn3ZpvWLCUWT5mSkS9CuzewXyBLgcQmsF5bKqs5Xvn5FJly/uA7h8KAFtMZVHCQYCqFizIMvSkZR4Xl1UT6M2cRN/KlQso7uhHY+uu9DjSLbkFpoOj67HmfuY4s9asASpIU6kBtgb6RgG32BAIIbrsKidZM/Dm/nkhzVfNM+0u/dYDBFsCyP1OBXQkhvY59suT6NayxT6CvqT0uXHbxD4mE+uW0eomcrXWPp0A+PDx+9wf+XuFlmujpWjJqgxitUSLn+sTvWMFKu7s4y7siwt5ltTXQwqn9aWBil4pNBLW4Cnu2KpfyYVSY9LpBaRo9S960a6PZ3B22GBUg4J0dAPFzyip1PT8TUfEYFD/nmqFICVk2RjNhKBLmSsOAYEEO/CWybOHHRzK+JKkN0D4BJLn4a0zwaBduxAnD4wbYun7Q+oQxBqE6DJQvouN1UxLjoW+BpmGtIkN0FC8LuiUmyeYrkkGyEv3U3EFP57xTIT/VdBlPf5whgQtZ809iQXYy9uJNsUQNK6Sjwf/f/6T742sTEOkqCo/TlEsarD6GWI4OqvEClmRUXYMhNFUf3Glh+LDUVdBYIJzsFmM5ixJ3DLnkRD8xPJZqTW6ukcnJIC/ps95b0AhhMGP0LkofnYd+sjcAmFAKDUgxURT0JJ3RvT5aZaYT/b6tFQHWoDvFt10bQFN6FF6ZsJ20MFCc0n519BA2LmpiTRgjQ4JJaNjnueOPX0v1XMy21ePzbjXYqPwZ6OwH/VZwC+ZL1D68WQ/Y5oerFDUtcU+5s1pUxSzwDxuarYzC6zJwzWK/ucs8CWL6FPaKLh7tVPH+rc+Jk7ZLBxd0V+4W3YV7es6Xk+ouLRVnrWfN9hHgGyg1LUyWzPZE/HWMzl5f+HKAGo7dLQCd1v9j+pI4JnpbmvrfJYIWNwUgghKcW+vJQtFN9TUjcIJvHlcvwtCYNo7pkSQDadw7bcExHsNbfUbJYzQ/H9cB6jFFSDfozdcAPIfUEyao36yQ8ezlQERVPIXjpNV3OY2Puv6yhumb59ilXPbH5bvQr39Zt5PCK6MZEv13vNW3M6xVVWaR2cxVPIKw1AEufAGIY2q2drbgJgJM1dgd3gVDZJIy8UbbghXaTRsIObNLjFKpp+OHDcKc3E7yuepeRj4JrE5aauTAYomLUS66+vuDix+TS4EJHS7BFu7dpiDhHPsClLPvCsDMrHJ9R0AvNUXEllaZtWJ9T2ohgifQpgpdjZIyPAjX+fCRPaYXidXCCUyFYgVHnLhAjBRefnqQ8Quyq3Ze2eM9lb3Fgjg7pJRKKM9t2l7Cgsq9OoO1vkm1PZdieHeFmSs0Y0CRbSoatlNHhaG/azWvhLjtQ7ftwCBEw82ASrDtFuYQD/Oqz73SiqrrL7sRkh2IYJpPagdeHdEHElREzbDyiRSaY8CU0rNAg5QEEF3ylgyFWzWsXRzQwjpq6+ugr/1VrO7POZgzu0yVcWifx2FGJt6coj3/hv6CEhPAdQ5T/JxuJXtnIX8RFRTyyplNqTHNxl2bO9Yar1P8mRSg78NGrGm8/XQUjBfVllYwKkh7KI4VKKkMp6e748JUoR03ZEjrD5LjL79CDsftQLI7KKO7uZYPa8bUjSLr9kzfhOUuqzg8B4L+YGSbhajiLw2oDhLNPRI7mQUza2WHN11/D5MIZpZmyedVe+bcJPjy9DMMPwJHxyBDyljAvGTTWhxXWuCqagBo0FRrffbOy8TUWVMVb6ookLJAsqW8w6G8ouidPzB7FhKvkgzWOfN9cvB9xUog9mLJFyFiwUDf+pXtZVqXKgkmuHVMClWCf+JyavhKmM/DcJUWar17Xvk0U0po1eps4TenX7YtpO9/Ud7mqujgSKONHOAXU/PDkGmefQGCA9ZEKrkgUA4znmMn/zGbp5gl0xMH4fD2k7uEf7FeVki1pAWJQDufKXNHTFTSspyGyGgTEMz+9JzfKpU1kM0V2rvpePIDA3Z/9j35cJxXD/8On37rEp1dzc52m93PtiCMGZfU34k2Dhr/ZQRpZ+w7PS5w0drqxK4Aty44tPZ9NtaDy2yjmweFDoxBYvPnX+4e0soLNPRL9VrBxRitylwifrPtWeNIgJvcaGm0XaH3EgcQjKHJak19hzVMIbF61kA0e/eRcbJWpSS4V6662z1FCDL8sZNTE7Y2183fMwlCYv5CY3Ad0UdeXxO3u7SgicyIA50ftgNZh3VtL9XLP8ETXhRDBHaFFLkYnPwEC5Zp+jLZhPUrAbSyx/U/IhAjw653OvlqTKHE2vp93ME9mY1yH2hKzRZ3o6oO+1yfjWLYi5+/9YUBYiaH6QSVeWVM7Rlv4Ab6flMBh2IpBgkLDFV5NwOxAjPGWcFj8dz/Nz5u7FvWr2Hr6ti2XJdOPN1dlKF/IHMlJkMRw3kENUa3nOom89Yc4FlILh0i+vKzDZ5hwKu/iu6/UZFNgT1NXBBoL1kpKOlKXofsJJ79GdiDZjsJ9j22MKerTsrDQ2g44I4sMh5MCFEmqB/mU5MzRv4OYN29+7xKqTPz3K6CwkIz6l/EXMKbgsN0zvqUxJHDF5xQ/KWr6GBi46BTA/L62J3y43IQ3sFaa/4z4EqeGvye6m0AdL3MeeyQOp6CQwOUdine53fAhBkJxun3Y4Gqa1LVUTZsl30xswluHD01Q21vckEHrB+W4Q3yqnML9mHs1IUJtR7g8IZyYGp2+w6DorcwusjhL3EgnZYTWdAVVlKAzT7nUuVHfTQ9hPvra90pvZH/f8tVbFvKKPL8+nUQau9XbNWxjiMDyuW3r0GKMUd3X26KnhIBw/eXoOevnSHF9z4jU7GI5EfcVCoMRmvAcgUdwYx4VM1IwphE7vL2Gqgh5wJUkSrqz2USHvc9fJBfaIDpJFyEypoqDf21s67/nP6Gtznv7DDcrc2HvYPmD9yJSInz1R9JySFUNOm1fZnQnXt2/jLP9rJAkcbMOe3M5d1/cS6wT9IDbY4QPvvzqHU+SPKZka1omkkCuQK1S/6mcST894IY6RCXB3tTTc+eHx3azYJ56ACKK4e55n6THogn+CWQjtL59r1AuObwzK0f9hb1CXGtjytsetbBwQ0xQNjvzRXpVTeeYQ6q52c+5kpiMBvpWOSRqEq8qGRhHI+/Dbye3Zz2HWAT0BQdDbgDNgUXsv6x7PXEkyziMn/JMfaUBjBSgXi2IC0trtHSi9NLvCDMpRqJhybGpNcWCpP1oglNGDGijt4BgF6ysbRQeiG7CEnAgTXDjDi+DVyTdB7EI7PmfN8EfPlxC55m1YjOiwus64OEXXmj5kWhdAozGLWGguI2RQXibtE4BO+wiQQAc/ZxzJYh0cp32Ehk9dx+pD9+2dpbuOxJOCDU9kcG50JF1e5Ik85plMXgZwsnZEYjP3Ab7OPC4nSlzEB2oD8SH01yJC+D4GbLCFjcBRIA6N0HHTXED9Mux/0KCddbHBarZPrE54YHSq2igy4wcXvuwfLL17sZzlNoQhhUKLrI5teC/G4MxEE/vTX7poorysHIlYIFMhRDbXNhKOn3z/1QqYhuleDdhi/tKWhhU3I+/OOyqvfiFdChZFEWOKNIVJ1MyYMlWQsx2ftaZ/5fciI1TAD0/Gg8YqveaIA/6QvZwbRfcGptW0xJE/ahrElywNd4ab7Sjxc1RJHsABrv3SI1E768yRM/qh1yXPONOwiux51R8ZMT3SMKKWwjty92aYSqsg58L7O5h3PhmSY5ZpLzqaJPFunMJnxDZa/Ydxnh8oaR6GcldnTePzTCzZm96vkruV0Q9/83wBtwN9P4E14AHbPnG1VQf4k5sjd3MEH84n9R+IW63AZprvKnc17DLrRTE4+QrcVCp1qEpik2f47MNjVDmrvb7qMb0zt0s36vQJJXtNsvkRMvOPH+v7YFFb9LQaWMs3s0aWvvRiRRLMk7UKkxE9mxIAmYmZgaRkJJMsiiogpjsR6MaGV3Xd0sRWXIsWTmK6k7CqlDXsy4y6CFYJljBOMVOKe3R3DSY1CZl2+9H5pG+99RAlvEKS3cV8JcxGOkZ7wbCvvxXQW8B3slE6AudXSaULQqHB95uJ6KfnwOp0QFoqTwXd4qMaEHv9sF9EKTrb4qKIkiOH3HbbQ/UboID104kQZYKt7OS1oKPJxxo3ejKN/ZkKSDt1qHMGEJBlEKEBuq3eTIA3Wi18XG6v1NdYs0muqkHYQhMz8x1d6w7U/n7HgNSSDLpGem2Ux35yI/PDqQAp/VfVRBbf+MdXlFSsdc8CcNJFlR6rSeDZabxSk4n5vHMoWxOavFCirTOP1IEMs93sx4awocons3NnHziM7Ic5w0N/QW0/+H5U68pFHa4XX240J37s/VN1Rv7F+/TvJiPdXYDvjb5BqEPivIscuXtH2NLYM9O8QzF7G5ZmzLmR0l7AOexxyG8qZHAHzmFVTz0aZhx1uo6fCVS1F63PDAw9B7nJ5rxbEVTqtdCyJFbjhjcEy9YVTX8aICZ1CCCs72DrYTk5Cuio1Su5N84BBpVODL2t7ptcY61gfcVfK6y2YA9j1KinD7U5+nQ4hz/T1/pDpONznEckT3bKlIxJIptDIIl5sNe0IUlzSnBxLtZ+skTL2kAgTqW/qRUkt7HJarmjRyhd4VkxyF1L182v85BALAQm/dWLkcMhACPdk2OcBPC4smqOSgRIvEHknfvTyTybR0dHpe+yG42bzFSrTCixzfzDC4LDVVE2A165xaDLFIfFIy3umSr71TRjO9muq3ofsqDTCXy+FcnSI/zcbzISLozOWqeqrZ+65/py0ACFWELOxrENp9Wa/itei75U/Cmx1mViy7u2lfKHVwi6sbGzRkF2pOYV0UNHOPFSsc6L21bX98hyINB3yFBfNNEYpfu1wQHg5c/F39RqGg//zqaT0psJu8Fcg1mOfxH6GnrTkl9tblwvw7BQH+yqOjeS6RWohuInsJtHhYD5gfCOTR45phqXx/egvupd745CRX+h4WybQq7Wau6KR5pL3tQoOIZuoRmrqjF/g/bOg9JFWezEJh9lTKc8XRpnS6CT5M/ABpOCCssb+qv8nV8ahuG5phAIl9Q+iQe37jJnZERkcknUpGk3nuqnSEQyqHJ132NL6TaJJIOM+/YC13Vg52AVxnULaiXqSIZi36PUG5K8Y0s5t7108ogh+2AjeAnu8BqX00S//h8L++DtNt8i9NZF8WI9MRaRhASESH7WC9TLcv8qxnGrZNaJroCKV7kn9pi1OSWmMMkZp+ndeH40TSK3zfsTeR3aYF6POSzHMjhEdPGCjWFmvJlSwuD4mQw8p/r6bU9ae0GYk8vgpZU7vE4A8xFYn6FhI7urAGYKFb6zUZou+BcxXL/yIZDc9V/c8Q7LF7G2ksD+HfyT04xbVzV9VbI+aL1mtGjXGJclrerILZRjOr1Le71O1Q6ewn0XYRzKj6Dt3CnB/lCWHUJrKlzPogyxsEQvXo/M73eU1n8UQ8eQPmga8m1XjoNU9rpQUp+Svoc2daQth7iVMK7nX9xXnkyJHKKE6OcIGkjPwLkttOKP+QBMoM59IZRL+TjYtUfW2fa/rR82bkILX7RXAnpcHrlWwMhqGKYZCrhwRymHEkvc3RMCKAQM7rs9EulFuzDJdi1QVlan15j2pZopuVcl0Bff9M1yIWI558ROW6Z1hbguB1RoNc+zNXQLPZ92e3IQCs/Ds23aKx0FQQpzZeX7kZOiyL5aTr4975D2ZbBaoFUAd5FtygAcT/P18rIxxcmtMjf5UpXsahByRnoYeMU+t92FVFeRumPmVPaZXkXnKSmQZYuBrnFkm68HXkVCfeHJPTg4BM2NnDkZ39cmyGvM/QKgpDIfck47sXZsxiSPgNWvKDsVDvZR5sjGCg0pJuQKHt8FmkziTAtj+aUxI3HaM89aqrU62DHKlUy+awR5qDtg9/44OjeH5fdCb4qPlakh2vhKmGKsGOB1HqJ3LmhqqlbXS6GyZjYBOQCOuWVvDrLzsVa9fIAxnJvQV1R08IHqtHGZHnRz3BwR4ZSwaZGmFrakh/BwAwyFN92R0xYMNfU02lfBw71X7bN2cDXY+5XU6uLEovjhIh6CLDjhAsQzk5AZ73G+6rSUnKtKTFj2gfC5ZdeDEAmGDt738XkGspdSQUn6mgjFg3hYvHHnf7txqkRY9TwOeBngSKcp+rCAw9yNY43VUnUdnkLzVlcjudmZchsMUBDGHcr8AiwaQYm10LF0p0p5XbMzPx7zi4yuH0YEIS4ebGncKvOys4MTTa5TEMl31fUPkS1eIC8Ytk3x+NTi8N4EuYE1Tt/WF/UfD+Yq9yNx/2/CPnVYqEC3pEgBcTMC5g/qi/MQwHguf4SDYuJ8ZYj/KQpPQ59sdA+pPTi4pJZGROJtW1jPnG3Nj5By5R9I/pHMzNzadBptxxOtU+SeoCgSnhg5S68omtJ7ATW5YYmsLyPrlBxDHbZzt36ZcHDn7/bVjH/clxoRM6peUNZsKQ9Q2a+FwKKtIToLdTRrvc7snXlUfvgEKXSncZrC5jMFD5e+R9MlL6v1sct8ULZGg3sXCIs66D4G2FgGXpqFSlku9X5JeNLJG3wlp4w+MJXQ/wyKQPO8opcuPVuAoQLdTtSWOjpyuPRR1HXZtP8E1VWnobEPddGp1GouqWY8e+cegSpMGNsw++TYn2/1x6ecfX3c6sN2mATzlJCfnSLoiXDPQGjSa/444dmd/rcYPpcUcS/8ZfSsmnyz6zHPTAeteYg6EFNg+jdc9VgnQs8YO5xRDBAQ3WxE0HFd8AhAWBL5frLQdvYXGha/Mz1gHfgdjXPmPWDmOd8cg+wNLVhR7uvBmFBrSW+BUqM6RfJ1cSlgOK+0eh4hyqqztmkJa4WEXzfwpIlj7Hek6JA4hLle6wmXwIU/aFEj6q3QzZhNDW9Z9r2aWr4r8xvhCeRxU1NjG5ANHCLIvAEoQzrppZyOvkcq8rwtEUpXQU0YlkVq9lSjU7a+BQeuZzPEmBl6tIH4jw8s/ws+w1+CIdbZQJ1SkeixTWy4eNBpgCvyBst+/Rauq8nH6Utz61aSun0RerqH1PD6J7vPdbVVjLfEp7RB5+QRxOULXtRpWSDZ321sP/AgVhCRDdQHLti7HOc3+37en2/e6AmRoqApdIZMRf0ebfN5imUYyKDyeKYrGNtyBR5AYb5gmTa8xP1dv2xt9b3q8+V/THTC2cvVtwZ6LTnhaWG9Zxk1fuUT55WufbYPPGWUq12c1Nedn9LAdYu6OrrD3vNxVmZWSj0tRW4t/9C1Mkwcda/aLpGCKuN++/1uSBJUMLAtnjQHdv0j/I0sWxaGq4vg5//x9PXzPaTmUOkTzTpvoseYYAgsVoNRKBXzF8zmGCMpDIlMzeIUgUazAZdIBK3u+/4qdX0Y+64CWI6pWwLz4+cPA4bSsVC5zw8hECONlZaHayz8NFV4vvT59+BnuzPxvOJLTQY4IYXTGSjX0tBb94KSg6RzmfrZTpUFPLulx73Do6NH852gps5hPqSYBjNKbsKorCualprDk8lTafoXiyx/xjU6di+UgR+XHykb0AJMTjvTXztbpavZJ3ewF+kk/a6uGdG+oKDi9v8a+9Notxk+Qvfvoil1/mUk/r9cIfbU2tRPLTp83R+P/FADM6vJKEH2wfTsaccrTbgFUEXZrccCnY9dsdrhUqgDNJ9cZRcSH8r38KkUpi/+YDBErKKmNautzfcmVIZAVMhFK9mRdUaMVxWfKrck56OZUOd4hpNKeZPddaNlLeYLS9KC8Jb/TeM7bH4aRb6f2jTYm2hSX+BLuxsVDmKmzhhc0lNCXKTSXYLz/QWl9RpiexTaMUtuPcHPh9piXak1o39TVh5csbyhcPXnsdwjw3RVn9IJ2MGBonqhrWfU42YA351jhm76uAyEESQOd/zJRnVun6isoqxt+TTq4G+xD1jFv7+KxhK37mj0HU0PHywf5XJgT+KbW8pglJ0OeyCb4FqZxhOm5YF7ZffYIHyuEUeoSShxuzF/sjh6lv/Hfl19eKAUcIYXQpGRl+HuBKwfyFGpGa0L/+1guwG184RjRqyqvzuk4PBogH1k4aWhTKiZ8dxBDb36fKu5kTyJYD4CuOuipk+bDuftPwIexK/QrGAAqfce+XTxTb132IUxBtEHdoYkpeuxIjLs2ke2lnnYKf+05dW0Ye5uv8SvHuIHxBhkJUbPLtMAaGnkMj4qzCzLUHFycvcT0/uhGwPGVVrH+Ml+kHorjaHEn7Ual2YGv7L6TpNZXp0cPyTh5kJwyKsvpzS9LUluxxQyLF9lPQiCiZbPTNkZkfD6ZYQZx/eOB40uhYbMrPjrbrLs4upcH1ZawedjVprO5lphhPDEik8Ysuj57H/62/tZ6d94uceVM2zJWzXQnZXFe+INxLtfXXlwttrMNP6oQJfT0ClAnuRvMMSV329Fxi0BVg0d8rFQbzMdihf57TfsbBDffexSD/51myJ8LKI3LnjcIrxlIwVrce+H6FpHnvQI86GgFXo3L3BznIojdL4jBD6uJwO3NNDJhC92AZGsEItHiVKlwjHktNz5UTpcurznaEumfTVzg7hy7v2JEseHUdWcd9xMBGPYlXijUkNaT6hJYOFpjtLAu4tc3m1ZoGMuVdy4mkNykJFYScmtMVpdwReZILWfm5fSeyoLeqOW0bt3VjmsmwHQsAOXPjoHz4kLxksdXEdiWJcx+ms9YsKqZNR/rSbJiCMPKewxcYUQKl0agroL90IzgsvqAqjFO7lBXDoChhth6Jj173rpCZa0d7ScDilwZCsSXRZBYr1cFiJjiVmymxV3qcdoRdTfaxnLj3i5W+MBthDEMlVNcGlXcO7vaiyp9PQ3BHFyirSwSSkTFStnFNb0KhyEfZl5xudeDP0Zt5Z+ywmjvtCPNYDaWdfkGL1YT6rNqOa45TIssg9nAZusrrJyk3DuF0KPZ8/yA7zi+lrgpNgm0BJVnlF3bMgLleV6r4fkbonctIjvPoO2S9VMYEdhXteQXReUn4eokyArMacI/IDZj7c+Y/g9qaTA6jmq9sVucV7OjaPOUXhuG7TpvgrtAS7VcU9YC0UNf6rYoZ4eyifwdcmTfDs6wandeUuC0k/RxYKXQLfH8o5fbTS9MY21fWzpGIWGjcDd+/i+upcZZPry+1rVWW4A+wlZkI8nW6aWikJLX0k3+DnMo+WoeQ1ghEFXOpDklnCr54XS9YGBNmhcms9JLHOSoMsu6TSsqQ6n5FXyZV8rvDejmKtAOndoU8zc0BK7wNjFuKzJy6YykpcWezofr8rgauSwyT0ViFN2NWl1KJWhUrGGJtIy3nEnPPFcxfWJhECPU7E8JWiDCsGyz5QMikof8R8vTToLpijO7deirROqo5sIPbWknxGxZul4gG4VFtPyLvXoGVqIjJqvC+U7J6ZTTOZnODWKZKuzjl5mxZbE2rtl+juvB0JBtW4PPvAhMRqsvyqBaXrCmqlykkOuBu3YVKRWBhgQf6/ta8o63rRlC/kWrG8dtvQap3vnhwXQ+uy+ZAbN0Rf0jJNN20oJOhe5f8QdSNRyYJIhx8ds5qZUcFU9bk8FmNI1S2jZheKTKJcYYkAiYHfMEWQ3284W6D6tuasWrsDB0iiYqqaWgRp7pnxTWrmzX+I5MPcdFsql4N+onI2LpmE31C+IpNA4kId2gvM+TwKVJD+m5emDKCiRMuuEm5NtvSY/xeP/bQ6NPmqyYz1DxgSPuoq955qJ/3EueBI/DqTf6i0SKXsGMauWZuTTo9vhqNqHB2IrN3qX2IwQ4DssRCXsGX7KULSaQ5zfAE+NLWBV81VQ+LAbfFfB7eQ/tzhiQA8csAwSDR4003J+nClXvgBlSuq+m/1d3KI5njuKiBG/+hYXbOBKzrOBAVzreiyyF1Ltn/b/OhroODtnt9PKng5IrVomSDT/N04jOpsPfNIMScs7GGGktwA/VWg1/bIBPToscoFtwnFzrNDAalNiz6v/1bQY1IhCEGTb+iZRBLni+9GWEkz4B070Q0ZwGpYkcFK3G7mkY9zHajzF+fbgfVioGJA0yHAWEJDlnB1kA/yTrmkmp8rD34OWP9XoJSXhFM0w8BiqVurznftor5WaTBPDAfYtsilvuW7eeg6zlcNNFNR5NxI6W+6TJhvyTlmxMD+d3HX3N3bpAIs/EbEYud6AQV6bvfME6KslokRrpaM+sTnMYMlcI3B5Zs6QaY9H/tQ4bgQR660eQfyBCMD5qM07GPmXp+1E/LJsa/l+wGXD2Q2s0uIMNOsURYYpgYzlqS7pT9EkCulaEsJCf/CQQrjn3s/yGW7F+Am71KUSykYcUTvY1YAHYxLPpsG6YU6ktOo6Ijfnv238IBINiy4Z7KNamdOw0Yav6+JHvqizFidf2yqcBjhIsG8xEKQbC9ZrJt37Ff344WSo4+CSEZiRUTJRq6I45w/4B4DXTvlFH2BCJ+Jd94v5zFW+Pc1v0QppCvA5J01leYf16OF/JRAWEHU4er7o1q4nCNZvYwTJOJQvTMyeJNMvy/7jFiiv39Dsra6/i/z+sK820+ZJHpQzCyDVdIaV+2FQTR5AVSyG/YNldMrB8d2sLhu6HxfiY5ukFO+IDkg3zavECOFwEoXF+w0kiuBQ6WN5KY1c6C8LuJh/4XsMNa69BvaHY9Wl6Ztdm0Z5pA79n2NhPt8a5scKZtWZHZ6BiN2IeJD/WgC3aAE6XeIdVjuTuV9f87weerWypCtrRYI2etXLhFPW1OEGRjPbu2hq4p/NQXxDAazgHsGUiphoidK9idr/Fths1Z6oNNmwiN5oetRsOAsGi1tCN5gUAJ1cvb/Zv1mR5qp5r+ETznM1zAZ7RJd1b7e3UnAhTsddXkr8jSrxtIZyyV1ojV2nyQpYJYRlVKVYwXJHVaua1VrDjxEUgK4z69r9QWI9KKwUFTMiblbhoxChqcitsWGe1+wHrt6PLIs9NBXeNBEbmdruqGLMocg2dqZto9R2MWmlwKIUV+hJ1yngboCUuSWHNfSGvBgL2FntTy4iPu/UN3rtZw5rXCPvY0AK0AUu6kGFSxh5fs/Dhd8+bMg9tdT3NN/wgD3rdEUyndfOnyGZ1Cu9g3aAQmjkAiajhWNI6xj+GODpY3VDPLUO2MpcKniVA+GkQgKQtythzB1PBDOnJElxZNbRjx5f+FVHu10TDcmmOC3i38UlggzKDl+opffizrVlqKcFsZrag2mZ5Oi8PBtBOrw2SCHTOrWfkhYg8ZgkU5sqkdcMDssp4cWDuS5Ho6GT4OM5T4bKu2oP9cm+/UVbdV0WC8yvZcsNoHBLCYoIHCSWHgZusPMQl/wh5/CSzllw1Liy8sovE+NG62BDCkowfVdR2RinieJbtUP+D7fTnGZiyu1FiVZYtUqqIR6Ft3egLSaucXmX/2jlkaTDH1tldVJ2qMwU6IGH6d3VwegLuR69UDBjuX0Ies/lzKNY1LxXmPiZ6PsAixLRyCzFjmEevRA4tmexhNvz1Y+EWMp9/4helW2QqUry/iEtUA4r1mBhN3DP4eJ9VdkG+7UXlX26+BbNK6NNWlC0WKiFnFN1s4SmZfdt4qu5VSVVU0EgHCKg4I74yLcaOWV61wyDz/LxTpnBvlGiBXwZxsupAPeilTw+OLGoLAh/GcWOepQaS9oAVdw/HhKSl3uVq4QaRGYU3VHOSCk2wNkCrDnZapYpYHSbMlIdn9RedXSua2Ud7p4df0m2gHnv1PZlUHMTx9Epmd7EZN9fLh1QripTb/63EqLIIINVNdazpLNsKDohJ+h6myIr2+WfTficL3i07s1MW2Wit2jyczkfQf11ELqfEFmDkiUpahWZHuYfLWzSUOVVVW5KV7TZVn5rCLj75zCR1Yaza8PJ18RJO0eSytZEHBjvsTzNJbu5CEfqYmQwKqbzx9am2Z8tu122EDnltjfDo6iza3glcn1HbS0U2qG92VyV6ppbhdVfcDQ7GTh7jXeqQtc/F94CWeMW67IIy3M2yRSkqoaWZiqZ7eHWxtwGunis5RqnNKuCBt+KW1BcZ0LJkOEmC1bX53DFa77BEY/BnexrYiy7os9dPfqoNRQnsdCYn3H4CHfSEg2CfEZzYsyo5P7in5EDHquQDb//i70YbD39kMVOg3fs2OtwLxJJhW/uW700p5jZW7iuDkR5Dk1iAHtw+QxKKtd2AblDi1fgYplYGydGvjrNYJk+MYpLpVzqLsn3Mt0hQCRkAI+g6k63oCCi7Kxfke6KFbdmdnScmrg1ax8ZHU6kYXdE05XS7Th/FOYYSi9kQLOrOkiQhkSdCoG1ZHGHRupKUNlB+b2X1PUQM/XlXY8JNsgPy5OKSS+jgoGYHmYu88mW6ENtEhAO4dDWlusO6CStDQcvs8UNsY1NJzF6NHfVruqVKxdpVMDP83G6mw6b0fIRfLAxeKd9jTYmiaiaW1eXFi9bEUAxqkwDEisrZq9jZ8vdiTV/Lrzj7xSVBc/Qde20gdwR3c73qDuvmrrAQJuzKwOkpGxHsPp8prboUnwpcj0skc3iUeBBdFQ7EzggIjFVU1F7kTGEQT+DMB5Xv3R8r+4EBvmN92mU1l5WbpJtSX+1t2u0rDUX3aYvOkep9sHi0Rz3R0I/YRHC/b6bVy5WsR+UL8CbXt26vML8IAiRZxUFtyG2/M5u1uHypOuqwrbfbcZpICng4k+U60Vqlg7Yr5B6XbeMg68M9I57LkQCdJ58FvzCTOcfxkGfGdv/9yxM7cI7fK1var5zaC7Uz5gIKIRON8WULP5Lqu4TSkI5IDuC6ixaza8VH8uT8CH7EzPttO+QsfMlateXKfXUcATvVki+lkqC5YI2kv0S0zKO3BzzoN5SMzsjiry9hwc7G5xPNkNViTBJJ/LNL6Ek2gZ3JvFveOTGQHhSU31NseFBjbJUo3qA4ouk21bYNRNqfnSZrqVj3ZCC3ZQDmEraHDU+JL2Jh26JfnFW+IJcVgawGIYlJJi6f2BZ7Ap/UVn7mfQjGNqa3/unF3lF4Q0g74/LzhPhTSwD4L+vJTgPOKMJxU8U/hhKRR3pNcliVWwIHqCHcxIJNoFZ+KxuqzfOGMV3utpClR1OsAQZ/V1xeVc+s0A8KSx1cWCTAwhu6PxMJ3/TBYctN43xu2XpkdUi4ZBhMJ52Fcm42V9Zovr1hwhY0gukYobPoYeKycbgfPmP3fmSl5hT0UzpV2xjKndeJwWTMsSPfywXEMl0urdkzlXYVa9nlkV/qJeGvXuz9bcm9gPlBaIv7STQBnW+QAK8+J1e+eSVh8KUOFypnXFHYkccSNR6vQX4D3Dn1KpBGaUFiDBknbxVfGQ7yAFntZ5x8X5B0jR6dfQMaxnfZPRvzmaav2o0a8Dvwi1RCdGqGHgVZNv/db9ds2r9jM7RmEFsLGqeUrHob4ptyo4unz//6pR3vbDvV8cKDs2IIjTYySDrgCW2EKqqavt+mv5jSYSSLJ5TTVl5pF30KKKlITbuWUVJMUgr1zXpQcLZRwZHgJ+umhedFV5gFOqk3QVGuTPK1CXk49xEnxhWf9B5PtETdUKBQo6vm1jTl+Hjf4FMqaOU326XnttFTezQ03xHMsO+7bavCin3YRxd+5+HcKIalfTZg4XLBFCChcyrzUwXCRwb1KBIKG1ygURv3cRjHS6171jvjVc2yXO7pYlzyX695HIeLzKVRsNcWcV0mFqd0yIvyHx8uyaJ1PKJgez6mQbdIULDdm6rwpm3fAiuGRAGFFQ4J9xFY/9Th/bjIAE/9Doh2iUoQ8EaqjZlLLDfX08r3FxKsZOpd61mkPE1oD8RVedd61sL21aCNeSt0kG4SepqMvtV4QZX+6F8iBxfkMQZlMqccQ/KSqnQFLIwA7JksBzJvb6TtJ8MgRd1La4fFyFXiGWZTe4PBLpbg/D+Ofll4N4+koHFL7t2feklfsO4cUbszLLEkqj8iP65QkkZDqX8ir+kNVOG9u3u+rpbIKIPUQg1wWuGOIu8llxtHJ3LRc4lLaPoTQhYn9Gqr8T/y4qspnR2Q8ejlNQ2fpPR5jQupj0euZ9ooZ4llZcZOtV/0qIlzAd62bO8VmKmtyBqVK7U+ofss/al4uy4+1VWG9afSS1Q/uk9hTkRX5HV3nufku9IQe2UZXE9NGBZuvPsufpINTBWD9PCM3gPuMxBOq2Z33m8TAhkReaOwZuZz0LMcH/uMH/+74PN2BUdWCUZh83a1WCfZDIQaDKwy4XcPi/y51XAV9SYoo/8TAj0xCDkXgUjUi9PuvILjDcy77BYpV8BBq3DXE7XlvNLM2s2TrMqWKwEZxAyr7NJzuWb/jTg2jjyhzLil0nkrUnO/oZr9Vdo6fCgkpDHxWTequSdt4fnJ+hlCXH7k8V6N95vKUpo5VaPxLNeVdV9J9DKE0pvSFz3D1YRQPmm1C0FEiPBnnf9U5v13RfilrVkZxviXQwslBHPz3buJU4pKs5KCoMmN7phW16WNQfYPjLHr4WBf6CRK6+m+vjAI4X//XZHRh8Uzrd/ltojBBJAmMXSRGTR6lH33yQ5SrVIn0etZLvJiU1zEjVnlDuh+yTczc04rR4gFScyhFoCl0X1T1oeCgfDaBUIQy71UmINQ+NOvvU0tH+HhWmanvfHMfdOsf2fBg0b8bKjPiMvgYzn4rogNHnTh+JhrBkYEXMkyhJvkJmRC7vrk1yvuEy7dxWQddlIi72qIZhw6kBxB4jqeyBr1XtXOhwTUZwWfixZ8fsYBVs6mzfB6O03xiztaHlh9uVi/NhviwLc3e9SQuR+JDuKiNYFIWODFbhC/ojfEwyrLNB9VRVm/mxYYJHTsz9/HBb0Jupcw3DV3O9go9YKTaJco2U7RMhu5HK2fPKYG5+Vx/vISRnVDmVukeBSf8iiJE0lUYsYcvPovfbnYUSHOZ77HayLaYriuZKM2iOtJK5QS6GAjmUkwLLFI5gDoDyo64A5oPsq9uZjUahiIn1tVhJ1CKDYhZX+A7wccN1MH/8InTpcZCqgDak6iQxL1s/6I3vMjt+kIWfu53E+iizF+0ls1nhC8BpnzbYS2Ud0UkvG0SFgy2MM3I4c2OhDvYvrEuU74uyqm4YI0kYpfhbE7VoO+DbkLrQzepa3hH3g9oPSzD5sSCKyF6EurZJQGwJbARm5lzrwYCYaBmUKmM37Wz5EzFpmJqPjUutr522dAdTszaNo4zYL3UvPGJhDZbE8NaINFAGpgmEOJmof+abUiPgLcT21ZbOWCeh1AuJjUDYJwbBLmGmnA0JVegr3r2qJeaI2mtZhWbRyEFTdKB1G+vUZu4gRnMwdsU8uQCyMvnci4oTtQZST1nohGW1OjO6bXceBeBpqPk0RPo+dw5J40r6KBdE3vj7wzXw8uR4TjLXUV34TQJCqU5gocJl9EuEEoy7wIq9YkGZl1zdwxt0u8okPjfpTBb8pUOx0SNe96UnlUaT1+0SOpeu/PYUWkEb3FsKd51e7Y0XpKjuO/sGyzxXf/lgju/n3kKpffpohZPKqNUz+UbxMQhGvzzFDWFjx6j0V86mWH/3L3Un9zgqrBPDy7Qqov0275hkEChzP/LzIuuhL8le17bSdSxxURKnRTSgLvocX9jkr33Sbga7S951evTbwd9K07qmMy76tPo09NkqRPbWT5G8Fjr6ZJjqulHa2adXVogZh6Iq/PZx1DVmDo00KsJJUQCr3btQwcZEQOES/q2nQVId8nTm4+qxYvlPWcJmhx4dkb2gbwlL3dSoVnrsFW+P8oU9gpBh86FjAo7ne92NLdi1GFnb6MjFUsuVou2TbzBT5mM0OuOEWtxkEYZkzlp5BPYAi/zEBiqSIwCUDCq2xKIuDmOZldu65RFXoWYtnsRkvNep9yHIzfAeARiQfTy09E7EVoPSbL1IcXnAqS6ElAaWBG4tDyNhK3F1xrQtV4IP39AoL8n1LAYHTlIkJN1XYjy0p4ueshAnUXsKGhld3LtTkCCsLzYsBEYfqAABV276UEvw2+BYoF3L4+Y74EYBLrij8IFVdEdxWtdYC9063doF+7GKx6MVSlORXaXAFNKIw5uYldGLN/DkXjVjgk+NCD9raYj6T3l1gIRrEjj2ZHGxbbSIL1R6bjzKcBA/uz37JzJ4hKtJT1paAvmNg1wAAOwYfljEDK9FbMH9W0dNvPfEYAp7SMR8/3dRcc/EDsyVLMesWsvt9k+OeOR6lxXs43mxASM3lhcBJRdsupbq2HXexTuROuhWtt6+EcF5q+FYogFapTxOaeTnagRBRsaH1rTix2GKbOZ0MFGsBmrOJBEilapyaGtLbnUe9WpJcTGTP87WggfbEWqojzpVBum0NH5krr632S5l5NZ9XRdaW0OF+vZ7hJsZGggrRP+jAcG5ctD6aSIp1yraI2R4bD+6KXRvD0aZgy7j6KiyZCybo5fX9eE2IJ5f02nCgU/Sq60WWKeWv+Ma3ya2HunbLqkSGA4K5ID4XCDqc6V56VuOK4SBfN4QHmepLMCpp50tW1QGG6SVXEvueWIazjICE8lU8puS50hNm/0gcDEYuEpRg+etyyW18kYcbJzIkBzhk69/TnsQyBZga6AAmimcNQNxHHoiV4+uuPIgyQTdAhchosyy/1g8ITBZZJFmprBsE8smFL0CVXaEBD3qVTIMCMpxZdz2yd5lTgfvIwAc7Oe3yQ73cKhvjXakLXObPhLIUL29kY28WCNa5kc2Ye6gfxmwcSmkbjiIyNa0R8a5srgeR+LsyMvwXm7mDV/zSFrtlGTciVW3zzHq83pY8Ljnyyd9SOvpHtdd9yOx+6jnkV67CCnxm5lNNr8+e9VakEJ19K2ekkv73lYe/aVmqvPyFBMDNbmxqTduF8gsQXCg3xBsVcAQfWZfZBOgAwmYf+5oHXFDzpwwS0eiTF3f2LMzytJRWKxZY01x0bAmQ52SdGEowoQPieYhNyoDumON1ovNE5f5s1F09y5ZNsXbRx2tpHdDB7O7aA0mSuvSqzSBMYAezRIprFQ9fhGXkbnBZE84Vi+7rKMwfr445kGEC2iLojowdbq8ln746FlgTn1O1Mw65fp/kZ9eMPgbIdv+sC9TlUOjiHmlsPw0+kv0yxgKe2jfY/iFIRxv1Io5v4Efy2d2jZsAjYk98AE8wujda/uKhysebiSSSTJSOa6yCqkAdi9aQTY1BylwMSY6P/f7rLn4EHDNSCjizVsxRCNCmUH3OTvTcukfR1Psyc+6zAHKQR7h638rzS2fNKTrARNfktkMiBJdjXVuGnjpnj4jknso6Ruvw0lv/BaGgUfVumCU75o1uEoRpd4mKaY1RMleX2qaakP/HW54McXrBjcXivrVDKOQQNdrd1gqnN3jfufBg2k9Q4OZInh2AC/o0PqK5EwITht00KO49PwnoOIOhWuT0tc0CZTG7dn7NJlH0C5ZVeA1wUT5CME2mpMePhIG74qOCvJVzW7rkcrCIPAN2Ga0PFmNHgkrfc6vDG9GtRs0qkxUQRKS04XlTbl3r2D6gdOYOcqdkwO4LpeYw70Ox5GJZiNDI3VP3M/yap66HY8H/tYSMoGef/U+y4aHdV93eWrUTJuMo+hzs2/ktu8oDn+YV6MELReMYQsIlFjwyNJPCAx8uDHWLJabYZiwdgEE2UXgs0hLdiisVx3i/UxKgosaVtSsvr0qRd5Sym6pm9EuzUSXrgWKZxSQJH0yir3dSplPbTKXQF39ig/2bnsOYg78sHqK90XZ0mty/OMGmVM3YShzlwnJRdzWIwbx29swK0qaLevmIpv3mEvt7kHMtpTggUP2EEFUkyjAusOSaV+V0w3NVaInq8u8ooVUszFxTQkTOV8NMcjt914fXpmmXD9cRb1azejoXCmdeth2Gpx/0bWiCzU2V6XAJ0AZi4hqO4fWi9lWYY6Sznf3eSvJ5rMpKB2CgFk5ZuRqgnzpNxux4TjAKvgz9cF0ewSwcp6NejxRTRiKfNkNg4tPwnTfsMwWQGGYxUTj3S0tByFPDEVc9zB2Z8rrD9jTQJeIVQBjsuz7TmUOUh0PktnbjW5V/Tt606IqYXPzvHSeyBetYrREZr/ZtddX5L/rpG0LJCQ51hkzrN8AVEnToHPFqeQIlHzUK2GL7PM+vd65p8HYIDWhs8EjBoUDMNTfQs/5wUohVumuuUoZIqj5BSZa5IcaEGoqPj0ugYJQIc0dkisoH3gf/S6tVjpU3NQbL8csLK/pp2N9ymROCarBzkh9bQqJ95Z5dyxIiSxckioJTsfrS2JSKoOuUi5qI3AatWfl3qSPlrjCAsHmyhxVNyI0lXSzQ9kKviwBfWzoeTgePgpMy2U2nktG2V9yE1bJ/R73maelNt/DPPuLzbF9+nj76HyZj2MLSWgZztj/0cOA36dw+eVDQH8uNbOopZUhk/r47Yt1Zc3aCGNtAvCMNXb5Dm1Q1i15l22oN4MS0DfoyNwXSPmExQ3Ih4sA9E1is+bgwfTA6KlrRt+6RNdSjTWmZUU9CghbAWP6viDZQsjiDPQ3aXf9HZLtXoo6LAMbNVMfCZ+LpX2E9O3GEc6YJIxGeapmcMyIYztfmUzv8Jy6TMWMblS8jZnosBBQL/td8794TvxjTaHsSRs7YXhz+cUTbxbSaqpVzZoAI5xKDKvRG+bohM7sCFgMCQ53JKRPpYtoTCLPZ3IyXf2tne7Ha/F1TxtYweDez/x1DT/N12ONhn2bzOUjD9SyUY2SumVjrNIE2tNInZ6LfA3DYG5J7zRr5XYtiWNTnEev6g6u3HeecVeL82xDzCgu1/4HXGvzBI8fft1C/T/m/3oKsFS7ZFNwsMqcO7iZm/zoQjfowucSX7ICCNvGDagv27i4cgmrrGPSjC5/RThzEZORMna1L7gufyMnUZJkXc40KSnCW0SCxNLpxQDFU54+3mmWUuvKsnAeQxtfZzcrNI7Fcv7hYwPA3T8Ft6z7AAkJBr1iMY8efZZSCsBadJeT9lRvaA01mPAUHDIwFRT/ab6qSm5FqrIyJB3Jl6ijOGRF5gMz16cvRBI8ZifrwMsnHF2cpFfpv7u9yz9jHUa/LxqkA/7UE0QNlZlAZ56uRRcT5uH85M9psUjwzYWnNQ85nI24KLr2/gPWoL1iMCYUB4ARJ/wN8GkMyzCx7lYhYXrkO7fktW9+Y0txQETaxj8GDnMJa9IvMgBgwPwU7ezjISAHp3/Q+YHAqYEnxfdWL0YeNKnmjwYo0TkixSnv2hndRXRtwQ/3MVs4aRVTlpUJKGbddMKkNjDxF2XEQGGJ+vocPJ3XSK88ZH8kBWJ6teXcNe4rCE+6xNPm7SDM/D2kumJFtEGe/xeN9ABJHU6mY718DiP49Az04rMXsOC0DwohermRfWEn1mw+zXLe1pTsvg734d9cXhfEyORTDJvYZ+q++RbsNvDamUP6OnmwS7c+bEHFKR5CSVGgF+svHozF+4ibj+2d43OjkCM30zCRRGzC7BOjgfTJHJmDW3+pP5LlG3yJ3+hlU0OxKwbUfl8pywftmjnWplKujeuE+Ak/8RzrJ6O3O0V3xIcsEnRNa/65YFRo74tZIxRJP2W9o26mBhFs2snTt8wbj6PO0OwhLi7CkbNpMgaT8Hy/EBAVIb5i4F1Wegtwl01/uKdXY6zNHsgDTU5BjZe5YGKEwfT0U/JG/7AneAtgyvGFQvn+IGZCjYmAmRgHTju27WWxsgrXAOKf8I4KwPgDJI8tHIy2Co45r+GUMePrnKNqk2YMe2/63xKyQDNytDmS6CM9kVTdksPUX1N/X72qnyxdciqeMyG3oRy0UMzjveJ3G3KYOolLKe4bsR2SfO0bzPRd5+OnhUK5NASf2bm24T/8eVglXlCEmnTKYOLierlYbUloxzoPIn32Kd9V5kTpG/XojEg3sPH8mXLbezX5ow9EwS1wL7IAjehnHxpKVIEP+BCn9T0/Nt0GnVXXRVNlgFqdE52fZCsGitmPO4plDOGOjxGS+DPfSHWLxa0Tp7Fb5mU3VNiLjfjWQ5t/gnKEOK0uthWxnrKfLPipF/ZTavB8QhnULsLZFCU1KQKzvx7Yd1xx86EF+AXJLKnIUMcHak0sekFETti8BcJkItemMf1a57o8PYyUp5mbEPaz1aB0HwbF5FIaVrhBVraFPmAHEDwXn7fnj4m7DmZDfA5ev5rbkQ/hhRoDRjmvHLq+Tfs7KF1qAGusJJ4nLdhjwlwCQDVI88ZprUuoJhG8+aOnxWHxUrLxdQ/P1sH/lTYDqIDbVCoWT6ABRayXFzKP1lAyxTjXlx8zaxpevZKfq+HTxKtEFiPrEXD38ZnANtOlz2ZQNjxpymst7SzHnZsiPTxwuePhjWqanI5AW1GmnF+oLJNKmdtobfDLtWuFqP4jcN+REDvkvidP6R9nNEcJPY8IPVoay76vybdh4dBm1BMX08PbwNzFPP7HAELQYVuGgA8dPdAvcHGxcdohoMKlI0NMus6T54//0Q/XxmhMspHDhWscSYrZA4jLg5s5mzGeIx2q9UPcRAxcYEymcI2IeGU9dgbQbNrSFbS70T3m+VfW7aI8Vf0eBXMC3Pw82XSyReGGrWL9TCDKw0BqUvQQ2lSi7EVskUHeTt7NvEQDRhUsEaSngk1il8r0WwdgKyh7zT3FNAf/5GlZ+aBLq7vXvpTQipm71dr1alLui+s5R5M9vkHWWq9qmKE5xfUDLy+DkP9BQv/R/jq/bFxq72AyNVVYxVIVAIEZRdPN/mu4ZInOTk8MyYqEiOlbQoZs7qRreqHpoOtDhfygUBkZfWyptbQyMPHnyV75zHGk0+mIwa7+7ZpBjzCF3Oi64BvC7xMHXCVkA46aVZ3+jWwMSvtpY8R3D8dU2Q8mmKrFJV4zDpGI239jCd8Bt07lKNiKtu2mPLGtUkuc4uEYIBtsJ8UjGh5NcjIsEh56XXjNrYK2gmb0ibtCMw5t72aICIpKjf6PKiPRNkBDVXX9VPJwxhAeEKQEzJ485TnVbZu/fxIGBBOsbDxOnpXr8oBPPMBbH8Nx3lGIyMa3AsKXwqEBVmijf7cBaWIPpCF8phLZ5UBNm6yt5ABudHSKmH56mWUNYdsFFT+kTImdL5tpK+usVD42dAmZpDSDDIxABSejAb+yIHslArRv1RpH+oOBEfh7Ao8djqwfxk5ChRVjZLvesUNCMMMNZgak6WziGg1iETb46GL7W2mx3yJMGRjVROVjHXCxVDeVQf+Ohnty7QlHvinYl0hfZdvPkGKYvvuvI9ZqJk2RXqooYdCAIp/lM4Ibte12/+tFLaC8EiTl/jKMhFFf5QiisvGll4SUujhwUGD2Ba/x0aRg+o9UynpzWfFQLIvQUc31T1lUXlLyrOpq/8oAyUWZkAECILGfREnNlGYUFfRv0TWx6OpdSw6JjV6b0aLxl936B4cj63z+o3opIg6h+H6az1ptltFiepDg58CbGfGXPLfdATgo3pojIf8F6zOKf6JGnc9/Py3NdMHq2Chj18qp9BtF6jNt7TNXKkH+/+S2nGoTEpysaPPbTKOSiQkHb/KkL9eOemS8AoVdBg9UXhwsooKwfjEVSO35SP3+myWMWFsZUHx6VWV7DtbQH25VTjyNnXLIDErpKXCWxRYz8VHEoBXl8drgyRvvnLY+1Bo0Qexs6K3BliSDRANDO3z5+jv5pqh25ojyHvIk2OH//ebTAr3S6kkBZmiAPEjLTh4gwxpC7PPuCZ+yR9n/viiNJsMevxO4242H43Oh4xvog774HSnvLnGxgNGLZ5LjtBTZ7Phqu9AmiWc2NUWAV2v1WA3L2a4YO26v+BBHf7SZIOJNEgs3nQ1nz7ypgHn+bVDurSkEder01COZNu2y83e7iUi8dtCCfILLF66bGbMZeSksITqCRnb8UPQA0DT6QXpkRnynd+HRxheace3tT4Y6URZHB5WQqxv2qOFYQp4lD9uvhkFgZQ84trkt48MJ01YVz8xYYeLoBNzEl5M06a4Bs/qYwKWIi0iYhzl/qY0rGU69j4HIcGGlUKHfUwbfQmeJQQCORVqzSSiimkr6V3p/LUGESk2jnSG9YAMqr1ZIYpdhYBz+QIzSE0knpg8AQx1jH8is8gPnjtfcI29M6qT+HtdtPNHfeKkkaQYGqoGBiAhzJow1Ko15CYHW/2WPPQJlnbOilmOsQgVpYLsTtP8K17Da9GAvBg1M1kmxeUqH2zPA/JM19WxTL92pNp8mQLqY9rNSkKjR/6sKm0lAd5MliBiwRAITJL20BcUB+YuZT7BmrMCLTw4H7ULfHxdsqQwjidxQLBN5yi05NB5GNxARTgtACNLS7JnGGZWSCoPhlYRjHZWkj9FVWMSzcZrjK/U6aE3xP65WVI+i9kP32FhWlkaXiEeswYSeOvHhEt4QrYA3o8LL0Vto9VwB2a9qnEmsro5wnQrGvUnEIuPBEgPemxk6UWQTLjJZ+V5geF+ig69G6NAEqdUgDKxto0RQig0L2gQ0S3hkItoryHZ/GZqOv68zfOPzDwg+FM123q42nSVLS7FrcuT3UP8Mnbo3vl2sogl1sjg9SJ+k2jpP42+0Iit0ToHbFAGQNbVZ7WxIG/cJIG3JaajBCMkU732an4T2W9OR84CSM7sJQYz0u7rn2mItA4Y7uTS+RvUMbIoG4yfEqYQPvrG/HuTZAu2h4wg54k1BTGJ2xD0XeL95O3JNlPaOjgFD3UtZ1KAII3lc+aP5JEj5osbDMCflY18lnk6M+DmH+2YFiu2dOZMxQb+FpnyS6kCoQfykooi/nFU1lpzVnm1gBsJApDN2oH2oHuSq130uqPVQY5iwcQjPDYHbQ8Kbef1C5ZeKBngfWjObaRqdOw6YJF8J8OZjE/cAnRULZW8nHZJ/GGT0qIvajBm3sNyh2G1ypQLbEOtmD3YZ54JFZLKkcwQ88MgG9rTie9pTeCul+EerGZQQX4lvIm6utgMll5ETRD14lzofUPcYScGMMmBWnIJCQxwC5QyAotZT0NLZFHvQJ/idkuZc7iVT9M3SZN6plXsMG6wnxpaZSpgl+qyY5gHYkmT20zhRuDBAz4K7sBzJ8vl1xsgkaP4Cpjb0APacXlZxzzX4Ge5FU4HFJP7vGvYWEhQlMmFNsWSjluVHe9TENo8qOSIaq1GLOPzrsz4ZxDDbpLk7XWxyw6/8XOrgoMKxCI3H0+AuSOD7gxIJkRa2UvgZBqKmA2Y45eL0JXdo0lctLDZwTVcbOQbfz+VAICCa5OWmfzoaiXwpboSUWk9C9wQ+bEfg5TcBqgGHKxKXzqI6Ivcl4+eanyc0TCRT/+38lO9cX1GLJExMRkWQDDliGgld2Rl7x67QNTt1bGuVCPyUe/Ucae1k8kAxxlp5yFGWjpp/fDwbNXcvaic640viRJBt7KsXq3joHmQUPhaIS2To1GHOF+W5JTxN3GrGtKcFNX9smpjjDlE8Ai3cj2USjev8LQhKsnU2vAlylhmuDINnLRJgxkmC4+8aujQMs7S2Dyv7buE0PXeWBkZZNTQTbTTEK0LdjUmb+qlW4oxijDGosexqmbf5SOBlVvwf7uOuhQFVoBT375LNEVx58U/igce0StCOV7krjJ6EaxI8frBE+dHCtJ3NKmgrC3v+m7hcnoyamynQryaNi11mnVvZJlDTFlFC+3T+uIS7F33M3xaCJW3GVMamSzEJZ4Rt8onc4UTyvGz3UrpdNIVb6TruxxFLySoGWIysbBqM41p7DYN5ICdyYMLHVqIIIf1d9CDP9OfPf/U51xM9YVxAKcSgMZpiqDPH/9ihPc45WuUS1BfFuOVvVC4MklDwW3GoRFHjdRJCcYKgkC8BHxNSiuBVsF3agr/XdXMsykZMp5rcYrI7FN4XGCet3VoG/wtNO97mJ7A3j7LzX961iYYGSDvUHfnM2BxzJQFw0I1tH5ZxDqwqo9pjPAWE705iN/n3w2sQQgIKR+ZDO1r/KLHMw3f2DKOzb/a2M83cshTUzJWMPGboRSzrY27HDjKcSlj9DfQQgJJBslkYYRvciir1fn/px/OIcBielEASa/LaI638DaRDHxzUhRB460aTM46txLmpeDDA2S4JivwEcVjSIomhC2i/evH1CSTG1CbK72audLJEEhPLdeUX0URCmZ+ZYA+oLKpJKMCknHmFDccck7kJphN47t6oqANJjhqP0YBT+FwJcb7stmhOQfkjblQW6PMilKRAUH/Vzbgf1/tespee59PPfAUw1AiqOFJvDiG3rcdLxSBV3yyQ6EXHgNtHbYx8CpKgQj+ndJCGRxaPvhLowGY0pYcAUSoUtqAfjFZKoDLbnjisaETXpVtoYJ6bL0Ntk+zJB5OpsHTq5N04s9oTN7hMbn+kZaTbC4BGBgE10bVqxOyQrhUhOXloRp8+BuyBjK5TW78RclOQ+KK5ZZnbm2IrFAzNAoOUirU/JS+UFUvnzLOYPfmTsDGP8lSiJoMvm6gyTowfH1yaSphJSb6v67oJq0E378J0kH7wUnqtyYap8JNEGX2ZG+tScYfhNToa0fPeDwF0HGIbAQFdI2G93DhgJYZ6CWrnKK2TntmfDs1OFw94cr+llCuZvZM1+z9J9v5r9Y36O8je7jICVnYkgrUue7DK5yU5UijP0BuF7aycujKscOKRG2jrWm1GoH0m990ysQbW3j9lSensuPYFx1VYq0YoAupKDLoe80m9lrJ+mdD+0ul5S78OBkGAArD7p7f5vDC0WF1FlJU8qZT4Ge0GLyDDkorFmILIgR+PMVT0NBB3wFOBXtLHCWh1iOOhWOJ/2YxqLaWxohiGDAZT8pDGRCNgLTOMJnPuRkVft/lbStYDppNNGUgilfqa90FItdok0PdwdbWDkvJQysN2ecLQYc1LV+2n8Hkz7kuXbUVsJG6EJrDisA18hXtZ/nYa1kDzvxWDHNK9O9hf/ZFfBF6WjxxbAJJqQ6UQFpQhiDc2OoBPhv+UYkm5pXzQcGQEt2zEj5Z08ytihW639CR83ckjcT9ulnVdobVmQPaSjwpm8JyX/ht56NHUFDYIhTMD0GiuqDKO2SKVeswzaP/XAF2r9crN63g69bwNSc8IvlWTfVOpw2s9QSfqTXLXmK5zWFuCLaisXgbzmaR/4hCXbu9KSQ8cabk0SDw6FZ3yAyGJWhTHxvNkgbtNpbXstyRpQ4gh2EUnL2EJbXewpJyRAlWY2t9gBOwL5dU23Ekk8rzW/YmgUIGfNnHDPqkPtuwwD5EJ0/JGCUId0fAix/a48h6+r4Klg1IH21rT63IiC40B8qAO+pjwZozNpgSoUf0RdmBn01fedqCAVEM5sXPaSOG1bnJ+m/BnAfGVSiop1PEgG8yGv3QZmohiEarnhw0i1J6UFfgFvRppDTrbHSvN1NzweONlc8oVV89I7IHSejrsUSEqSkUTULHCH6lLqwxLmejd/JDPcZGFq2TImxaGUucLTKJownwYonIK4usXDxv2xO8619SxH7TanC/TKiyLLlbmqUArtkyyEJfQhHoY6HDuXLD5FuwDEeD97AZUC744iLhKTpH5VNGGXbIXPwSiL2t+lIPiSDRXut8tyfEw4vpCGhrBHt3vi49+nUkVzOFMaxO1yPnokc0AVYZYXejfFct6+sGZvL35k4kmr2flEFbJlePC8Xe3QgJlYDFL9vTdero1zbCtOkdyA6WOEcx62IKz3IuTE1H6+ZbpoRWLlSxWmpyMk6HSprxy/SJUD1lyqwrL5IBitLioarAFjjqCKXW9u0DdfaEbPQiU0VPmagX5nPU9EwD0O/rMo7idMEAPKOR32/2s0yOaMxCw7LtcvkBEOJaZ4+tECzeSXOb2bksOlrvmyBnZi0Y73Mdu7cKecbJYg9kFWxjDaXCEkXek0bKiRhZSxPFC1yHnA6Rn9zWtCJqvHSjZvim3DbjgVFvOR5SUjWFB7i0r8bhr8YmSoNuNZIhzttF3PlAcMj0AL6gltu9O1Tx8prbU6XcVvo1WWL31mCDULryITB+wCeqIVb6RhtOInrZiFS4WHFtsCdAEkSY8t5DnN4o0mLGYbxM/E5l714sLvhZeGyVb+PEn24MaRFO4MKiS39H/Ck/bQSS+Oqgs3d8BD1vBSVn27tvmulOruagGXVwGkoNw9+8ezA9AMJZoI3+FzKaX2nMsWdojKJC61BaHB8gLBqZ4395kJOpdLM4ZFNpafB56aZOFvw3ZX7JzJ0kn+gqKTfV7IwGuCukYKiAF5eHPWRJEmYIleIxhNlmVjcBM09dnb9gn9mMyAolbJgoqRMQ9Kp5wQ9nx0fvz/BXCRRJ0uaEysNSdMHswpAEXlwxJnqTt6OXmTINKRmS048P+RLWIF5tSSTWOtdKU8KRPqz/3KiX44MA60EzUKjJb8UBFOY9TYgAoe3ynYU7DYU85/AILEdeMG4CLUx9VfkyGfydBOHNww8jitNY72h7ZTnyfRpuyZadIucyAC/PHV5bKJmlt7EPn1CDn1qwOp9skmAHdmpZR/Yr//skTdrjWWTSn95d1J7kVgWo2UIdEUo8Uc6ovgUoT7zdV5XIwJPNidcNCYpNQp3gMUP0aVn7McHRAe0oliUSnnoTwebR2e3v0ytmLOmCTPV8qf/L+93mdXA0/JDh3GgX9XBF6TVFBAEEfmpgSAQ6KKZmAoWTcqFn72/7m+yFCsMSnxGECqyYYs2yCarlH9BUNxjz4D/JNA7zU13gEels/XpWA6lymu9BFggojqkQLPgN9TxyQrW7TKGruO5xyqsxoYGGo4w9u/ZuIxKwEemsoVP67jMhiQolQyb1s3N6IeoRsAZ/TmmAyOc3e/lDfNIqsOf0Viu09tVPXsO2ZBW07CbDoqFFquvqsRP+p3YcUZtpnYdTBxIuXnPVVKTGIRU+Q+2Xfvl1l3MqNwjQaZoCP7liN1IAXB4vBkROogBO11Zv9Lm30zXlfq6EdZ65lzhxpvT6uV6gsimAzYdP5V+qjTGZ4uRctfzPFm8Qe8nOUHEZBfbw2EJxaO/lzgwGiPOE1wDxDG4UO3kgcmqf+Jq/vc5BfV30UyO7OTuxhhvCYNBZfT6h44gzhQOW8Zwfirc98nhOih6AZ2JJb1XKcU6/gR322s+QkctCmiHxiqVg7K3YCGYu+fRophKHhV8FIgjtpu6YS8wPBp/uDgsR38KwsciQbhTdYQbDNY41HA28qKLi1wVU6qj+QQwc0E2GAoEp1Is6KtzB2RgwAs5dSNx3tdGokhUNrH5T3Uh5dshWno5VPPcZvsDRueeMKJVLjd2e1UqedGBEL/boQnQA4zlXhD+NCwuiDI4TdfWODIUMCj/rXs8Tm7IjJ3HqecJOZuVbFo6UAFDPRo0nT0NoVHIwZRvTPgupn7gHP0a4dJttL/km97huQxyCEiu/lkSjXOS2ZyjHc+VrzsO+nvowKVcdCNIJC5j4F+8CxpaHrLkV3fOgkvoVkiMpzxY1xLpqZHRs57Yg/suUBEN+vPkDGYxgaCEMRLucOhf20fOPSXPaAAGf/PtegqWBZBI05aLEDo2EQwYTS4qLg4G04tkCRnu8/yQswStqEx1LFkOfUI/0j4srMlnKT1MNIMks/4PFjGW1sN3UwMT7XfblQ9WRbwKlxwtP4o1j5Ra58jjRkW9sQOcIZCEsEeHDyXbTI8+G9Nf+Zekf2xJh/RQKqJdHcLzHTqBtsHG8LAuW6n+0MYhgvXgnclDQXNWoUrN6LUARW26LDwhS/atJUwDkO/wmdc9tye3DB9zAg7jqUn0YzwoOJVrx76XZPMIEyt09rmTv7mPrCTz00VGXuKs/9FY9G6Vi1s1xBTfJIvQHhsRBUUK6/jO9tOrSaqfd4TqHVTH3c+banpoUBIcMJarx4CFPXDSs5zE1jWgYyuFRUc81OVC+LifRvfb5X+VMAJhpRJ3v4cIJDg8wkSZOp9lcYLJVsR7EtDzc1p9ipHcZdiEO5IRM7wGQil0SKtgBeic3PDRvyElk3OFrlNIy+mCfEYoRi5GC4qUP5NjgHE1ZHOZJ9B/LFGXfL33vHidDKqoyFxunLszifPyNbMwAJQ7HvMoIOt15dnkcuiqm5nQSXWWrzwtuyxvmJsL3s1Lnv7vwdqU8hlrsGM9zCQ80U+zZs0yLpnIEtjGbt8gyllD5y/9gzjlAqFGW+P3YRzb8NwoHcATZ/4XTGcMyHVtuXpPa0+30TXDFIgbU/3yj3rPpUUiH3R5EbdgKHC2xwHGqoT1sdUHcA5ZVRyerdmwPOy4uKW9+I5mUrFKxUm3pggWVEYr3kRGL2uzAFipNZzxh0XbQgYbV/7ngLY+mwIs4y0B7G254OiNygD51oBDO0LcW1L+UVD2kbN40sGggScrKqaM4hXIwXr/coMwnfqHimqHO/UymrIgNZG1o0hM75HqL4X1pGb39xJT9u4ZXmT+n1t6wSdJysOIo5fqharnih+sxK3pbuMkhPEGkvjyChXpXCxkXZPzZwkrlr7aRRiZidTZr46C/EwzCoQ0myVdgUntrYDu0Nh2qCNyLest9vuFKX/b3PmOIeRWwigVwakjMrcX9HDrdwl75okS+QFt3H9D2lu1Sq/gggtAacJWWyD6RIlg5GAgK0LC6PrJ4SQCgnehR3+808NAzPUs2Dphn3B5mRQ6qbZ1BVOccURwUEhcMHY/5xjpXpA8aTh8ll04Q1HAw9ZnWpUgA+MSxZCZG+nEFyKmW2bLFbv6l7u5ltH4hQsZD7dTmLuqNNO4KUtYD27LuUsspEXLXduuItR6Czp3+uKhUyE/fNuQiRa31DJAeFlVXDgtinA5hw452WHvgBUbhJ82jODSCKH8k7yKv3P0aSWvQNBNZ4UMTTU4z/GRlHrY147E5VZ01BE4LeR6xujR8lpbF5RdRSFPKGHqbLsvT1yt/tNuJCA6FQjQLypgGajcxN3COmxLTC/BJzNfGr1HSwnl5bhs2l0IxCUYmCLg0XSKC3cJ4AZvkz8qQwKGKEOgOGRLftSFNXf3HzjsbmzUjQX3kCnRezMJgxyH2QWuRIuar84XYR4+bmavnVutNyViQOFBHPRDUQyiQB/9p0J/KMPZIFygxPqDQDLV39rmmHhcyF8e1c/sMHUImt69Bspn7SHTwGvDTMypbXvyGMJpXjxCV+GcNaFQzs2s7gpFrNPVp+//rct6AgXhrc8F/s/ZASU0Cg/Gp5Y83fJshDvqUtW/2tzu5Jb9fO5VL+UAP5EYpRFeL/nGycF2lfyCWRMSyZa3y+ZSmlHPPhuKyBRfFGsG1ccxxeJMOHYb3mJaYiyJ0Hvm5WPg7N6NfLrOAv21BM/m9f3Mddc3U1u5IP/LqrVQRg8znfe6EXKVWFyPaxBbSMwqqPP9J+vIIQ14lYa/ACKmFxStJmtnrVAiu0NdRvSqzgJ2zMkzSMmuWBgemJyBzQtdvmL23Ea7ryrpqRtm5y8Kk+D0eSNMnfwlCT+Os+8ui7MFl7z/g+OQq9M6L5hyNgler0cQk3wrraItV/J/4/DPbeOybn0eolqwBkiVPWhvbAD/zrjcRDGxT7qU0OUwYa9a2lHjoBC5PLA4udMlQjv5VZEkMHEn4zrURnU/n3LdQaXpmQiQH2Ejgn8/mrQCM1QlxTWhnq/KIVSy83MFL+WsS7Av8pcd5pZY4Luk2uT+Aw72jJ2SOuz40JKwUdy8Jmf2HLvWczf+tkB8DXasFFWGDZfnymiA5SZStgwLMslSXK7m46N7LJn4RA3irTTcOtnjdS+sN4n6MwVBpNtraWBH/BZZjidIMo0DnGFLxTJ7OqLWH9gyHx7r7ApKNGFDIbjHHSa5/TD9VgUV88j1wKpC3sxLfRKek/1MYSqrVl15JqHbK8NIcCgB1Du8W+4D/inR+aJ32JwesfuJAqA/WHRLribBsdvkOoMuoqvQgci9YHLHtfkLw8N37iOcPJXYJQw31dcF0j3chAkxGfuUHthK8UohgUmn3NrG/tv/jtMjpZnEJvFzSKPuVeHq/mBg950YpZoI80XTcq4uXnknQFf+VauymCaCcBbZ2Tv5BGXSyNUSqs0kjvglw/lRHmsvTjn2M3z7/bR0ln+1s0W0QPHtJyY3/tvSjdCNShNLtdmHhU7FVhMtZgKIYssx0DjnG4haJLUwrWOyGuQXjiWCcR/NtoHx3IxlJ1HHaSH4OYTu9Z2NF1+f3tilIkgJH/KVwYHph1zfrXauGDvzpu1pcfMQAud1oL5QVVLmIqTq63CrmzKheahJs/5VLAb7Fb7p+M4XwoiOOc1rmnmrjwo5ae44zC9hJveaOI66/ZHpg/5QAQqS5lDIdRDLIsNZGG7GlKdX5dfEUPCf2xT8f/Jn21uQL5IFcSQLHPIhomRrD9HRHTwvg51cnxSK2OCXUxrrkt2p887pl/4HNipk3m2Idk2isz3LzSbLyeJKtxw6Bb/CcRc13LyslHmzlhfCDcEnGAwA+M2AHwT1wOMUDzy9abK+LHL7DGoITRpwk9ORfAqy8wCB3rnbqq/BDQqMJabBE5Tfn8+LTBHbyA+y+ccS3DYHMWwUAw36tZOi6dKCpS7BqNQ9QJceLjatjhevZWFf1fGxXs0D5hy06g/WCCA1QFy1FGLBS4FXdGWI2JH0t6iyH7TpSKVUYxobdjW5giR1KKwHtna7fwKvZCf5UdzGmGytgIrgWi0TWMEWeRoXLHONx9iTg0rt5eidXAjjpHz+api4SSH60xfCO1JUkL+SAcv1P27UMP473BCs+w9L06RtZVrqeJxoDSV6z+7P9/8R7aSE+jBvSrbL9PjzEKXZzBWtf9idbxbYeT16rsZ9eElvlOOzD+Tvl9sDvPCe8SMFJC8UkcZGC/+NTOP0oLqkBE0X1NK64nGBKHlE6wm88qJc/PC75C7xL0DBHaI1aIsRFys9RzYIDCHndDQGp0sJMAsbT5UjTnJDRPlMobvel7hXluhCk+DTsZqH0L1KMAeo0//IEtVKzgLrTqipU7u8UOi+qUK5NihcNXtTM2r7K2uRHbMpme6HdDOuilbvQw9iaBtRWa7HCLbL4APl7bhYKaYYRehX8b0ipAVuuQwY5zAkErJHTUYcYQteBLFuWTASqh1aBUzcJX76wjsTzVJxTaT0a5PmORBci2w1EcrTx5Yma13X1ukccBr5GDwsY4EQn5+G9yjNJsSbtyAi66eBvTJJlPHO0yhZAeKwAAABFWElGugAAAEV4aWYAAElJKgAIAAAABgASAQMAAQAAAAEAAAAaAQUAAQAAAFYAAAAbAQUAAQAAAF4AAAAoAQMAAQAAAAIAAAATAgMAAQAAAAEAAABphwQAAQAAAGYAAAAAAAAASAAAAAEAAABIAAAAAQAAAAYAAJAHAAQAAAAwMjEwAZEHAAQAAAABAgMAAKAHAAQAAAAwMTAwAaADAAEAAAD//wAAAqAEAAEAAAD0AQAAA6AEAAEAAAA8AQAAAAAAAA==;" parent="aWh0_txZF6k_S7zX-cxL-68" vertex="1">
          <mxGeometry x="540" y="129.99999999999997" width="220" height="139.04" as="geometry" />
        </mxCell>
        <mxCell id="aWh0_txZF6k_S7zX-cxL-70" style="edgeStyle=orthogonalEdgeStyle;rounded=0;orthogonalLoop=1;jettySize=auto;html=1;entryX=0.5;entryY=0;entryDx=0;entryDy=0;sketch=1;curveFitting=1;jiggle=2;" parent="aWh0_txZF6k_S7zX-cxL-68" source="aWh0_txZF6k_S7zX-cxL-72" target="aWh0_txZF6k_S7zX-cxL-78" edge="1">
          <mxGeometry relative="1" as="geometry">
            <Array as="points">
              <mxPoint x="560" y="430" />
            </Array>
          </mxGeometry>
        </mxCell>
        <mxCell id="aWh0_txZF6k_S7zX-cxL-71" value="Yes" style="edgeLabel;html=1;align=center;verticalAlign=middle;resizable=0;points=[];fontSize=13;fontFamily=Architects Daughter;fontSource=https%3A%2F%2Ffonts.googleapis.com%2Fcss%3Ffamily%3DArchitects%2BDaughter;" parent="aWh0_txZF6k_S7zX-cxL-70" vertex="1" connectable="0">
          <mxGeometry x="0.2" y="-1" relative="1" as="geometry">
            <mxPoint as="offset" />
          </mxGeometry>
        </mxCell>
        <mxCell id="aWh0_txZF6k_S7zX-cxL-72" value="Is data available to assess the cause?" style="strokeWidth=2;html=1;shape=mxgraph.flowchart.decision;whiteSpace=wrap;sketch=1;curveFitting=1;jiggle=2;fontFamily=Architects Daughter;fontSource=https%3A%2F%2Ffonts.googleapis.com%2Fcss%3Ffamily%3DArchitects%2BDaughter;" parent="aWh0_txZF6k_S7zX-cxL-68" vertex="1">
          <mxGeometry x="600" y="370" width="140" height="120" as="geometry" />
        </mxCell>
        <mxCell id="aWh0_txZF6k_S7zX-cxL-73" style="edgeStyle=orthogonalEdgeStyle;rounded=0;sketch=1;hachureGap=4;jiggle=2;curveFitting=1;orthogonalLoop=1;jettySize=auto;html=1;fontFamily=Architects Daughter;fontSource=https%3A%2F%2Ffonts.googleapis.com%2Fcss%3Ffamily%3DArchitects%2BDaughter;fontSize=16;" parent="aWh0_txZF6k_S7zX-cxL-68" source="aWh0_txZF6k_S7zX-cxL-74" edge="1">
          <mxGeometry relative="1" as="geometry">
            <mxPoint x="629.9999999999998" y="560" as="targetPoint" />
          </mxGeometry>
        </mxCell>
        <mxCell id="aWh0_txZF6k_S7zX-cxL-74" value="go, do your homework and collect the proper data" style="rounded=1;whiteSpace=wrap;html=1;sketch=1;curveFitting=1;jiggle=2;fontFamily=Architects Daughter;fontSource=https%3A%2F%2Ffonts.googleapis.com%2Fcss%3Ffamily%3DArchitects%2BDaughter;" parent="aWh0_txZF6k_S7zX-cxL-68" vertex="1">
          <mxGeometry x="700" y="530" width="120" height="60" as="geometry" />
        </mxCell>
        <mxCell id="aWh0_txZF6k_S7zX-cxL-75" style="edgeStyle=orthogonalEdgeStyle;rounded=0;orthogonalLoop=1;jettySize=auto;html=1;exitX=1;exitY=0.5;exitDx=0;exitDy=0;exitPerimeter=0;entryX=0.558;entryY=0;entryDx=0;entryDy=0;entryPerimeter=0;sketch=1;curveFitting=1;jiggle=2;" parent="aWh0_txZF6k_S7zX-cxL-68" source="aWh0_txZF6k_S7zX-cxL-72" target="aWh0_txZF6k_S7zX-cxL-74" edge="1">
          <mxGeometry relative="1" as="geometry" />
        </mxCell>
        <mxCell id="aWh0_txZF6k_S7zX-cxL-76" value="No" style="edgeLabel;html=1;align=center;verticalAlign=middle;resizable=0;points=[];fontSize=13;fontFamily=Architects Daughter;fontSource=https%3A%2F%2Ffonts.googleapis.com%2Fcss%3Ffamily%3DArchitects%2BDaughter;" parent="aWh0_txZF6k_S7zX-cxL-75" vertex="1" connectable="0">
          <mxGeometry x="0.3701" y="3" relative="1" as="geometry">
            <mxPoint as="offset" />
          </mxGeometry>
        </mxCell>
        <mxCell id="aWh0_txZF6k_S7zX-cxL-77" style="edgeStyle=orthogonalEdgeStyle;rounded=0;orthogonalLoop=1;jettySize=auto;html=1;entryX=1;entryY=0.5;entryDx=0;entryDy=0;exitX=0.5;exitY=1;exitDx=0;exitDy=0;sketch=1;curveFitting=1;jiggle=2;" parent="aWh0_txZF6k_S7zX-cxL-68" source="aWh0_txZF6k_S7zX-cxL-78" target="aWh0_txZF6k_S7zX-cxL-11" edge="1">
          <mxGeometry relative="1" as="geometry">
            <mxPoint x="525" y="538" as="sourcePoint" />
            <mxPoint x="450" y="380" as="targetPoint" />
          </mxGeometry>
        </mxCell>
        <mxCell id="aWh0_txZF6k_S7zX-cxL-78" value="Create an expert team to assess data to figure out the cause" style="rounded=1;whiteSpace=wrap;html=1;sketch=1;curveFitting=1;jiggle=2;fontFamily=Architects Daughter;fontSource=https%3A%2F%2Ffonts.googleapis.com%2Fcss%3Ffamily%3DArchitects%2BDaughter;" parent="aWh0_txZF6k_S7zX-cxL-68" vertex="1">
          <mxGeometry x="500" y="530" width="120" height="60" as="geometry" />
        </mxCell>
        <mxCell id="aWh0_txZF6k_S7zX-cxL-79" style="edgeStyle=orthogonalEdgeStyle;rounded=0;orthogonalLoop=1;jettySize=auto;html=1;sketch=1;curveFitting=1;jiggle=2;" parent="aWh0_txZF6k_S7zX-cxL-68" source="aWh0_txZF6k_S7zX-cxL-80" target="aWh0_txZF6k_S7zX-cxL-81" edge="1">
          <mxGeometry relative="1" as="geometry" />
        </mxCell>
        <mxCell id="aWh0_txZF6k_S7zX-cxL-80" value="Identify who has the power to take action ?" style="whiteSpace=wrap;html=1;shadow=0;strokeWidth=1;spacing=6;spacingTop=-4;fontFamily=Architects Daughter;fontSource=https%3A%2F%2Ffonts.googleapis.com%2Fcss%3Ffamily%3DArchitects%2BDaughter;sketch=1;curveFitting=1;jiggle=2;" parent="aWh0_txZF6k_S7zX-cxL-68" vertex="1">
          <mxGeometry x="395.5" y="910" width="154.5" height="60" as="geometry" />
        </mxCell>
        <mxCell id="aWh0_txZF6k_S7zX-cxL-81" value="Actor" style="shape=umlActor;verticalLabelPosition=bottom;verticalAlign=top;html=1;outlineConnect=0;labelBorderColor=default;sketch=1;curveFitting=1;jiggle=2;fontFamily=Architects Daughter;fontSource=https%3A%2F%2Ffonts.googleapis.com%2Fcss%3Ffamily%3DArchitects%2BDaughter;" parent="aWh0_txZF6k_S7zX-cxL-68" vertex="1">
          <mxGeometry x="310" y="920" width="30" height="60" as="geometry" />
        </mxCell>
        <mxCell id="aWh0_txZF6k_S7zX-cxL-82" style="edgeStyle=orthogonalEdgeStyle;rounded=0;sketch=1;hachureGap=4;jiggle=2;curveFitting=1;orthogonalLoop=1;jettySize=auto;html=1;fontFamily=Architects Daughter;fontSource=https%3A%2F%2Ffonts.googleapis.com%2Fcss%3Ffamily%3DArchitects%2BDaughter;fontSize=16;" parent="aWh0_txZF6k_S7zX-cxL-68" source="aWh0_txZF6k_S7zX-cxL-80" target="aWh0_txZF6k_S7zX-cxL-28" edge="1">
          <mxGeometry relative="1" as="geometry" />
        </mxCell>
      </root>
    </mxGraphModel>
  </diagram>
  <diagram id="8c2BkFEkipkl9jFD9R1T" name="Page-2">
    <mxGraphModel dx="1631" dy="792" grid="1" gridSize="10" guides="1" tooltips="1" connect="1" arrows="1" fold="1" page="1" pageScale="1" pageWidth="850" pageHeight="1100" math="0" shadow="0">
      <root>
        <mxCell id="0" />
        <mxCell id="1" parent="0" />
        <mxCell id="BvxLBho1C2H9oraGP8dS-1" value="&lt;h1&gt;Design ideas&lt;/h1&gt;&lt;h1&gt;&lt;br&gt;&lt;/h1&gt;&lt;h1&gt;What is the innovation&lt;/h1&gt;&lt;div&gt;&lt;ul&gt;&lt;li&gt;generic DDS approach&lt;/li&gt;&lt;li&gt;&lt;br&gt;&lt;/li&gt;&lt;/ul&gt;&lt;/div&gt;&lt;h1&gt;Keep it simple/KISS&lt;/h1&gt;&lt;div&gt;&lt;ul&gt;&lt;li&gt;Who are the beneficiaris&amp;nbsp;&lt;/li&gt;&lt;li&gt;Describe your management issue?&lt;/li&gt;&lt;/ul&gt;&lt;div&gt;&lt;br&gt;&lt;/div&gt;&lt;/div&gt;&lt;div&gt;Value proposition&lt;/div&gt;&lt;div&gt;&lt;ul&gt;&lt;li&gt;High/unknown costs of inaction often outweigh costs of measures to solve the problem&lt;/li&gt;&lt;/ul&gt;&lt;/div&gt;" style="text;html=1;strokeColor=none;fillColor=none;spacing=5;spacingTop=-20;whiteSpace=wrap;overflow=hidden;rounded=0;" vertex="1" parent="1">
          <mxGeometry x="90" y="80" width="230" height="330" as="geometry" />
        </mxCell>
      </root>
    </mxGraphModel>
  </diagram>
</mxfile>
